<svg width="125" height="123" viewBox="0 0 125 123" fill="none" xmlns="http://www.w3.org/2000/svg">
<ellipse cx="62.5" cy="61.5" rx="62.5" ry="61.5" fill="#E8F4F9"/>
<path d="M50.0488 40.1668V37.7357C50.0488 33.3076 53.6376 29.7188 58.0657 29.7188H68.4849V34.9428C68.4849 34.9428 63.7963 40.1668 63.8107 40.1668H50.0488Z" stroke="#264164" stroke-width="3" stroke-linecap="round" stroke-linejoin="round"/>
<path d="M59.9604 40.166H53.3037V47.2568H59.9604V40.166Z" stroke="#264164" stroke-width="3" stroke-linecap="round" stroke-linejoin="round"/>
<path d="M48.0374 60.1659C49.8752 57.6769 50.8592 54.6525 50.8592 51.5557V47.2578H62.9714V57.1415C62.9714 59.6739 64.2594 62.0472 66.3866 63.4219C68.5138 64.7966 69.8018 67.1699 69.8018 69.7023V96.2276L44 96.2566V72.4807C44 68.0526 45.4181 63.7258 48.0374 60.1659Z" stroke="#264164" stroke-width="3" stroke-linecap="round" stroke-linejoin="round"/>
<path d="M73.7094 29.7188H68.4854V34.9428H73.7094V29.7188Z" stroke="#264164" stroke-width="3" stroke-linecap="round" stroke-linejoin="round"/>
<path d="M68.6874 36.2891L75.2862 46.5924H71.4514L64.3027 40.1818" stroke="#264164" stroke-width="3" stroke-linejoin="round"/>
<path d="M80.1191 32.3379C80.1191 33.0325 80.6835 33.6113 81.3926 33.6113C82.1017 33.6113 82.666 33.047 82.666 32.3379C82.666 31.6288 82.1017 31.0645 81.3926 31.0645C80.6835 31.0645 80.1191 31.6288 80.1191 32.3379Z" fill="#264164" stroke="#264164" stroke-width="1.27345" stroke-miterlimit="10"/>
<path d="M88.9756 33.6113C89.6789 33.6113 90.2491 33.0412 90.2491 32.3379C90.2491 31.6346 89.6789 31.0645 88.9756 31.0645C88.2723 31.0645 87.7021 31.6346 87.7021 32.3379C87.7021 33.0412 88.2723 33.6113 88.9756 33.6113Z" fill="#264164" stroke="#264164" stroke-width="1.27345" stroke-miterlimit="10"/>
<path d="M88.9756 28.5469C89.6789 28.5469 90.2491 27.9767 90.2491 27.2734C90.2491 26.5701 89.6789 26 88.9756 26C88.2723 26 87.7021 26.5701 87.7021 27.2734C87.7021 27.9767 88.2723 28.5469 88.9756 28.5469Z" fill="#264164" stroke="#264164" stroke-width="1.27345" stroke-miterlimit="10"/>
<path d="M88.9756 38.6778C89.6789 38.6778 90.2491 38.1076 90.2491 37.4043C90.2491 36.701 89.6789 36.1309 88.9756 36.1309C88.2723 36.1309 87.7021 36.701 87.7021 37.4043C87.7021 38.1076 88.2723 38.6778 88.9756 38.6778Z" fill="#264164" stroke="#264164" stroke-width="1.27345" stroke-miterlimit="10"/>
<path d="M85.1856 31.0801C85.8889 31.0801 86.459 30.51 86.459 29.8066C86.459 29.1033 85.8889 28.5332 85.1856 28.5332C84.4823 28.5332 83.9121 29.1033 83.9121 29.8066C83.9121 30.51 84.4823 31.0801 85.1856 31.0801Z" fill="#264164" stroke="#264164" stroke-width="1.27345" stroke-miterlimit="10"/>
<path d="M85.1856 36.1446C85.8889 36.1446 86.459 35.5744 86.459 34.8711C86.459 34.1678 85.8889 33.5977 85.1856 33.5977C84.4823 33.5977 83.9121 34.1678 83.9121 34.8711C83.9121 35.5744 84.4823 36.1446 85.1856 36.1446Z" fill="#264164" stroke="#264164" stroke-width="1.27345" stroke-miterlimit="10"/>
</svg>
