<svg width="133" height="132" viewBox="0 0 133 132" fill="none" xmlns="http://www.w3.org/2000/svg">
<ellipse cx="66.4637" cy="66.0002" rx="66.3211" ry="65.26" fill="#1F4975"/>
<path d="M42.8252 50.397C48.0999 43.8208 56.1832 39.625 65.2598 39.625" stroke="white" stroke-width="3.42513" stroke-linecap="round" stroke-linejoin="round"/>
<path d="M59.2653 96.4655C49.4352 94.3762 41.4547 87.269 38.1494 77.9355" stroke="white" stroke-width="3.42513" stroke-linecap="round" stroke-linejoin="round"/>
<path d="M91.3925 56.3906C93.0708 60.0384 93.9956 64.08 93.9956 68.3615C93.9956 75.1603 91.6323 81.3941 87.6934 86.3263" stroke="white" stroke-width="3.42513" stroke-linecap="round" stroke-linejoin="round"/>
<path d="M48.2211 45.2247C46.4401 34.3328 56.6812 27.277 65.9119 29.3663C75.605 31.5584 83.8596 39.6417 90.2817 46.766C88.5349 45.944 85.2639 46.7146 84.3049 46.903C77.3005 48.3244 74.0808 55.2603 67.4018 56.9729C60.4831 58.7368 50.79 53.8046 48.2382 45.2247" stroke="white" stroke-width="3.42513" stroke-linecap="round" stroke-linejoin="round"/>
<path d="M93.9959 68.0177C103.792 73.1212 103.518 85.6914 96.2907 91.771C88.6869 98.1589 77.2641 99.8714 67.708 100.676C69.4206 99.7858 70.7735 96.7203 71.2188 95.8298C74.3185 89.3905 70.7393 82.6259 73.4109 76.2894C76.1852 69.7132 86.1181 65.603 94.013 68.0349" stroke="white" stroke-width="3.42513" stroke-linecap="round" stroke-linejoin="round"/>
<path d="M50.8746 93.2449C39.9827 97.8346 30.9403 94.2211 28.8167 84.9904C26.5904 75.3144 30.2895 64.3711 33.9202 55.5C33.9202 57.4352 36.0438 60.0383 36.6432 60.8261C40.9588 66.5289 48.614 66.4262 53.0496 71.6837C57.6392 77.1468 57.331 88.484 50.8746 93.2278" stroke="white" stroke-width="3.42513" stroke-linecap="round" stroke-linejoin="round"/>
</svg>
