<svg width="125" height="123" viewBox="0 0 125 123" fill="none" xmlns="http://www.w3.org/2000/svg">
<ellipse cx="62.5" cy="61.5" rx="62.5" ry="61.5" fill="#E8F4F9"/>
<path d="M25.0166 86.8443C26.8121 85.6639 32.9801 84.6997 35.0915 85.5974C37.2029 86.4952 59.0651 93.9766 61.1765 94.8743C63.0884 95.689 78.1176 89.6374 80.096 88.7063C81.9913 87.8086 91.4011 81.6573 94.5766 78.6148C94.1609 76.8526 91.9332 74.5749 88.4252 73.9598C85.0836 73.3613 82.357 74.791 78.5997 77.8999L68.9571 78.6315" stroke="#264164" stroke-width="3" stroke-linejoin="round"/>
<path d="M48.3751 77.2176C48.3751 77.2176 60.4284 82.3714 62.1408 83.1029C69.0236 86.0455 72.6978 77.4337 65.815 74.491C64.0859 73.7595 61.509 72.6456 56.7209 70.6007C55.2912 69.9856 54.0609 65.397 51.7999 64.4327C50.7858 64.0005 45.5155 61.7561 43.188 60.7586C40.8605 59.7611 37.1697 60.4261 34.8255 61.2573C31.1513 62.737 25 65.2474 25 65.2474" stroke="#264164" stroke-width="3" stroke-linejoin="round"/>
<mask id="mask0_552_7764" style="mask-type:luminance" maskUnits="userSpaceOnUse" x="55" y="24" width="29" height="40">
<path d="M83.9562 24H55.0615V63.5348H83.9562V24Z" fill="white"/>
</mask>
<g mask="url(#mask0_552_7764)">
<path d="M69.5086 57.9328C65.7181 57.9328 62.4762 55.306 61.1461 51.6152H55.2109C56.7737 58.4482 62.5925 63.5355 69.5086 63.5355C76.4247 63.5355 82.2436 58.4482 83.8063 51.6152H77.8711C76.5411 55.306 73.2992 57.9328 69.5086 57.9328Z" fill="#264164"/>
<path d="M69.5089 32.9776C72.917 37.4332 76.824 43.3684 78.0709 47.3917H83.9562C82.2604 39.4282 72.9004 28.0399 71.72 26.6434L69.5089 24L67.2977 26.6434C66.1339 28.0399 56.7573 39.4282 55.0615 47.3917H60.9469C62.2104 43.3684 66.1173 37.4332 69.5089 32.9776Z" fill="#264164"/>
</g>
</svg>
