<svg width="133" height="132" viewBox="0 0 133 132" fill="none" xmlns="http://www.w3.org/2000/svg">
<ellipse cx="66.4637" cy="66.0002" rx="66.3211" ry="65.26" fill="#1F4975"/>
<path d="M25.1621 99.3595C27.2866 97.9628 34.5847 96.8219 37.083 97.8842C39.5813 98.9464 65.4493 107.799 67.9475 108.861C70.2097 109.825 87.9928 102.664 90.3337 101.563C92.5762 100.5 103.71 93.222 107.467 89.6221C106.976 87.537 104.34 84.842 100.189 84.1141C96.2351 83.406 93.009 85.0977 88.5632 88.7763L77.1538 89.6418" stroke="white" stroke-width="3.93429" stroke-linejoin="round"/>
<path d="M52.8007 87.9696C52.8007 87.9696 67.0625 94.0678 69.0886 94.9333C77.2326 98.4151 81.58 88.2253 73.436 84.7435C71.3902 83.8779 68.3411 82.5599 62.6757 80.1404C60.984 79.4125 59.5283 73.9832 56.853 72.8422C55.653 72.3308 49.4172 69.6751 46.6632 68.4949C43.9092 67.3146 39.5421 68.1014 36.7684 69.085C32.421 70.8358 25.1426 73.8062 25.1426 73.8062" stroke="white" stroke-width="3.93429" stroke-linejoin="round"/>
<mask id="mask0_269_1711" style="mask-type:luminance" maskUnits="userSpaceOnUse" x="60" y="25" width="35" height="47">
<path d="M94.9009 25H60.7119V71.7787H94.9009V25Z" fill="white"/>
</mask>
<g mask="url(#mask0_269_1711)">
<path d="M77.8061 65.15C73.321 65.15 69.4851 62.0419 67.9114 57.6748H60.8887C62.7378 65.7598 69.6228 71.7792 77.8061 71.7792C85.9894 71.7792 92.8745 65.7598 94.7236 57.6748H87.7008C86.1271 62.0419 82.2912 65.15 77.8061 65.15Z" fill="white"/>
<path d="M77.8064 35.6226C81.8391 40.8945 86.4619 47.9172 87.9372 52.6777H94.9009C92.8944 43.2551 81.8194 29.7802 80.4227 28.1278L77.8064 25L75.1901 28.1278C73.8131 29.7802 62.7184 43.2551 60.7119 52.6777H67.6756C69.1707 47.9172 73.7934 40.8945 77.8064 35.6226Z" fill="white"/>
</g>
</svg>
