<svg width="125" height="123" viewBox="0 0 125 123" fill="none" xmlns="http://www.w3.org/2000/svg">
<ellipse cx="62.5" cy="61.5" rx="62.5" ry="61.5" fill="#E8F4F9"/>
<g clip-path="url(#clip0_552_7740)">
<path d="M35.7422 34.0605V90.2065" stroke="#264164" stroke-width="3" stroke-miterlimit="10"/>
<path d="M34.5938 89.168H90.7397" stroke="#264164" stroke-width="3" stroke-miterlimit="10"/>
<path d="M86.1958 56.2598H82.6831C82.2309 56.2598 81.8643 56.6264 81.8643 57.0786V88.349C81.8643 88.8012 82.2309 89.1678 82.6831 89.1678H86.1958C86.648 89.1678 87.0146 88.8012 87.0146 88.349V57.0786C87.0146 56.6264 86.648 56.2598 86.1958 56.2598Z" stroke="#264164" stroke-width="3" stroke-miterlimit="10"/>
<path d="M73.8882 62.1406H70.3755C69.9232 62.1406 69.5566 62.5072 69.5566 62.9594V88.3508C69.5566 88.803 69.9232 89.1696 70.3755 89.1696H73.8882C74.3404 89.1696 74.707 88.803 74.707 88.3508V62.9594C74.707 62.5072 74.3404 62.1406 73.8882 62.1406Z" stroke="#264164" stroke-width="3" stroke-miterlimit="10"/>
<path d="M61.852 68.1719H58.3393C57.8871 68.1719 57.5205 68.5385 57.5205 68.9907V88.3474C57.5205 88.7996 57.8871 89.1662 58.3393 89.1662H61.852C62.3042 89.1662 62.6708 88.7996 62.6708 88.3474V68.9907C62.6708 68.5385 62.3042 68.1719 61.852 68.1719Z" stroke="#264164" stroke-width="3" stroke-miterlimit="10"/>
<path d="M50.5044 72.7109H46.9917C46.5394 72.7109 46.1729 73.0775 46.1729 73.5297V88.3503C46.1729 88.8025 46.5394 89.1691 46.9917 89.1691H50.5044C50.9566 89.1691 51.3232 88.8025 51.3232 88.3503V73.5297C51.3232 73.0775 50.9566 72.7109 50.5044 72.7109Z" stroke="#264164" stroke-width="3" stroke-miterlimit="10"/>
<path d="M57.5205 59.8804L80.7175 46.8203" stroke="#264164" stroke-width="2.29267" stroke-miterlimit="10"/>
<path d="M85.1647 44.46L83.4861 47.3013L81.8076 50.1426C81.7339 48.9062 81.6602 47.678 81.5865 46.4416C80.5793 45.7619 79.5722 45.0741 78.5732 44.3945L81.8731 44.4273L85.1729 44.46H85.1647Z" stroke="#264164" stroke-width="1.63762" stroke-miterlimit="10"/>
<path d="M82.3895 48.2112C85.0261 48.2112 85.0261 44.1172 82.3895 44.1172C79.753 44.1172 79.753 48.2112 82.3895 48.2112Z" fill="#264164"/>
<path d="M45.8525 62.1254V48.489H46.726V62.1254H45.8525ZM48.7928 52.5799C48.7289 52.0401 48.4696 51.6211 48.0151 51.3228C47.5605 51.0245 47.003 50.8754 46.3425 50.8754C45.8596 50.8754 45.437 50.9535 45.0748 51.1097C44.7161 51.266 44.4355 51.4808 44.2331 51.7543C44.0343 52.0277 43.9348 52.3384 43.9348 52.6864C43.9348 52.9776 44.0041 53.228 44.1426 53.4375C44.2846 53.6435 44.4657 53.8157 44.6859 53.9542C44.9061 54.0891 45.1369 54.201 45.3784 54.2898C45.6199 54.375 45.8418 54.4442 46.0442 54.4975L47.1522 54.7958C47.4363 54.8704 47.7523 54.9734 48.1003 55.1048C48.4519 55.2362 48.7875 55.4155 49.1071 55.6428C49.4302 55.8665 49.6966 56.1541 49.9061 56.5057C50.1156 56.8572 50.2203 57.2887 50.2203 57.8001C50.2203 58.3896 50.0659 58.9222 49.7569 59.3981C49.4515 59.8739 49.0041 60.2521 48.4146 60.5327C47.8287 60.8132 47.1167 60.9535 46.2786 60.9535C45.4973 60.9535 44.8208 60.8274 44.2491 60.5753C43.6809 60.3232 43.2335 59.9716 42.9068 59.5206C42.5836 59.0696 42.4007 58.5458 42.3581 57.9492H43.7218C43.7573 58.3612 43.8958 58.7021 44.1373 58.9719C44.3823 59.2383 44.6912 59.4371 45.0641 59.5685C45.4405 59.6964 45.8453 59.7603 46.2786 59.7603C46.7828 59.7603 47.2356 59.6786 47.6369 59.5153C48.0382 59.3484 48.356 59.1175 48.5904 58.8228C48.8248 58.5245 48.9419 58.1765 48.9419 57.7788C48.9419 57.4165 48.8407 57.1218 48.6383 56.8945C48.4359 56.6673 48.1696 56.4826 47.8393 56.3406C47.5091 56.1985 47.1522 56.0742 46.7686 55.9677L45.4263 55.5842C44.574 55.3391 43.8993 54.9893 43.4022 54.5348C42.905 54.0803 42.6564 53.4854 42.6564 52.7504C42.6564 52.1396 42.8216 51.6069 43.1518 51.1523C43.4856 50.6942 43.9331 50.3391 44.4941 50.087C45.0588 49.8313 45.6891 49.7035 46.3851 49.7035C47.0882 49.7035 47.7132 49.8295 48.2601 50.0817C48.807 50.3303 49.2402 50.6712 49.5598 51.1044C49.883 51.5376 50.0534 52.0295 50.0712 52.5799H48.7928Z" fill="#264164"/>
<path d="M93.1805 89.0853L91.7558 89.9123L90.3311 90.7393C90.6013 90.1825 90.8715 89.6257 91.1417 89.0689C90.8715 88.5285 90.6013 87.9799 90.3311 87.4395L91.7558 88.2665L93.1805 89.0935V89.0853Z" stroke="#264164" stroke-width="0.818812" stroke-miterlimit="10"/>
<path d="M91.5532 90.1759C92.8715 90.1759 92.8715 88.1289 91.5532 88.1289C90.2349 88.1289 90.2349 90.1759 91.5532 90.1759Z" fill="#264164"/>
<path d="M35.7405 31.8184L36.5675 33.2431L37.3945 34.6678C36.8377 34.3976 36.281 34.1274 35.7242 33.8572C35.1837 34.1274 34.6351 34.3976 34.0947 34.6678L34.9217 33.2431L35.7487 31.8184H35.7405Z" stroke="#264164" stroke-width="0.818812" stroke-miterlimit="10"/>
<path d="M35.7973 34.4689C37.1156 34.4689 37.1156 32.4219 35.7973 32.4219C34.479 32.4219 34.479 34.4689 35.7973 34.4689Z" fill="#264164"/>
</g>
<defs>
<clipPath id="clip0_552_7740">
<rect width="60.9442" height="60.7559" fill="white" transform="translate(33.0557 31)"/>
</clipPath>
</defs>
</svg>
