<svg width="134" height="132" viewBox="0 0 134 132" fill="none" xmlns="http://www.w3.org/2000/svg">
<ellipse cx="66.8211" cy="66.0002" rx="66.3211" ry="65.26" fill="#1F4975"/>
<path d="M50.5931 66.0938L45.7396 66.7189L42.4303 60.9461C38.8637 62.2147 35.6096 64.3105 32.9806 67.105L36.9333 72.4733L34.3962 76.665L27.8145 75.6539C26.5276 79.4043 26.215 83.2284 26.7482 86.8869L33.4035 87.1443L35.0949 91.7405L30.2045 96.2631C32.2085 99.4253 34.9662 102.146 38.3122 104.113L42.6693 99.076L47.3207 100.62L47.7987 107.276C51.6778 107.698 55.5203 107.165 59.0317 105.805L57.7816 99.2598L61.8814 96.5757L67.3784 100.326C69.989 97.6971 72.0113 94.443 73.2063 90.6742L67.3232 87.5488L67.7829 82.6768L74.144 80.728C73.7027 76.9224 72.3422 73.3006 70.228 70.1385L64.1243 72.8042L60.6128 69.4031L63.058 63.2074C61.4769 62.233 59.7671 61.4057 57.9287 60.799C56.0718 60.1923 54.1966 59.8246 52.3397 59.6592L50.6115 66.0938H50.5931ZM58.186 84.7543C57.2852 90.0675 51.5675 92.9539 46.7507 90.4903C43.754 88.9644 42.0259 85.5264 42.5958 82.2172C43.4967 76.904 49.2143 74.0176 54.0311 76.4812C57.0278 78.0071 58.756 81.445 58.186 84.7543Z" stroke="white" stroke-width="3.21732" stroke-linecap="round" stroke-linejoin="round"/>
<path d="M88.0606 34.1958L84.1447 33.6443L82.8026 28.4414C79.7507 28.662 76.7724 29.5996 74.125 31.2175L76.0554 36.2365L73.1874 38.9575L68.2787 36.7697C66.477 39.3987 65.4107 42.3219 65.043 45.2818L70.1723 46.8996L70.5032 50.834L65.7232 53.2975C66.6057 56.2023 68.1684 58.9049 70.3561 61.1478L74.8236 58.1511L78.1145 60.3389L77.0666 65.6153C79.9897 66.7735 83.0967 67.1964 86.1302 66.8838L86.5715 61.5155L90.3403 60.3021L93.815 64.4019C96.4073 62.9127 98.687 60.8169 100.415 58.1327L96.4992 54.4374L97.8964 50.742L103.283 50.5766C103.743 47.5247 103.467 44.3993 102.493 41.4945L97.1794 42.2667L95.1755 38.8655L98.4112 34.5635C97.4001 33.4604 96.2418 32.4677 94.9365 31.6036C93.6312 30.7211 92.2339 30.0409 90.8183 29.5261L88.0974 34.159L88.0606 34.1958ZM90.0829 50.1354C88.2996 54.3454 82.9497 55.4118 79.6772 52.2128C77.8571 50.4295 77.3056 47.5983 78.2983 45.2634C80.0817 41.0533 85.4316 39.987 88.7041 43.1859C90.5242 44.9693 91.0757 47.8005 90.0829 50.1354Z" stroke="white" stroke-width="3.21732" stroke-linecap="round" stroke-linejoin="round"/>
</svg>
