<svg width="134" height="132" viewBox="0 0 134 132" fill="none" xmlns="http://www.w3.org/2000/svg">
<ellipse cx="66.8211" cy="66.0002" rx="66.3211" ry="65.26" fill="#1F4975"/>
<path d="M85.4802 33.3548C88.2257 39.1048 93.4922 43.4215 99.8465 44.8893C101.383 45.2346 102.506 46.5642 102.506 48.1528V57.0108C102.506 72.1196 96.7039 86.8658 85.7047 97.2088C80.2828 102.303 74.0839 106.032 67.1597 108.553C66.4172 108.83 65.5884 108.83 64.8459 108.553C57.9218 106.032 51.7056 102.303 46.301 97.2088C35.2845 86.8658 29.5 72.1196 29.5 57.0108V48.1528C29.5 46.5642 30.6224 45.2519 32.1592 44.8893C38.5135 43.4215 43.78 39.1048 46.5255 33.3548C47.078 32.1979 48.2349 31.4727 49.5127 31.4727H82.493C83.7708 31.4727 84.9449 32.1979 85.4802 33.3548Z" stroke="white" stroke-width="3.45344" stroke-miterlimit="10"/>
<path d="M67.4181 96.742C66.5375 97.1564 65.4842 97.1564 64.6035 96.742C58.0247 93.6339 52.5856 89.0926 48.0788 82.9282C43.0713 76.0904 40.3086 67.4913 40.3086 58.7196V55.6115C40.3086 54.3856 40.9648 53.2459 42.0526 52.6761C46.2485 50.5004 49.9264 47.4269 52.81 43.6626C53.4662 42.8165 54.4504 42.2812 55.5037 42.2812H76.5006C77.5712 42.2812 78.5554 42.8165 79.1943 43.6626C82.0779 47.4269 85.7731 50.5004 89.9517 52.6761C91.0396 53.2459 91.6957 54.3856 91.6957 55.6115V58.7196C91.6957 67.5086 88.933 76.1077 83.9255 82.9282C79.4188 89.0926 73.9796 93.6339 67.4008 96.742H67.4181Z" stroke="white" stroke-width="3.45344" stroke-miterlimit="10"/>
<path d="M58.786 79.0999V77.684H68.7319C70.2975 77.684 71.0802 76.9012 71.0802 75.3356V71.4678C71.0802 69.9022 70.2975 69.1195 68.7319 69.1195H61.3416V66.4948H68.7319C70.2975 66.4948 71.0802 65.7121 71.0802 64.1465V61.4528C71.0802 59.8873 70.2975 59.1045 68.7319 59.1045H59.1314V57.6886L60.6854 56.4799H68.6974C72.2199 56.4799 73.9811 58.2411 73.9811 61.7636V64.2846C73.9811 65.2056 73.6933 65.9538 73.1178 66.5294L71.9091 67.7381L73.1178 68.9468C73.6933 69.5224 73.9811 70.2706 73.9811 71.1915V75.0248C73.9811 78.5473 72.2199 80.3086 68.6974 80.3086H60.3401L58.786 79.0999Z" fill="white"/>
<path d="M58.786 79.0999H57.9227V79.5221L58.256 79.7814L58.786 79.0999ZM58.786 77.684V76.8206H57.9227V77.684H58.786ZM61.3416 69.1195H60.4782V69.9828H61.3416V69.1195ZM61.3416 66.4948V65.6315H60.4782V66.4948H61.3416ZM59.1314 59.1045H58.268V59.9679H59.1314V59.1045ZM59.1314 57.6886L58.6013 57.0071L58.268 57.2663V57.6886H59.1314ZM60.6854 56.4799V55.6165H60.3892L60.1554 55.7984L60.6854 56.4799ZM73.1178 66.5294L73.7283 67.1399L73.7283 67.1399L73.1178 66.5294ZM71.9091 67.7381L71.2986 67.1276L70.6881 67.7381L71.2986 68.3486L71.9091 67.7381ZM73.1178 68.9468L73.7283 68.3363L73.7283 68.3363L73.1178 68.9468ZM60.3401 80.3086L59.81 80.9901L60.0438 81.172H60.3401V80.3086ZM59.6494 79.0999V77.684H57.9227V79.0999H59.6494ZM58.786 78.5473H68.7319V76.8206H58.786V78.5473ZM68.7319 78.5473C69.6478 78.5473 70.4932 78.3178 71.1036 77.7074C71.7141 77.097 71.9436 76.2515 71.9436 75.3356H70.2169C70.2169 75.9853 70.055 76.314 69.8827 76.4864C69.7103 76.6588 69.3816 76.8206 68.7319 76.8206V78.5473ZM71.9436 75.3356V71.4678H70.2169V75.3356H71.9436ZM71.9436 71.4678C71.9436 70.5519 71.7141 69.7065 71.1036 69.0961C70.4932 68.4856 69.6478 68.2561 68.7319 68.2561V69.9828C69.3816 69.9828 69.7103 70.1447 69.8827 70.317C70.055 70.4894 70.2169 70.8181 70.2169 71.4678H71.9436ZM68.7319 68.2561H61.3416V69.9828H68.7319V68.2561ZM62.2049 69.1195V66.4948H60.4782V69.1195H62.2049ZM61.3416 67.3582H68.7319V65.6315H61.3416V67.3582ZM68.7319 67.3582C69.6478 67.3582 70.4932 67.1287 71.1036 66.5182C71.7141 65.9078 71.9436 65.0624 71.9436 64.1465H70.2169C70.2169 64.7962 70.055 65.1249 69.8827 65.2973C69.7103 65.4696 69.3816 65.6315 68.7319 65.6315V67.3582ZM71.9436 64.1465V61.4528H70.2169V64.1465H71.9436ZM71.9436 61.4528C71.9436 60.537 71.7141 59.6915 71.1036 59.0811C70.4932 58.4707 69.6478 58.2411 68.7319 58.2411V59.9679C69.3816 59.9679 69.7103 60.1297 69.8827 60.3021C70.055 60.4744 70.2169 60.8031 70.2169 61.4528H71.9436ZM68.7319 58.2411H59.1314V59.9679H68.7319V58.2411ZM59.9947 59.1045V57.6886H58.268V59.1045H59.9947ZM59.6614 58.3701L61.2155 57.1614L60.1554 55.7984L58.6013 57.0071L59.6614 58.3701ZM60.6854 57.3432H68.6974V55.6165H60.6854V57.3432ZM68.6974 57.3432C70.3255 57.3432 71.3881 57.7497 72.0497 58.4113C72.7113 59.0729 73.1178 60.1355 73.1178 61.7636H74.8445C74.8445 59.8693 74.3703 58.29 73.2707 57.1903C72.171 56.0907 70.5917 55.6165 68.6974 55.6165V57.3432ZM73.1178 61.7636V64.2846H74.8445V61.7636H73.1178ZM73.1178 64.2846C73.1178 65.0094 72.8992 65.527 72.5073 65.9189L73.7283 67.1399C74.4875 66.3806 74.8445 65.4018 74.8445 64.2846H73.1178ZM72.5073 65.9189L71.2986 67.1276L72.5196 68.3486L73.7283 67.1399L72.5073 65.9189ZM71.2986 68.3486L72.5073 69.5573L73.7283 68.3363L72.5196 67.1276L71.2986 68.3486ZM72.5073 69.5573C72.8992 69.9491 73.1178 70.4668 73.1178 71.1915H74.8445C74.8445 70.0744 74.4875 69.0956 73.7283 68.3363L72.5073 69.5573ZM73.1178 71.1915V75.0248H74.8445V71.1915H73.1178ZM73.1178 75.0248C73.1178 76.653 72.7113 77.7156 72.0497 78.3772C71.3881 79.0388 70.3255 79.4452 68.6974 79.4452V81.172C70.5917 81.172 72.171 80.6978 73.2707 79.5981C74.3703 78.4985 74.8445 76.9192 74.8445 75.0248H73.1178ZM68.6974 79.4452H60.3401V81.172H68.6974V79.4452ZM60.8701 79.6271L59.3161 78.4184L58.256 79.7814L59.81 80.9901L60.8701 79.6271Z" fill="white"/>
</svg>
