<svg width="125" height="123" viewBox="0 0 125 123" fill="none" xmlns="http://www.w3.org/2000/svg">
<ellipse cx="62.5" cy="61.5" rx="62.5" ry="61.5" fill="#E8F4F9"/>
<path d="M38.9883 45.1938C44.2888 38.6796 52.4116 34.5234 61.5326 34.5234" stroke="#264164" stroke-width="2.98882" stroke-linecap="round" stroke-linejoin="round"/>
<path d="M55.5092 90.8257C45.631 88.7561 37.6114 81.7161 34.29 72.4707" stroke="#264164" stroke-width="2.98882" stroke-linecap="round" stroke-linejoin="round"/>
<path d="M87.7934 51.1309C89.4799 54.7442 90.4092 58.7477 90.4092 62.9887C90.4092 69.7233 88.0343 75.8982 84.0762 80.7838" stroke="#264164" stroke-width="2.98882" stroke-linecap="round" stroke-linejoin="round"/>
<path d="M44.4106 40.0715C42.6208 29.2824 52.912 22.2933 62.1879 24.3629C71.9284 26.5343 80.2233 34.5412 86.6768 41.5982C84.9215 40.784 81.6345 41.5474 80.6708 41.734C73.6321 43.142 70.3967 50.0124 63.6851 51.7088C56.7325 53.456 46.992 48.5704 44.4278 40.0715" stroke="#264164" stroke-width="3" stroke-linecap="round" stroke-linejoin="round"/>
<path d="M90.4105 62.6499C100.254 67.7052 99.979 80.1567 92.7166 86.1789C85.0756 92.5064 73.597 94.2028 63.9941 95.0001C65.7151 94.118 67.0746 91.0815 67.5221 90.1993C70.637 83.8209 67.0402 77.1201 69.7249 70.8435C72.5128 64.3293 82.4942 60.258 90.4277 62.6669" stroke="#264164" stroke-width="3" stroke-linecap="round" stroke-linejoin="round"/>
<path d="M47.0775 87.6385C36.1324 92.1849 27.0458 88.6055 24.9118 79.4619C22.6746 69.8773 26.3918 59.0373 30.0402 50.25C30.0402 52.1669 32.1742 54.7454 32.7765 55.5258C37.1133 61.1748 44.8059 61.073 49.2631 66.2809C53.8752 71.6924 53.5655 82.9226 47.0775 87.6216" stroke="#264164" stroke-width="3" stroke-linecap="round" stroke-linejoin="round"/>
</svg>
