<svg width="134" height="132" viewBox="0 0 134 132" fill="none" xmlns="http://www.w3.org/2000/svg">
<ellipse cx="66.8211" cy="66.0002" rx="66.3211" ry="65.26" fill="#1F4975"/>
<path d="M72.0381 74.861C81.5958 71.65 86.7408 61.299 83.5299 51.7413C80.3189 42.1836 69.9679 37.0386 60.4102 40.2495C50.8525 43.4605 45.7075 53.8115 48.9184 63.3692C52.1294 72.9269 62.4804 78.0719 72.0381 74.861Z" stroke="white" stroke-width="2.76514" stroke-miterlimit="10" stroke-linecap="round"/>
<path d="M72.959 87.2339L82.417 103.401C83.1712 104.673 85.0093 104.673 85.7478 103.401L89.2985 97.2889C89.6441 96.7076 90.2568 96.3305 90.9481 96.3305L98.0181 96.2363C99.4949 96.2206 100.406 94.6023 99.652 93.3297L90.194 77.1631" stroke="white" stroke-width="2.76514" stroke-miterlimit="10"/>
<path d="M96.4949 53.5661C99.0087 73.5505 82.2136 90.3456 62.2292 87.8318C48.6234 86.1193 37.6257 75.1216 35.9132 61.5158C33.3994 41.5314 50.1945 24.7363 70.1789 27.2501C83.7847 28.9626 94.7824 39.9603 96.4949 53.5661Z" stroke="white" stroke-width="2.76514" stroke-miterlimit="10" stroke-linecap="round"/>
<path d="M43.4063 77.4629L33.7754 93.5196C33.0213 94.7922 33.9011 96.4104 35.378 96.4418L42.4479 96.6146C43.1235 96.6303 43.7519 97.0074 44.0819 97.5887L47.554 103.732C48.2767 105.02 50.1306 105.036 50.8848 103.779L60.5156 87.7222" stroke="white" stroke-width="2.76514" stroke-miterlimit="10"/>
</svg>
