<svg width="133" height="132" viewBox="0 0 133 132" fill="none" xmlns="http://www.w3.org/2000/svg">
<ellipse cx="66.4637" cy="66.0002" rx="66.3211" ry="65.26" fill="#1F4975"/>
<path d="M52.1377 42.3856V39.5739C52.1377 34.4525 56.2884 30.3018 61.4098 30.3018H73.4602V36.3437C73.4602 36.3437 68.0375 42.3856 68.0543 42.3856H52.1377Z" stroke="white" stroke-width="2.86197" stroke-linecap="round" stroke-linejoin="round"/>
<path d="M63.6022 42.3848H55.9033V50.5857H63.6022V42.3848Z" stroke="white" stroke-width="2.86197" stroke-linecap="round" stroke-linejoin="round"/>
<path d="M49.8121 65.516C51.9377 62.6373 53.0758 59.1394 53.0758 55.5577V50.5869H67.0844V62.0181C67.0844 64.947 68.5739 67.6918 71.0342 69.2818C73.4945 70.8718 74.9841 73.6166 74.9841 76.5455V107.224L45.1426 107.257V79.7589C45.1426 74.6375 46.7828 69.6333 49.8121 65.516Z" stroke="white" stroke-width="2.86197" stroke-linecap="round" stroke-linejoin="round"/>
<path d="M79.5029 30.3018H73.4609V36.3437H79.5029V30.3018Z" stroke="white" stroke-width="2.86197" stroke-linecap="round" stroke-linejoin="round"/>
<path d="M73.6952 37.9004L81.3272 49.8169H76.8919L68.624 42.4026" stroke="white" stroke-width="2.22598" stroke-linejoin="round"/>
<path d="M86.917 33.3312C86.917 34.1346 87.5697 34.8041 88.3898 34.8041C89.2099 34.8041 89.8626 34.1513 89.8626 33.3312C89.8626 32.5111 89.2099 31.8584 88.3898 31.8584C87.5697 31.8584 86.917 32.5111 86.917 33.3312Z" fill="white" stroke="white" stroke-width="1.47283" stroke-miterlimit="10"/>
<path d="M97.1603 34.8041C97.9738 34.8041 98.6332 34.1446 98.6332 33.3312C98.6332 32.5178 97.9738 31.8584 97.1603 31.8584C96.3469 31.8584 95.6875 32.5178 95.6875 33.3312C95.6875 34.1446 96.3469 34.8041 97.1603 34.8041Z" fill="white" stroke="white" stroke-width="1.47283" stroke-miterlimit="10"/>
<path d="M97.1603 28.9457C97.9738 28.9457 98.6332 28.2862 98.6332 27.4728C98.6332 26.6594 97.9738 26 97.1603 26C96.3469 26 95.6875 26.6594 95.6875 27.4728C95.6875 28.2862 96.3469 28.9457 97.1603 28.9457Z" fill="white" stroke="white" stroke-width="1.47283" stroke-miterlimit="10"/>
<path d="M97.1603 40.6615C97.9738 40.6615 98.6332 40.0021 98.6332 39.1886C98.6332 38.3752 97.9738 37.7158 97.1603 37.7158C96.3469 37.7158 95.6875 38.3752 95.6875 39.1886C95.6875 40.0021 96.3469 40.6615 97.1603 40.6615Z" fill="white" stroke="white" stroke-width="1.47283" stroke-miterlimit="10"/>
<path d="M92.7765 31.8744C93.59 31.8744 94.2494 31.215 94.2494 30.4015C94.2494 29.5881 93.59 28.9287 92.7765 28.9287C91.9631 28.9287 91.3037 29.5881 91.3037 30.4015C91.3037 31.215 91.9631 31.8744 92.7765 31.8744Z" fill="white" stroke="white" stroke-width="1.47283" stroke-miterlimit="10"/>
<path d="M92.7765 37.7328C93.59 37.7328 94.2494 37.0734 94.2494 36.2599C94.2494 35.4465 93.59 34.7871 92.7765 34.7871C91.9631 34.7871 91.3037 35.4465 91.3037 36.2599C91.3037 37.0734 91.9631 37.7328 92.7765 37.7328Z" fill="white" stroke="white" stroke-width="1.47283" stroke-miterlimit="10"/>
</svg>
