<svg width="81" height="81" viewBox="0 0 81 81" fill="none" xmlns="http://www.w3.org/2000/svg">
<path d="M50.502 18.6123H30.4479C23.9211 18.6123 18.6113 23.9221 18.6113 30.4489V50.5033C18.6113 57.0297 23.9211 62.3395 30.4479 62.3395H50.5024C57.0288 62.3395 62.3386 57.0297 62.3386 50.5033V30.4489C62.3386 23.9221 57.0288 18.6123 50.502 18.6123ZM59.7751 50.5033C59.7751 55.6162 55.6153 59.776 50.502 59.776H30.4479C25.3346 59.776 21.1749 55.6162 21.1749 50.5033V30.4489C21.1749 25.3356 25.3346 21.1758 30.4479 21.1758H50.5024C55.6153 21.1758 59.7751 25.3356 59.7751 30.4489V50.5033Z" fill="#264164"/>
<path d="M40.4758 28.5195C33.883 28.5195 28.5195 33.883 28.5195 40.4758C28.5195 47.0686 33.883 52.4321 40.4758 52.4321C47.0686 52.4321 52.4321 47.0686 52.4321 40.4758C52.4321 33.883 47.0686 28.5195 40.4758 28.5195ZM40.4758 49.8686C35.2968 49.8686 31.083 45.6551 31.083 40.4758C31.083 35.2968 35.2968 31.083 40.4758 31.083C45.6551 31.083 49.8686 35.2968 49.8686 40.4758C49.8686 45.6551 45.6551 49.8686 40.4758 49.8686Z" fill="#264164"/>
<path d="M52.7165 24.2734C50.7682 24.2734 49.1836 25.8584 49.1836 27.8063C49.1836 29.7546 50.7682 31.3396 52.7165 31.3396C54.6648 31.3396 56.2498 29.7546 56.2498 27.8063C56.2498 25.858 54.6648 24.2734 52.7165 24.2734ZM52.7165 28.7758C52.1821 28.7758 51.747 28.3408 51.747 27.8063C51.747 27.2716 52.1821 26.8369 52.7165 26.8369C53.2513 26.8369 53.6863 27.2716 53.6863 27.8063C53.6863 28.3408 53.2513 28.7758 52.7165 28.7758Z" fill="#264164"/>
<path d="M40.4756 80.9511C18.1572 80.9511 0 62.794 0 40.4756C0 18.1572 18.1572 0 40.4756 0C62.794 0 80.9511 18.1572 80.9511 40.4756C80.9511 62.794 62.794 80.9511 40.4756 80.9511ZM40.4756 2.5037C19.5378 2.5037 2.50366 19.5378 2.50366 40.4756C2.50366 61.4134 19.5378 78.4475 40.4756 78.4475C61.4129 78.4475 78.4475 61.4134 78.4475 40.4756C78.4475 19.5378 61.4129 2.5037 40.4756 2.5037Z" fill="#264164"/>
</svg>
