<svg width="81" height="81" viewBox="0 0 81 81" fill="none" xmlns="http://www.w3.org/2000/svg">
<path d="M41.5909 61.9477H34.7137C33.5649 61.9477 32.6306 61.0132 32.6306 59.8645V44.3526H28.6183C27.4696 44.3526 26.5352 43.4178 26.5352 42.2694V35.6226C26.5352 34.4739 27.4696 33.5394 28.6183 33.5394H32.6306V30.2109C32.6306 26.9106 33.6669 24.1027 35.6272 22.0913C37.5964 20.0707 40.3482 19.0029 43.5853 19.0029L48.8302 19.0114C49.977 19.0134 50.9098 19.9478 50.9098 21.0946V27.266C50.9098 28.4148 49.9757 29.3492 48.8273 29.3492L45.296 29.3505C44.219 29.3505 43.9447 29.5664 43.886 29.6326C43.7894 29.7424 43.6745 30.0526 43.6745 30.9094V33.5391H48.5619C48.9298 33.5391 49.2863 33.6298 49.5927 33.8009C50.2535 34.1701 50.6644 34.8683 50.6644 35.6229L50.6617 42.2698C50.6617 43.4178 49.7273 44.3523 48.5786 44.3523H43.6745V59.8645C43.6745 61.0132 42.7396 61.9477 41.5909 61.9477ZM35.1482 59.43H41.1565V43.2255C41.1565 42.4585 41.7807 41.8347 42.5474 41.8347H48.1442L48.1464 36.057H42.547C41.7804 36.057 41.1565 35.4332 41.1565 34.6662V30.9094C41.1565 29.9259 41.2565 28.8073 41.9989 27.9665C42.896 26.9502 44.3098 26.8329 45.2953 26.8329L48.3922 26.8316V21.5284L43.5834 21.5205C38.3811 21.5205 35.1482 24.8507 35.1482 30.2109V34.6662C35.1482 35.4329 34.5244 36.057 33.7577 36.057H29.0528V41.8347H33.7577C34.5244 41.8347 35.1482 42.4585 35.1482 43.2255V59.43Z" fill="#264164"/>
<path d="M40.4755 80.9511C18.1571 80.9511 0 62.794 0 40.4756C0 18.1572 18.1571 0 40.4755 0C62.7939 0 80.9511 18.1572 80.9511 40.4756C80.9511 62.794 62.7939 80.9511 40.4755 80.9511ZM40.4755 2.50369C19.5377 2.50369 2.5036 19.5378 2.5036 40.4756C2.5036 61.4134 19.5377 78.4475 40.4755 78.4475C61.4133 78.4475 78.4474 61.4134 78.4474 40.4756C78.4474 19.5378 61.4133 2.50369 40.4755 2.50369Z" fill="#264164"/>
</svg>
