<svg width="81" height="81" viewBox="0 0 81 81" fill="none" xmlns="http://www.w3.org/2000/svg">
<path d="M30.5751 28.4443H23.3173C22.5037 28.4443 21.8418 29.1062 21.8418 29.9198V57.2726C21.8418 58.0859 22.5037 58.7478 23.3173 58.7478H30.5751C31.3884 58.7478 32.0504 58.0859 32.0504 57.2726V29.9198C32.0504 29.1062 31.3884 28.4443 30.5751 28.4443ZM29.524 56.2215H24.368V30.9706H29.524V56.2215Z" fill="#264164"/>
<path d="M26.9453 15.6943C24.1073 15.6943 21.7988 18.0029 21.7988 20.8405C21.7988 23.6785 24.1073 25.9869 26.9453 25.9869C29.7827 25.9869 32.0914 23.6785 32.0914 20.8405C32.0914 18.0029 29.783 15.6943 26.9453 15.6943ZM26.9453 23.4608C25.5004 23.4608 24.3251 22.2855 24.3251 20.8405C24.3251 19.3959 25.5004 18.2206 26.9453 18.2206C28.39 18.2206 29.5651 19.3959 29.5651 20.8405C29.5651 22.2852 28.39 23.4608 26.9453 23.4608Z" fill="#264164"/>
<path d="M55.5228 31.6509C53.7878 30.2027 51.5822 29.4281 49.3144 29.4702C47.9059 29.4961 46.5296 29.8358 45.2824 30.4506V29.8535C45.2824 29.0753 44.6514 28.4443 43.8733 28.4443H36.4833C35.7052 28.4443 35.0742 29.0753 35.0742 29.8535V57.3383C35.0742 58.1168 35.7052 58.7475 36.4833 58.7475H44.0191C44.7168 58.7475 45.2824 58.1818 45.2824 57.4845V41.0974C45.2824 39.6945 46.3802 38.5074 47.7821 38.4657C49.2392 38.4226 50.4381 39.595 50.4381 41.0425V57.5108C50.4381 58.1936 50.9919 58.7475 51.6748 58.7475H58.9172C59.6001 58.7475 60.1539 58.1936 60.1539 57.5108V41.5434C60.1539 37.7135 58.4659 34.1075 55.5228 31.6509ZM57.6277 56.2212H52.9647V41.0425C52.9647 38.2282 50.6749 35.9384 47.8603 35.9384C45.0459 35.9384 42.7561 38.2282 42.7561 41.0425V56.2212H37.6005V30.9703H42.7561V32.8061H42.7578C42.7575 33.1037 42.8609 33.4026 43.0738 33.6434C43.5359 34.1657 44.3344 34.2143 44.8567 33.7518C46.1013 32.6501 47.7009 32.0267 49.361 31.9958C51.0228 31.9642 52.6356 32.5312 53.9041 33.5902C56.2708 35.5656 57.6277 38.4644 57.6277 41.5434V56.2212Z" fill="#264164"/>
<path d="M40.4755 80.9511C18.1571 80.9511 0 62.7939 0 40.4755C0 18.1571 18.1571 0 40.4755 0C62.7939 0 80.951 18.1571 80.951 40.4755C80.951 62.7939 62.7939 80.9511 40.4755 80.9511ZM40.4755 2.5036C19.5377 2.5036 2.50354 19.5382 2.50354 40.4755C2.50354 61.4129 19.5377 78.4474 40.4755 78.4474C61.4128 78.4474 78.4474 61.4129 78.4474 40.4755C78.4474 19.5382 61.4128 2.5036 40.4755 2.5036Z" fill="#264164"/>
</svg>
