<svg width="81" height="81" viewBox="0 0 81 81" fill="none" xmlns="http://www.w3.org/2000/svg">
<path d="M40.4755 80.9511C62.8296 80.9511 80.951 62.8296 80.951 40.4755C80.951 18.1215 62.8296 0 40.4755 0C18.1215 0 0 18.1215 0 40.4755C0 62.8296 18.1215 80.9511 40.4755 80.9511Z" fill="#264164"/>
<path d="M50.5019 18.6123H30.4479C23.9211 18.6123 18.6113 23.9221 18.6113 30.4489V50.5033C18.6113 57.0297 23.9211 62.3395 30.4479 62.3395H50.5023C57.0287 62.3395 62.3385 57.0297 62.3385 50.5033V30.4489C62.3385 23.9221 57.0287 18.6123 50.5019 18.6123ZM59.775 50.5033C59.775 55.6162 55.6152 59.776 50.5019 59.776H30.4479C25.3346 59.776 21.1748 55.6162 21.1748 50.5033V30.4489C21.1748 25.3356 25.3346 21.1758 30.4479 21.1758H50.5023C55.6152 21.1758 59.775 25.3356 59.775 30.4489V50.5033Z" fill="white"/>
<path d="M40.4758 28.5195C33.883 28.5195 28.5195 33.883 28.5195 40.4758C28.5195 47.0686 33.883 52.4321 40.4758 52.4321C47.0686 52.4321 52.4321 47.0686 52.4321 40.4758C52.4321 33.883 47.0686 28.5195 40.4758 28.5195ZM40.4758 49.8686C35.2968 49.8686 31.083 45.6551 31.083 40.4758C31.083 35.2968 35.2968 31.083 40.4758 31.083C45.6551 31.083 49.8687 35.2968 49.8687 40.4758C49.8687 45.6551 45.6551 49.8686 40.4758 49.8686Z" fill="white"/>
<path d="M52.7184 24.2734C50.7701 24.2734 49.1855 25.8584 49.1855 27.8063C49.1855 29.7546 50.7701 31.3396 52.7184 31.3396C54.6667 31.3396 56.2518 29.7546 56.2518 27.8063C56.2518 25.858 54.6667 24.2734 52.7184 24.2734ZM52.7184 28.7758C52.184 28.7758 51.749 28.3408 51.749 27.8063C51.749 27.2716 52.184 26.8369 52.7184 26.8369C53.2532 26.8369 53.6882 27.2716 53.6882 27.8063C53.6882 28.3408 53.2532 28.7758 52.7184 28.7758Z" fill="white"/>
</svg>
