<svg width="81" height="81" viewBox="0 0 81 81" fill="none" xmlns="http://www.w3.org/2000/svg">
<path d="M40.4755 80.9511C62.8296 80.9511 80.951 62.8296 80.951 40.4755C80.951 18.1215 62.8296 0 40.4755 0C18.1215 0 0 18.1215 0 40.4755C0 62.8296 18.1215 80.9511 40.4755 80.9511Z" fill="#264164"/>
<path d="M30.0732 29.3096H22.8154C22.0018 29.3096 21.3398 29.9715 21.3398 30.7851V58.1379C21.3398 58.9512 22.0018 59.6131 22.8154 59.6131H30.0732C30.8865 59.6131 31.5485 58.9512 31.5485 58.1379V30.7851C31.5485 29.9715 30.8865 29.3096 30.0732 29.3096ZM29.0222 57.0868H23.8661V31.8359H29.0222V57.0868Z" fill="white"/>
<path d="M26.4453 16.5596C23.6073 16.5596 21.2988 18.8681 21.2988 21.7057C21.2988 24.5437 23.6073 26.8522 26.4453 26.8522C29.2827 26.8522 31.5914 24.5437 31.5914 21.7057C31.5914 18.8681 29.283 16.5596 26.4453 16.5596ZM26.4453 24.326C25.0004 24.326 23.825 23.1507 23.825 21.7057C23.825 20.2611 25.0004 19.0859 26.4453 19.0859C27.89 19.0859 29.0651 20.2611 29.0651 21.7057C29.0651 23.1504 27.89 24.326 26.4453 24.326Z" fill="white"/>
<path d="M55.0228 32.5162C53.2878 31.068 51.0822 30.2934 48.8145 30.3355C47.4059 30.3614 46.0297 30.7011 44.7825 31.3159V30.7188C44.7825 29.9406 44.1515 29.3096 43.3734 29.3096H35.9833C35.2052 29.3096 34.5742 29.9406 34.5742 30.7188V58.2036C34.5742 58.9821 35.2052 59.6128 35.9833 59.6128H43.5192C44.2169 59.6128 44.7825 59.0471 44.7825 58.3498V41.9627C44.7825 40.5598 45.8803 39.3727 47.2822 39.331C48.7393 39.2879 49.9381 40.4603 49.9381 41.9078V58.3761C49.9381 59.0589 50.492 59.6128 51.1749 59.6128H58.4172C59.1001 59.6128 59.6539 59.0589 59.6539 58.3761V42.4087C59.6539 38.5788 57.9659 34.9728 55.0228 32.5162ZM57.1277 57.0865H52.4647V41.9078C52.4647 39.0935 50.175 36.8037 47.3604 36.8037C44.546 36.8037 42.2562 39.0935 42.2562 41.9078V57.0865H37.1005V31.8356H42.2562V33.6714H42.2578C42.2575 33.969 42.361 34.2679 42.5739 34.5087C43.036 35.031 43.8345 35.0796 44.3568 34.6171C45.6014 33.5154 47.2009 32.892 48.861 32.8611C50.5228 32.8295 52.1356 33.3965 53.4041 34.4555C55.7708 36.4309 57.1277 39.3297 57.1277 42.4087V57.0865Z" fill="white"/>
</svg>
