<svg width="73" height="66" viewBox="0 0 73 66" fill="none" xmlns="http://www.w3.org/2000/svg">
<path d="M37.2005 58.5332C33.0911 57.7257 30.4077 53.7156 31.2216 49.5733L34.2651 34.3167C35.8908 26.0431 43.8845 20.6369 52.1144 22.2541C60.3442 23.8712 65.7001 31.8892 64.0722 40.1738L63.045 45.401L61.1638 55.2065C61.1379 55.338 61.226 55.4691 61.3575 55.495L64.1848 56.0505C65.6861 56.3455 67.1546 55.3594 67.4518 53.8471L68.789 47.0419C69.0862 45.5296 68.1109 44.0632 66.5987 43.7661L63.5303 43.1631" stroke="#264164" stroke-width="2.23361" stroke-miterlimit="10" stroke-linecap="round"/>
<path d="M31.221 49.5842L28.1527 48.9813C26.6513 48.6863 25.6652 47.2178 25.9623 45.7055L27.2996 38.9003C27.5967 37.388 29.0543 36.3997 30.5666 36.6968L33.6349 37.2998" stroke="#264164" stroke-width="2.23361" stroke-miterlimit="10" stroke-linecap="round"/>
<path d="M38.7211 60.8238L40.9128 61.2544C41.9598 61.4602 42.9754 60.7782 43.1811 59.7311L43.1854 59.7092C43.3912 58.6622 42.7092 57.6466 41.6621 57.4409L39.4704 57.0102C38.4234 56.8045 37.4078 57.4865 37.2021 58.5335L37.1978 58.5554C36.992 59.6024 37.674 60.618 38.7211 60.8238Z" stroke="#264164" stroke-width="2.23361" stroke-miterlimit="10" stroke-linecap="round"/>
<path d="M21.361 23.4865H15.24C13.7401 23.4865 12.5273 22.2674 12.5273 20.761V11.9657C12.5273 10.4593 13.7401 9.24023 15.24 9.24023H25.7715C27.2714 9.24023 28.4842 10.4593 28.4842 11.9657V20.761C28.4842 22.2674 27.2714 23.4865 25.7715 23.4865H24.9417V26.5949H24.629L21.3547 23.4865H21.361Z" stroke="#264164" stroke-width="1.71777" stroke-linecap="round" stroke-linejoin="round"/>
<path d="M12.3676 15.2462H8.1295L4.85517 18.3546H4.54241V15.2462H3.71266C2.21272 15.2462 1 14.0271 1 12.5208V3.72542C1 2.2191 2.21272 1 3.71266 1H14.2442C15.7441 1 16.9568 2.2191 16.9568 3.72542V9.09967" stroke="#264164" stroke-width="1.71777" stroke-linecap="round" stroke-linejoin="round"/>
<path d="M17.2881 18.3354H23.7219" stroke="#264164" stroke-width="1.71777" stroke-miterlimit="10" stroke-linecap="round"/>
<path d="M17.2881 14.7354H23.7219" stroke="#264164" stroke-width="1.71777" stroke-miterlimit="10" stroke-linecap="round"/>
<path d="M5.76855 9.92969H10.5428" stroke="#264164" stroke-width="1.71777" stroke-miterlimit="10" stroke-linecap="round"/>
<path d="M5.76855 6.32959H12.2023" stroke="#264164" stroke-width="1.71777" stroke-miterlimit="10" stroke-linecap="round"/>
</svg>
