<svg width="81" height="81" viewBox="0 0 81 81" fill="none" xmlns="http://www.w3.org/2000/svg">
<path d="M40.4756 80.9511C62.8296 80.9511 80.9511 62.8296 80.9511 40.4756C80.9511 18.1215 62.8296 0 40.4756 0C18.1216 0 0 18.1215 0 40.4756C0 62.8296 18.1216 80.9511 40.4756 80.9511Z" fill="#264164"/>
<path d="M43.3448 61.9399H36.4677C35.3189 61.9399 34.3845 61.0054 34.3845 59.8567V44.3448H30.3721C29.2234 44.3448 28.2891 43.41 28.2891 42.2616V35.6148C28.2891 34.4661 29.2234 33.5316 30.3721 33.5316H34.3845V30.2031C34.3845 26.9028 35.4207 24.0949 37.381 22.0835C39.3502 20.0629 42.1021 18.9951 45.3392 18.9951L50.584 19.0036C51.7308 19.0056 52.6636 19.94 52.6636 21.0868V27.2582C52.6636 28.407 51.7296 29.3414 50.5812 29.3414L47.0499 29.3427C45.9729 29.3427 45.6987 29.5586 45.64 29.6248C45.5434 29.7346 45.4283 30.0448 45.4283 30.9016V33.5313H50.3157C50.6836 33.5313 51.0402 33.622 51.3466 33.7931C52.0074 34.1623 52.4183 34.8605 52.4183 35.6151L52.4156 42.262C52.4156 43.41 51.4812 44.3445 50.3325 44.3445H45.4283V59.8567C45.4283 61.0054 44.4935 61.9399 43.3448 61.9399ZM36.902 59.4222H42.9103V43.2177C42.9103 42.4507 43.5346 41.8269 44.3013 41.8269H49.8981L49.9003 36.0492H44.3008C43.5342 36.0492 42.9103 35.4254 42.9103 34.6584V30.9016C42.9103 29.9181 43.0103 28.7995 43.7527 27.9587C44.6498 26.9424 46.0636 26.8251 47.0491 26.8251L50.1461 26.8238V21.5206L45.3373 21.5127C40.135 21.5127 36.902 24.8429 36.902 30.2031V34.6584C36.902 35.4251 36.2782 36.0492 35.5115 36.0492H30.8066V41.8269H35.5115C36.2782 41.8269 36.902 42.4507 36.902 43.2177V59.4222Z" fill="white"/>
</svg>
