<svg width="185" height="31" viewBox="0 0 185 31" fill="none" xmlns="http://www.w3.org/2000/svg">
<path d="M25.22 23.59V16.87C25.22 13.93 26.69 12.46 29.63 12.46H35.6L36.62 13.24V14.14H29.57C27.93 14.14 27.11 14.95 27.11 16.57V23.89C27.11 25.53 27.93 26.35 29.57 26.35H36.62V27.22L35.6 28H29.63C26.69 28 25.22 26.53 25.22 23.59ZM40.34 24.19V5.8H42.23V24.34C42.23 25.78 42.96 26.53 44.42 26.59V28.24C41.7 28.24 40.34 26.89 40.34 24.19ZM47.5735 23.59V16.87C47.5735 13.93 49.0435 12.46 51.9835 12.46H55.8835C58.8035 12.46 60.2635 13.93 60.2635 16.87V20.98H49.4635V23.89C49.4635 25.53 50.2835 26.35 51.9235 26.35H59.6635V27.22L58.6435 28H51.9835C49.0435 28 47.5735 26.53 47.5735 23.59ZM49.4635 19.39H58.3735V16.57C58.3735 14.95 57.5635 14.14 55.9435 14.14H51.9235C50.2835 14.14 49.4635 14.95 49.4635 16.57V19.39ZM68.5815 28C65.6215 28 64.1415 26.52 64.1415 23.56C64.1415 20.58 65.6215 19.09 68.5815 19.09H74.4615V16.57C74.4615 14.95 73.6515 14.14 72.0315 14.14H65.5815V13.24L66.6315 12.46H71.9715C74.8915 12.46 76.3515 13.93 76.3515 16.87V28H68.5815ZM66.0315 23.89C66.0315 25.53 66.8515 26.35 68.4915 26.35H74.4615V20.68H68.4915C66.8515 20.68 66.0315 21.49 66.0315 23.11V23.89ZM81.1827 28V12.46H89.4927C92.4127 12.46 93.8727 13.93 93.8727 16.87V28H91.9827V16.57C91.9827 14.95 91.1727 14.14 89.5527 14.14H83.0727V28H81.1827ZM97.8022 28V26.5L107.222 14.14H98.1022V12.46H109.592V13.96L100.172 26.35H109.892V28H97.8022ZM113.697 23.59V16.87C113.697 13.93 115.167 12.46 118.107 12.46H122.307C125.227 12.46 126.687 13.93 126.687 16.87V23.59C126.687 26.53 125.227 28 122.307 28H118.107C115.167 28 113.697 26.53 113.697 23.59ZM115.587 23.89C115.587 25.53 116.407 26.35 118.047 26.35H122.367C123.987 26.35 124.797 25.53 124.797 23.89V16.57C124.797 14.95 123.987 14.14 122.367 14.14H118.047C116.407 14.14 115.587 14.95 115.587 16.57V23.89ZM131.398 28V12.46H139.708C142.628 12.46 144.087 13.93 144.087 16.87V28H142.198V16.57C142.198 14.95 141.388 14.14 139.768 14.14H133.288V28H131.398ZM148.677 23.59V16.87C148.677 13.93 150.147 12.46 153.087 12.46H156.987C159.907 12.46 161.367 13.93 161.367 16.87V20.98H150.567V23.89C150.567 25.53 151.387 26.35 153.027 26.35H160.767V27.22L159.747 28H153.087C150.147 28 148.677 26.53 148.677 23.59ZM150.567 19.39H159.477V16.57C159.477 14.95 158.667 14.14 157.047 14.14H153.027C151.387 14.14 150.567 14.95 150.567 16.57V19.39Z" fill="#264164"/>
<path d="M8.23225 11.2246C10.1721 13.8138 12.3973 17.2643 13.1145 19.6063H16.4645C15.5 14.9767 10.1585 8.35013 9.4929 7.54049L8.22954 6L6.96617 7.54049C6.30868 8.35013 0.964505 14.9794 0 19.609H3.34996C4.06722 17.267 6.29509 13.8166 8.23225 11.2273V11.2246Z" fill="#264164"/>
<path d="M8.14803 25.2241C5.98808 25.2241 4.14058 23.6999 3.38528 21.5508H0C0.893865 25.5256 4.2085 28.4843 8.14803 28.4843C12.0876 28.4843 15.4049 25.5256 16.2961 21.5508H12.9108C12.1582 23.6999 10.308 25.2241 8.14803 25.2241Z" fill="#264164"/>
</svg>
