<svg width="350" height="250" viewBox="0 0 350 250" fill="none" xmlns="http://www.w3.org/2000/svg">
<rect width="350" height="250" rx="20" fill="#E8F4F9"/>
<path d="M175 143.813C176.009 143.813 176.826 144.631 176.826 145.638C176.826 146.646 176.009 147.464 175 147.464C173.991 147.464 173.174 146.646 173.174 145.638C173.174 144.631 173.993 143.813 175 143.813ZM175 158.121C175.891 158.121 176.614 157.398 176.614 156.506C176.614 155.615 175.891 154.892 175 154.892C174.108 154.892 173.386 155.615 173.386 156.506C173.386 157.398 174.108 158.121 175 158.121ZM178.168 136.37C178.168 134.621 176.749 133.202 175 133.202C173.25 133.202 171.832 134.621 171.832 136.37C171.832 138.12 173.25 139.538 175 139.538C176.749 139.538 178.168 138.12 178.168 136.37ZM175 165.666C173.65 165.666 172.556 166.76 172.556 168.11C172.556 169.46 173.65 170.554 175 170.554C176.35 170.554 177.444 169.46 177.444 168.11C177.444 166.76 176.35 165.666 175 165.666ZM168.254 134.202C167.246 134.202 166.429 135.02 166.429 136.028C166.429 137.035 167.247 137.853 168.254 137.853C169.262 137.853 170.08 137.035 170.08 136.028C170.08 135.02 169.263 134.202 168.254 134.202ZM165.311 148.498C166.319 148.498 167.136 147.68 167.136 146.673C167.136 145.665 166.319 144.847 165.311 144.847C164.302 144.847 163.485 145.665 163.485 146.673C163.485 147.68 164.303 148.498 165.311 148.498ZM161.843 147.353C161.843 145.823 160.602 144.582 159.072 144.582C157.541 144.582 156.3 145.823 156.3 147.353C156.3 148.884 157.541 150.124 159.072 150.124C160.602 150.124 161.843 148.884 161.843 147.353ZM169.58 139.197C167.972 139.197 166.669 140.501 166.669 142.108C166.669 143.716 167.972 145.02 169.58 145.02C171.188 145.02 172.492 143.716 172.492 142.108C172.492 140.501 171.188 139.197 169.58 139.197ZM169.362 157.16C166.953 157.16 165 159.113 165 161.522C165 163.931 166.953 165.884 169.362 165.884C171.772 165.884 173.725 163.931 173.725 161.522C173.725 159.113 171.772 157.16 169.362 157.16ZM166.03 154.361C166.03 152.563 164.567 151.101 162.769 151.101C160.97 151.101 159.508 152.563 159.508 154.361C159.508 156.16 160.97 157.622 162.769 157.622C164.567 157.622 166.03 156.16 166.03 154.361ZM165.495 139.538C165.495 137.521 163.86 135.886 161.843 135.886C159.825 135.886 158.19 137.521 158.19 139.538C158.19 141.556 159.825 143.191 161.843 143.191C163.86 143.191 165.495 141.556 165.495 139.538ZM170.542 154.968C172.56 154.968 174.195 153.333 174.195 151.316C174.195 149.298 172.56 147.664 170.542 147.664C168.525 147.664 166.89 149.298 166.89 151.316C166.89 153.333 168.525 154.968 170.542 154.968ZM181.748 137.855C182.757 137.855 183.574 137.036 183.574 136.029C183.574 135.022 182.756 134.203 181.748 134.203C180.741 134.203 179.923 135.022 179.923 136.029C179.923 137.036 180.739 137.855 181.748 137.855ZM182.866 146.673C182.866 147.682 183.683 148.498 184.692 148.498C185.701 148.498 186.517 147.68 186.517 146.673C186.517 145.665 185.699 144.847 184.692 144.847C183.684 144.847 182.866 145.665 182.866 146.673ZM190.932 144.582C189.402 144.582 188.161 145.823 188.161 147.353C188.161 148.884 189.402 150.124 190.932 150.124C192.463 150.124 193.703 148.884 193.703 147.353C193.703 145.823 192.463 144.582 190.932 144.582ZM180.424 145.02C182.032 145.02 183.335 143.716 183.335 142.108C183.335 140.501 182.032 139.197 180.424 139.197C178.816 139.197 177.512 140.501 177.512 142.108C177.512 143.716 178.816 145.02 180.424 145.02ZM180.641 157.16C178.232 157.16 176.279 159.113 176.279 161.522C176.279 163.931 178.232 165.884 180.641 165.884C183.051 165.884 185.004 163.931 185.004 161.522C185.004 159.113 183.051 157.16 180.641 157.16ZM187.235 151.102C185.436 151.102 183.974 152.564 183.974 154.363C183.974 156.161 185.436 157.623 187.235 157.623C189.033 157.623 190.496 156.161 190.496 154.363C190.496 152.564 189.033 151.102 187.235 151.102ZM188.16 143.192C190.177 143.192 191.812 141.557 191.812 139.54C191.812 137.522 190.177 135.887 188.16 135.887C186.142 135.887 184.508 137.522 184.508 139.54C184.508 141.557 186.142 143.192 188.16 143.192ZM179.46 154.97C181.478 154.97 183.112 153.335 183.112 151.317C183.112 149.3 181.478 147.665 179.46 147.665C177.443 147.665 175.808 149.3 175.808 151.317C175.808 153.335 177.443 154.97 179.46 154.97ZM142.96 97.013V111.585H138.886V108.462C138.886 108.28 138.796 108.145 138.615 108.145C138.479 108.145 138.388 108.235 138.298 108.372C136.578 110.861 133.592 112.219 130.604 112.219C126.123 112.219 123.046 109.865 123.046 105.838C123.046 101.811 125.897 99.4568 130.966 98.6877L138.886 97.5115V97.0142C138.886 93.1223 136.216 92.1264 133.41 92.1264C130.604 92.1264 128.115 93.3477 127.933 95.8831L127.888 96.4719H123.815L123.86 95.8831C124.222 90.6784 128.566 88.3711 133.545 88.3711C138.251 88.3711 142.959 90.2713 142.959 97.0155L142.96 97.013ZM138.886 100.725L131.058 101.946C128.523 102.353 127.12 103.711 127.12 105.611C127.12 107.511 128.75 108.597 131.103 108.597C135.311 108.597 138.344 105.882 138.886 100.723V100.725ZM162.193 95.7015L167.533 111.586H171.56L178.348 88.9585H174.275L169.432 105.387L163.955 88.9585H160.335L154.995 105.522L149.791 88.9585H145.672L152.959 111.586H157.032L162.192 95.7015H162.193ZM96.6626 83.12H92.589V87.057C92.589 88.46 91.6833 89.0938 90.1902 89.0938H87.7012V92.8054H92.589V104.436C92.589 109.234 94.6709 111.678 100.101 111.678H103.087V107.831H100.779C97.4755 107.831 96.66 106.609 96.66 103.215V92.8054H103.086V88.9585H96.66V83.12H96.6626ZM73.9435 93.3928C68.2866 92.4421 66.4765 90.8137 66.4765 87.781C66.4765 84.9751 68.8303 83.0749 73.7631 83.0749C77.972 83.0749 80.5512 84.7948 80.9132 88.505H85.1221C84.8953 82.079 79.6455 79.1817 73.7631 79.1817C66.5216 79.1817 62.0422 82.7116 62.0422 87.8712C62.0422 92.4872 64.9383 95.8818 71.9531 97.1031C77.4296 98.0088 81.1399 99.2301 81.1399 102.897C81.1399 106.563 78.1537 108.327 74.2153 108.327C69.4628 108.327 65.6173 106.789 65.1638 101.539H61C61.3169 109.006 66.8386 112.265 74.2153 112.265C79.5102 112.265 85.6193 109.641 85.6193 103.078C85.6193 96.8777 81.1837 94.6154 73.9435 93.3928ZM108.7 111.586H112.774V88.9585H108.7V111.586ZM117.615 88.5965C115.76 88.5965 114.402 90.0446 114.402 91.8095C114.402 93.5745 115.76 94.9324 117.615 94.9324C119.471 94.9324 120.828 93.5294 120.828 91.8095C120.828 90.0896 119.471 88.5965 117.615 88.5965ZM261.938 88.5965C260.083 88.5965 258.725 90.0446 258.725 91.8095C258.725 93.5745 260.083 94.9324 261.938 94.9324C263.793 94.9324 265.151 93.5294 265.151 91.8095C265.151 90.0896 263.793 88.5965 261.938 88.5965ZM206.182 100.182C206.182 107.197 200.932 112.22 194.234 112.22C191.021 112.22 188.396 110.907 186.767 109.007C186.677 108.872 186.541 108.825 186.45 108.825C186.269 108.825 186.133 109.007 186.133 109.278V111.586H182.06V79H186.133V91.3097C186.133 91.5815 186.269 91.7619 186.45 91.7619C186.586 91.7619 186.677 91.7168 186.767 91.5815C188.442 89.5447 190.976 88.2319 194.234 88.2319C201.384 88.2319 206.182 93.2099 206.182 100.18V100.182ZM201.928 100.182C201.928 95.0676 198.488 92.0814 194.099 92.0814C189.031 92.0814 186.133 95.5211 186.133 100.182C186.133 104.843 189.03 108.373 194.099 108.373C198.489 108.373 201.928 105.25 201.928 100.182ZM284.656 88.9585L278.185 105.974L271.622 88.9585H267.278L276.148 111.089L275.786 111.948C275.289 113.216 274.021 113.758 272.029 113.758H269.314V117.65H272.029C276.103 117.65 278.048 116.428 279.406 112.989L289 88.9585H284.656ZM253.022 111.586H257.095V88.9585H253.022V111.586ZM232.385 100.453C232.385 100.86 232.385 101.222 232.339 101.629H213.784C214.236 105.838 216.862 108.372 221.478 108.372C224.781 108.372 226.954 106.742 228.176 104.842L231.027 107.104C229.442 109.728 226.094 112.219 221.478 112.219C213.377 112.219 209.485 106.969 209.485 100.226C209.485 93.483 214.056 88.2783 221.206 88.2783C228.356 88.2783 232.385 93.845 232.385 100.453ZM228.086 98.0088C227.859 94.4789 225.461 92.1252 221.206 92.1252C217.269 92.1252 214.643 94.3874 213.919 98.0088H228.084H228.086ZM236.73 111.586H240.804V88.9585H236.73V111.586ZM245.645 88.5965C243.79 88.5965 242.432 90.0446 242.432 91.8095C242.432 93.5745 243.79 94.9324 245.645 94.9324C247.5 94.9324 248.858 93.5294 248.858 91.8095C248.858 90.0896 247.5 88.5965 245.645 88.5965Z" fill="#264164"/>
</svg>
