<svg width="350" height="250" viewBox="0 0 350 250" fill="none" xmlns="http://www.w3.org/2000/svg">
<rect width="350" height="250" rx="20" fill="#264164"/>
<path d="M278.981 161.105H277.521V160.384H281.198V161.105H279.738V165.837H278.981V161.105ZM282.254 160.384H283.08L284.664 163.198L286.247 160.384H287.057V165.837H286.318V161.668L284.699 164.571H284.611L282.992 161.668V165.837H282.253L282.254 160.384Z" fill="#E8F4F9"/>
<path d="M275 82H63V152H275V82Z" fill="#E8F4F9"/>
<path d="M275 155H63V167H275V155Z" fill="#E8F4F9"/>
<path d="M108.249 107.39H114.844V133.013H108.249V107.39ZM126.337 120.554C128.944 120.554 130.806 119.27 130.806 116.608C130.806 114.001 129.055 112.828 126.378 112.828H124.488V120.554H126.337ZM172.006 127.175H180.878V133.013H165.315V107.39H172.006V127.175ZM183.017 107.39H199.863V113.214H189.612V117.463H199.408V122.844H189.612V127.175H199.891V133.013H183.017V107.39ZM240.083 119.711L249.176 107.39H239.835L231.418 119.187V107.39H223.249V133.013H231.418V121.216L245.947 139.953C242.179 142.262 237.838 143.466 233.419 143.43C230.35 143.492 227.301 142.933 224.454 141.787C221.608 140.641 219.022 138.932 216.852 136.762C214.682 134.592 212.972 132.006 211.826 129.159C210.68 126.312 210.121 123.263 210.183 120.195C210.197 114.042 212.652 108.146 217.007 103.8C221.363 99.4544 227.265 97.0139 233.418 97.0139C239.571 97.0139 245.472 99.4544 249.828 103.8C254.184 108.146 256.638 114.042 256.653 120.195C256.696 125.387 255.018 130.448 251.879 134.585L240.083 119.711ZM137.347 115.862C137.4 117.429 136.974 118.975 136.126 120.294C135.278 121.613 134.048 122.642 132.601 123.244L139.128 133.013H131.345L124.488 122.278V133.013H117.893V107.39H126.13C133.332 107.39 137.347 110.233 137.347 115.862ZM95.0169 112.993C94.0819 112.99 93.156 113.177 92.2947 113.541C91.4335 113.905 90.6548 114.439 90.0053 115.112C89.3558 115.785 88.8489 116.581 88.5152 117.455C88.1814 118.328 88.0276 119.26 88.063 120.195C88.0264 121.129 88.1794 122.062 88.5127 122.936C88.846 123.81 89.3528 124.607 90.0025 125.28C90.6523 125.953 91.4315 126.488 92.2932 126.852C93.155 127.216 94.0815 127.401 95.0169 127.398C96.2768 127.392 97.5138 127.061 98.607 126.434C99.7002 125.808 100.612 124.908 101.253 123.824L106.344 127.149C105.15 129.111 103.464 130.727 101.452 131.835C99.441 132.943 97.1746 133.506 94.8783 133.468C93.1196 133.494 91.3733 133.17 89.7409 132.515C88.1085 131.86 86.6227 130.887 85.3698 129.652C84.1168 128.418 83.1219 126.946 82.4428 125.324C81.7637 123.701 81.4139 121.96 81.4139 120.201C81.4139 118.442 81.7637 116.701 82.4428 115.078C83.1219 113.456 84.1168 111.985 85.3698 110.75C86.6227 109.516 88.1085 108.543 89.7409 107.888C91.3733 107.233 93.1196 106.909 94.8783 106.935C97.184 106.871 99.4656 107.418 101.491 108.521C103.517 109.623 105.215 111.243 106.413 113.214L101.196 116.636C100.587 115.531 99.6919 114.61 98.6048 113.969C97.5176 113.328 96.2788 112.991 95.0169 112.993ZM152.263 112.993C151.328 112.99 150.402 113.176 149.541 113.54C148.68 113.905 147.901 114.439 147.251 115.112C146.602 115.784 146.095 116.581 145.761 117.455C145.427 118.328 145.273 119.26 145.309 120.195C145.272 121.129 145.425 122.062 145.758 122.936C146.092 123.81 146.599 124.608 147.248 125.281C147.898 125.954 148.678 126.488 149.539 126.852C150.401 127.216 151.328 127.401 152.263 127.398C153.523 127.392 154.76 127.061 155.853 126.434C156.946 125.808 157.858 124.908 158.499 123.824L163.591 127.149C162.064 129.577 159.789 131.442 157.108 132.461C154.428 133.48 151.488 133.599 148.734 132.798C145.98 131.997 143.562 130.321 141.846 128.023C140.13 125.725 139.21 122.931 139.224 120.063C139.238 117.195 140.185 114.41 141.924 112.129C143.662 109.848 146.096 108.196 148.857 107.421C151.619 106.647 154.557 106.794 157.228 107.839C159.898 108.884 162.156 110.771 163.658 113.214L158.443 116.636C157.834 115.531 156.939 114.61 155.852 113.969C154.764 113.328 153.525 112.991 152.263 112.993Z" fill="#264164"/>
</svg>
