<svg width="350" height="250" viewBox="0 0 350 250" fill="none" xmlns="http://www.w3.org/2000/svg">
<rect width="350" height="250" rx="20" fill="#E8F4F9"/>
<mask id="mask0_1432_24886" style="mask-type:luminance" maskUnits="userSpaceOnUse" x="63" y="93" width="225" height="62">
<path d="M63 93.6111V155H288V93.6111H63Z" fill="white"/>
</mask>
<g mask="url(#mask0_1432_24886)">
<path d="M88.9949 93.9737C85.6159 92.7962 81.9221 94.5806 80.7444 97.9599C79.6306 101.156 81.1678 104.632 84.197 105.996L71.1736 142.267C67.9195 141.382 64.4894 143.154 63.3625 146.387C62.185 149.766 63.9695 153.46 67.3485 154.637C70.7276 155.815 74.4213 154.031 75.599 150.651C76.7116 147.459 75.1794 143.987 72.1578 142.62L85.1703 106.344C88.4241 107.229 91.854 105.457 92.9809 102.224C94.1584 98.8452 92.3738 95.1516 88.9949 93.9737Z" fill="#264164"/>
<path d="M110.144 132.122L112.704 124.501C114.272 119.831 114.824 117.856 114.824 117.856H115.049C115.049 117.856 115.848 120.337 117.301 124.351L120.029 132.122H110.144ZM111.81 108.766L98.1643 146.778H105.239L108.282 137.755H121.994L125.224 146.778H132.413L117.891 108.766H111.81Z" fill="#264164"/>
<path d="M145.239 137.332H145.034C145.034 137.332 143.854 133.701 142.63 130.166L135.092 108.766H127.749L142.027 146.778H148.247L161.99 108.766H154.639L147.446 130.172C146.28 133.531 145.239 137.332 145.239 137.332Z" fill="#264164"/>
<path d="M167.023 146.778H173.858V108.767H167.023V146.778Z" fill="#264164"/>
<path d="M206.066 134.11L205.936 134.141L188.008 108.766H182.956V146.778H189.613V135.694C189.613 129.692 189.373 121.436 189.373 121.436L189.518 121.411L207.398 146.778H212.45V108.766H205.794V120.89C205.794 125.442 206.066 134.11 206.066 134.11Z" fill="#264164"/>
<path d="M279.236 120.829C279.236 124.215 276.992 126.407 273.522 126.407H268.345V115.251H273.522C276.992 115.251 279.236 117.443 279.236 120.829ZM279.961 131.557C283.609 129.478 286.167 126.438 286.167 120.829C286.167 113.839 280.962 108.766 273.79 108.766H261.508V146.778H268.345V132.551H273.677L280.543 146.778H288L279.961 131.557Z" fill="#264164"/>
<path d="M236.976 114.969C229.787 114.969 224.625 120.403 224.625 127.772C224.625 135.242 229.901 140.572 236.98 140.572C244.215 140.572 249.329 135.086 249.329 127.772C249.329 120.223 243.963 114.969 236.976 114.969ZM256.418 127.773C256.418 138.513 247.711 147.219 236.968 147.219C226.226 147.219 217.518 138.513 217.518 127.773C217.518 117.033 226.226 108.327 236.968 108.327C247.711 108.327 256.418 117.033 256.418 127.773Z" fill="#264164"/>
</g>
</svg>
