<svg width="350" height="250" viewBox="0 0 350 250" fill="none" xmlns="http://www.w3.org/2000/svg">
<rect width="350" height="250" rx="20" fill="#E8F4F9"/>
<path fill-rule="evenodd" clip-rule="evenodd" d="M139.469 162.375L136.804 140.789C129.747 135.771 124.311 131.641 117.777 126.885C114.693 104.147 120.39 91.8114 128.753 80.1031C139.155 66.8789 155.881 57 175.9 57C195.92 57.2085 212.699 67.2967 222.578 80.5209C231.829 93.0658 236.795 108.851 233.188 127.512L215.155 140.789L212.488 162.375H183.899C182.121 163.788 179.717 165.093 175.9 165.198C172.137 165.093 169.785 163.788 167.851 162.375H139.469Z" fill="#264164"/>
<path fill-rule="evenodd" clip-rule="evenodd" d="M175.901 132.425C174.385 112.3 173.967 87.4722 172.713 67.5581C170.57 67.0351 167.538 67.1924 165.029 67.6102C162.521 68.3946 160.691 69.074 158.548 70.2762C162.468 89.4068 167.016 113.764 170.884 132.738C165.605 114.287 158.548 91.1841 153.322 72.7851C150.813 73.308 148.356 74.7188 146.58 76.1825C144.698 77.6463 143.6 78.7443 141.875 81.3574C149.454 97.5612 158.548 118.208 166.18 134.306C157.346 119.671 146.63 100.384 137.744 85.8529C136.02 87.3688 134.713 88.4668 132.987 91.3935C131.524 93.7459 130.792 96.5162 130.479 99.1822C140.201 111.048 151.804 125.265 161.579 137.077C151.387 127.25 138.842 114.601 128.754 104.774C127.761 106.76 127.134 108.433 126.82 111.725C126.455 114.914 127.082 118.729 127.761 121.029L147.467 135.665L149.558 151.921L171.25 152.077C172.818 153.907 173.34 154.848 175.902 155.004C178.358 154.848 179.77 153.332 180.398 152.077H202.036L204.23 135.769L223.78 121.238C224.511 118.834 224.981 115.122 224.721 111.934C224.408 108.484 223.78 106.759 222.944 104.93C212.804 114.704 200.207 127.354 190.119 137.18C199.945 125.472 211.445 111.202 221.271 99.2327C220.749 96.5675 220.121 93.8485 218.553 91.4969C216.723 88.5694 215.677 87.4722 214.005 85.9042C205.068 100.383 194.195 119.828 185.361 134.358C193.203 118.207 202.088 97.5604 209.773 81.5667C208.1 79.005 206.897 77.6984 205.225 76.3398C203.239 74.8239 200.782 73.4131 198.378 72.838C192.889 91.1841 186.147 114.497 180.815 132.791C184.526 113.816 189.178 89.6682 192.889 70.5907C191.009 69.2312 189.179 68.5518 186.721 67.8204C183.899 67.2974 181.129 67.1932 178.933 67.5589C177.47 87.6294 177.416 112.406 175.901 132.425Z" fill="#E8F4F9"/>
<path fill-rule="evenodd" clip-rule="evenodd" d="M116 185.374H126.14C125.984 187.622 127.082 188.144 127.605 188.511C128.179 188.719 132.414 188.928 134.504 188.562C135.341 188.405 136.124 188.092 136.124 185.53C136.124 184.433 135.863 183.231 134.608 182.968C130.165 182.603 125.827 183.073 121.384 182.655C116.941 181.663 116.262 180.512 116 177.01C116.314 172.149 118.039 170.738 123.004 170.581C128.178 170.424 133.355 170.424 138.529 170.581C143.808 170.581 145.428 172.62 145.428 177.063H136.124C136.124 174.867 135.706 174.031 134.608 173.926C132.346 173.77 130.076 173.77 127.813 173.926C126.977 173.926 125.88 174.345 125.88 176.331C125.88 178.211 126.35 178.682 127.605 178.84C131.42 178.996 135.289 179.049 139.052 179.309C145.324 179.675 145.533 182.445 145.742 185.372C145.846 189.555 144.33 191.017 143.233 191.698C142.188 192.168 137.117 192.744 136.124 192.744H126.089C123.841 192.744 121.018 192.482 118.562 191.75C116.261 191.124 116 188.04 116 185.374ZM211.289 192.848H220.174V170.687H211.289V192.848ZM226.132 192.848H234.914V170.687H226.132V192.848ZM206.114 181.244C205.952 180.551 205.742 179.87 205.485 179.206C203.969 176.749 198.743 176.749 193.673 176.644C189.858 176.644 184.161 176.749 182.488 178.369C181.808 179.101 181.442 180.146 181.233 181.244C180.972 182.551 181.023 183.909 181.023 184.537C181.023 185.687 181.128 190.129 183.271 191.279C185.257 192.587 191.268 192.744 193.567 192.744C196.024 192.744 202.82 192.482 203.813 191.331C205.589 190.704 206.008 188.51 206.374 186.785H197.645C197.645 188.51 196.285 189.556 193.567 189.397C191.11 189.555 189.7 188.98 189.7 185.897L206.373 185.948C206.374 184.433 206.427 182.812 206.114 181.244ZM197.645 182.76H189.7C189.7 182.133 189.805 181.609 189.961 181.244C190.535 179.833 191.999 179.781 193.566 179.676C195.971 179.676 197.017 180.251 197.435 181.244C197.645 181.663 197.697 182.185 197.645 182.76ZM150.969 192.848H159.645V183.439C159.855 182.133 160.168 181.088 163.356 181.088C166.387 181.036 167.224 181.871 167.224 183.439V192.848H175.9V183.439C175.9 180.355 175.849 178.683 173.862 177.796C172.085 176.645 169.523 176.802 167.12 176.802C164.611 176.802 161.788 177.116 159.645 178.162V170.687H150.969V192.848Z" fill="#264164"/>
</svg>
