<svg width="350" height="250" viewBox="0 0 350 250" fill="none" xmlns="http://www.w3.org/2000/svg">
<rect width="350" height="250" rx="20" fill="#264164"/>
<path d="M277.42 182.664L277.409 171.64L284.306 182.664H287V166.516H284.23L284.247 177.546L277.296 166.516H274.639V182.664H277.42ZM192.343 146.105C193.911 145.647 196.342 145.119 196.352 144.58C196.363 144.063 195.118 143.831 192.036 144.154C189.407 144.434 188.701 144.165 188.442 143.847C188.453 144.865 188.464 146.175 188.475 147.096C189.159 146.945 190.635 146.6 192.349 146.105H192.343ZM157.503 144.154C154.42 143.831 153.176 144.063 153.187 144.58C153.197 145.119 155.627 145.647 157.195 146.105C159.006 146.633 160.552 146.983 161.177 147.123V143.739C160.967 144.1 160.423 144.461 157.503 144.154ZM68.8593 166.3C64.7588 166.3 62 169.646 62 174.625C62 179.604 64.7534 182.95 68.8593 182.95C72.9652 182.95 75.7402 179.604 75.7402 174.625C75.7402 169.646 72.976 166.3 68.8593 166.3ZM68.8593 180.213C66.2675 180.213 64.7804 178.176 64.7804 174.62C64.7804 171.063 66.2675 169.027 68.8593 169.027C71.4511 169.027 72.9598 171.063 72.9598 174.62C72.9598 178.176 71.4619 180.213 68.8593 180.213ZM80.3364 180.013V166.548H77.6046V182.697H87.5622V180.013H80.3364ZM97.8754 166.548H95.1166L89.3026 182.697H92.1476L93.457 178.952H99.5135L100.844 182.697H103.759L97.8754 166.548ZM98.6675 176.468H94.3084L96.4691 170.04L98.6675 176.468ZM112.995 166.548L108.765 179.065L104.341 166.548H101.383L107.305 182.697H110.069L115.889 166.548H112.995ZM121.805 166.548V169.237H126.407V182.697H129.138V169.237H133.74V166.548H121.805ZM145.476 166.548V173.865H138.579V166.548H135.847V182.697H138.579V176.484H145.476V182.697H148.208V166.548H145.476ZM157.416 166.3C153.316 166.3 150.557 169.646 150.557 174.625C150.557 179.604 153.31 182.95 157.416 182.95C161.522 182.95 164.297 179.604 164.297 174.625C164.297 169.646 161.533 166.3 157.416 166.3ZM157.416 180.213C154.825 180.213 153.337 178.176 153.337 174.62C153.337 171.063 154.825 169.027 157.416 169.027C160.008 169.027 161.517 171.063 161.517 174.62C161.517 178.176 160.019 180.213 157.416 180.213ZM169.4 182.664L169.389 171.64L176.281 182.664H178.98V166.516H176.211L176.227 177.546L169.276 166.516H166.62V182.664H169.4ZM193.944 173.876V176.516C193.944 176.516 197.597 176.522 197.586 176.516C197.602 178.305 196.433 180.25 193.992 180.218C191.4 180.18 189.913 178.181 189.913 174.625C189.913 171.069 191.4 169.032 193.992 169.032C195.474 169.032 196.298 169.501 197.128 170.821L199.515 169.35C198.357 167.302 196.552 166.306 193.992 166.306C189.892 166.306 187.133 169.652 187.133 174.63C187.133 179.609 189.892 182.955 193.992 182.955C197.748 182.955 199.892 180.541 200.356 176.349L200.345 173.876H193.944ZM215.05 171.446C215.05 167.836 212.63 166.553 209.796 166.553H203.018V182.702H205.706V176.5H209.3L212.113 182.702H214.926C214.926 182.702 212.022 176.263 212.011 176.252C213.789 175.649 215.061 174.56 215.061 171.451L215.05 171.446ZM205.701 169.215H209.796C211.364 169.215 212.296 170.034 212.296 171.516C212.296 173.558 210.728 173.86 209.796 173.86H205.701V169.215ZM227.535 166.548V175.978C227.535 178.828 226.398 180.218 224.064 180.218C221.236 180.218 220.637 177.826 220.637 175.821V166.553H217.906V175.891C217.906 180.444 220.077 182.95 224.016 182.95C227.955 182.95 230.266 180.461 230.266 175.934V166.553H227.535V166.548ZM240.041 166.548H233.252V182.697H235.935V176.522H239.879C243.597 176.522 245.294 174.754 245.294 171.581C245.294 168.407 243.597 166.548 240.041 166.548ZM239.998 173.882H235.94V169.21H239.998C241.69 169.21 242.519 169.975 242.519 171.559C242.519 173.224 241.647 173.882 239.998 173.882ZM254.147 166.548H247.353V182.697H250.042V176.522H253.986C257.704 176.522 259.401 174.754 259.401 171.581C259.401 168.407 257.704 166.548 254.147 166.548ZM254.099 173.882H250.042V169.21H254.099C255.791 169.21 256.626 169.975 256.626 171.559C256.626 173.224 255.753 173.882 254.099 173.882ZM264.148 180.035V176.543H268.68V173.882H264.148V169.21H271.95V166.548H261.416V182.697H272.29V180.035H264.148ZM164.577 111.743C164.577 111.743 167.918 109.841 171.377 110.601C176.189 111.663 177.482 112.546 178.835 112.649C181.389 112.843 185.085 111.506 184.816 107.691C184.816 107.691 181.615 109.103 179.293 108.866C175.672 108.494 171.884 106.716 169.809 106.77C166.749 106.851 164.405 108.731 164.577 111.749V111.743ZM168.678 137.543C168.678 137.543 170.666 136.212 172.725 136.745C175.586 137.489 176.356 138.108 177.165 138.179C178.689 138.313 180.882 137.376 180.726 134.708C180.726 134.708 178.819 135.694 177.439 135.527C175.284 135.269 173.032 134.024 171.798 134.062C169.977 134.121 168.581 135.43 168.683 137.548L168.678 137.543ZM183.059 123.14C183.059 125.796 182.332 128.059 180.882 129.918C179.428 131.777 177.375 132.709 174.724 132.709C172.073 132.709 170.014 131.772 168.559 129.907C167.099 128.038 166.372 125.78 166.372 123.14C166.372 120.499 167.099 118.215 168.559 116.28C170.02 114.346 172.073 113.381 174.724 113.381C177.375 113.381 179.358 114.335 180.839 116.237C182.321 118.145 183.059 120.44 183.059 123.134V123.14ZM178.652 123.14C178.652 120.704 178.366 118.689 177.806 117.094C177.24 115.499 176.211 114.696 174.713 114.696C173.215 114.696 172.17 115.504 171.609 117.116C171.049 118.732 170.774 120.737 170.774 123.134C170.774 125.532 171.054 127.574 171.609 129.099C172.17 130.624 173.199 131.389 174.713 131.389C176.227 131.389 177.245 130.624 177.806 129.088C178.372 127.553 178.652 125.57 178.652 123.134V123.14Z" fill="#E8F4F9"/>
<path d="M224.587 112.665C222.373 111.56 220.573 111.641 219.377 112.428C215.023 115.806 214.953 117.089 214.829 120.381C214.673 122.331 217.097 129.573 215.427 130.457C214.877 130.603 214.139 130.457 213.886 130.301C212.027 127.122 210.044 123.813 208.859 119.928C209.662 110.876 209.775 106.07 207.102 102.314C206.719 101.22 206.827 99.873 206.79 99.5281C206.062 99.2156 205.814 100.584 205.405 100.439C205.06 100.32 205.642 98.9192 204.861 98.9462C204.295 98.9623 204.209 100.261 203.675 100.493C202.856 100.859 202.948 100.714 201.126 102.007C199.047 102.707 197.155 102.206 197.042 102.68C196.665 104.324 199.941 103.903 199.812 105.267C199.758 105.881 198.319 105.396 198.098 105.612C197.716 105.994 197.899 106.307 197.899 106.307C198.465 106.398 200.157 106.926 200.83 107.745C200.938 108.979 200.722 109.642 199.957 110.461C197.716 110.407 194.364 108.257 193.523 107.799L193.502 101.096L180.953 101.128C180.953 101.128 181.4 99.8298 183.092 97.7553C184.035 96.6022 181.567 95.1797 180.985 93.5848C182.871 93.6602 184.617 93.3693 185.705 91.478C187.208 88.6329 186.055 86.2998 183.851 83.1207C182.693 80.9653 183.636 79.5374 184.142 77.9048C184.25 77.3767 183.48 77.0911 183.092 77.3606C180.877 78.74 180.883 82.0376 181.718 84.2307C182.639 86.483 185.242 89.7699 183.226 91.5857C182.607 92.0599 181.093 92.5664 180.295 91.478C179.821 88.6491 177.429 86.58 175.43 84.3277C172.234 80.5558 175.537 76.0189 175.063 71.6274C174.993 70.5336 174.589 69.596 173.684 68.8362C171.394 67.1551 168.667 68.3351 167.913 69.5259C167.212 70.7491 167.66 72.7535 169.475 73.5564C169.766 74.8281 169.147 76.2075 168.274 77.2205C167.449 77.8455 166.738 77.7108 165.041 76.4122C164.184 75.7279 163.295 74.1114 162.632 74.1922C161.964 74.2461 161.323 74.6556 161.63 75.8033C162.465 77.6892 165.262 79.0579 166.781 80.3295C165.44 82.3286 162.056 81.946 160.218 83.2284C159.577 83.6972 159.97 84.9796 160.795 84.8988C162.196 84.7372 162.444 84.5755 163.559 84.2576C164.61 83.8104 166.625 83.5086 167.234 83.7457C167.234 83.7457 167.681 83.8804 167.999 84.5378C169.023 86.6662 172.008 87.2373 172.261 89.9207C169.901 91.6612 170.117 94.7109 170.192 97.2488C169.432 99.4257 166.383 98.8438 165.984 101.096H155.557L155.606 107.788C153.865 108.985 151.252 110.31 149.296 110.456C148.499 109.674 148.316 108.785 148.423 107.697C149.296 106.899 150.347 106.495 151.365 106.285C151.381 104.879 149.792 106.134 149.355 105.267C149.431 104.361 150.53 104.254 151.182 104.038C151.926 103.715 152.605 102.702 151.904 102.476C147.373 102.454 148.202 101.683 146.203 100.74C144.528 100.401 145.158 98.7576 144.145 98.9785C143.832 98.9947 144.005 100.476 143.816 100.487C143.536 100.611 143.046 99.1563 142.485 99.5389C142.135 100.029 143.148 100.983 140.934 104.259C139.85 107.212 139.295 111.237 140.325 119.831C139.419 123.705 137.135 126.793 135.357 130.349C134.812 130.457 133.638 130.85 133.347 129.977C132.587 126.459 134.775 123.237 134.306 119.357C134.16 116.345 131.913 113.624 129.408 112.207C128.131 111.679 126.617 111.9 125.415 112.352C124.408 112.783 123.421 113.694 123.314 114.82C124.909 116.852 126.654 118.603 126.735 121.275C126.498 125.279 125.593 130.258 128.567 133.857C130.561 135.851 134.166 134.417 136.375 134.342C137.9 136.05 135.863 137.607 135.507 139.208C135.303 140.975 136.052 141.891 135.868 143.055C133.185 144.073 130.744 144.402 127.403 143.874C126.525 143.712 125.738 143.572 124.041 143.055C124.51 144.871 125.14 145.728 127.851 147.048C126.827 148.228 125.507 149.014 123.858 149.516C128.718 152.495 137.356 150.642 143.299 149.068C145.907 148.384 149.097 147.021 151.398 147.592L151.446 153.632C161.377 159.802 187.505 159.796 197.285 153.686V147.581C199.354 146.821 205.609 149.214 208.39 149.704C211.17 150.194 215.039 151.229 217.652 151.121C220.271 151.013 224.334 150.582 225.347 149.494C223.45 148.95 222.491 148.26 221.343 147.053C222.992 146.196 224.533 145.674 225.245 143.05C225.245 143.05 221.742 144.154 218.967 144.111C215.502 144.063 213.315 143.05 213.315 143.05C213.401 141.713 213.843 140.733 213.73 139.315C213.46 137.521 211.289 136.309 212.873 134.331C214.834 134.369 218.083 135.581 219.932 134.31C221.634 133.55 222.416 130.613 222.701 128.862C223.299 122.849 220.309 120.71 225.848 114.885C226.301 113.683 225.412 113.214 224.555 112.681L224.587 112.665ZM127.985 113.915C127.948 114.497 128.713 114.244 128.675 114.788C128.169 115.117 127.77 114.136 127.479 114.971C127.479 115.154 127.921 115.591 127.544 115.704C126.999 115.995 126.881 114.998 126.245 115.661L126.223 116.749C125.28 116.528 124.537 114.793 124.682 114.287C125.518 112.616 127.932 112.692 129.219 113.236C129.823 113.543 130.583 114.001 130.62 114.691C130.022 114.874 128.675 113.419 127.985 113.926V113.915ZM193.507 111.539C194.995 112.266 197.613 113.64 198.341 115.165C196.924 116 195.032 115.903 193.507 115.429V111.539ZM174.977 94.7756C176.286 95.9018 178.684 97.0549 180.247 97.4913C181.513 98.7953 177.908 99.5604 178.603 101.085H169.842C171.803 99.5389 174.293 97.1357 174.982 94.7756H174.977ZM158.834 105.046H190.285C190.285 105.046 190.889 122.649 187.596 130.592C183.776 139.8 174.643 143.551 174.643 143.551C174.643 143.551 166.383 140.959 161.797 130.592C158.397 122.908 158.834 105.046 158.834 105.046ZM155.557 111.463V115.354C154.033 115.828 152.357 115.995 150.94 115.16C151.667 113.635 154.07 112.191 155.557 111.463ZM140.966 141.638C140.276 141.094 139.225 141.018 138.897 140.043C138.643 139.062 139.295 138.48 139.77 137.791C142.27 137.936 143.067 132.532 145.32 135.544C145.174 137.5 147.464 138.593 148.116 140.043L140.966 141.638ZM199.294 136.185C199.241 136.858 198.589 137.677 196.735 137.893C195.523 138.033 195.426 139.639 195.426 139.639C194.025 140.124 188.464 139.741 188.432 142.274V142.592C188.626 142.839 189.369 143.319 192.155 142.99C195.14 142.645 197.726 143.098 197.694 144.391C197.667 145.42 197.171 145.765 194.035 146.773C191.33 147.64 188.852 148.179 188.216 148.309C184.52 149.155 183.194 150.065 174.632 150.022C166.614 149.984 162.067 148.535 161.253 148.292C160.525 148.136 158.117 147.608 155.504 146.773C152.368 145.765 151.872 145.42 151.845 144.391C151.813 143.098 154.399 142.645 157.389 142.99C160.612 143.367 161.102 142.662 161.172 142.495V142.306C160.73 139.693 153.973 139.73 153.607 139.612C153.235 139.488 153.063 137.963 152.007 137.839C150.277 137.634 149.188 136.643 149.296 136.185C149.641 134.676 150.121 132.629 150.056 131.432C149.927 128.964 146.284 127.822 146.284 127.822C146.284 127.822 146.764 126.335 147.329 124.95C147.965 123.398 148.369 121.491 148.957 118.759L155.8 118.797C155.8 118.797 155.832 126.351 159.911 134.746C164.448 144.079 174.664 147.457 174.664 147.457C174.664 147.457 184.261 144.063 189.385 134.665C193.599 126.928 193.588 118.759 193.588 118.759L200.604 118.888C200.604 118.888 201.401 123.565 201.929 124.912C202.43 126.195 202.667 127.828 202.667 127.828C202.667 127.828 198.233 128.932 198.195 131.389C198.168 133.011 199.408 134.789 199.294 136.179V136.185ZM209.882 140.037C209.554 141.018 208.503 141.088 207.813 141.632L200.663 140.037C201.315 138.583 203.605 137.494 203.46 135.538C205.712 132.526 206.509 137.931 209.01 137.785C209.478 138.475 210.136 139.057 209.882 140.037ZM223.019 116.577C222.647 116.356 223.477 115.461 222.895 115.165C222.895 115.165 222.157 115.515 221.796 115.359C221.435 115.203 222.001 114.691 221.451 114.529C220.902 114.368 220.341 115.332 219.969 115.014C219.598 114.691 220.454 113.839 220.454 113.839C219.969 113.355 219.635 114.588 219.145 114.184C218.967 113.565 219.657 113.08 220.282 112.875C221.866 112.498 223.795 112.67 224.765 114.012C224.824 114.443 223.892 116.663 223.025 116.577H223.019Z" fill="#E8F4F9"/>
</svg>
