<svg width="350" height="250" viewBox="0 0 350 250" fill="none" xmlns="http://www.w3.org/2000/svg">
<rect width="350" height="250" rx="20" fill="#264164"/>
<path d="M214.505 117.823C214.505 119.049 213.393 119.815 211.937 119.815H207.452V115.828H211.937C213.393 115.83 214.505 116.558 214.505 117.823ZM202.7 138.369H207.452V124.11H208.411C216.69 124.11 220.408 132.045 220.408 138.369H225.16C225.16 132.275 222.323 125.414 216.229 122.232C218.375 121.312 219.411 119.664 219.411 117.441C219.411 113.684 216.727 111.538 211.093 111.538H202.698V138.369H202.7ZM241.142 123.535C244.86 122.884 246.661 120.776 246.661 117.632C246.661 113.761 244.054 111.538 238.535 111.538H228.798V138.369H233.551V123.727H235.543L247.004 138.369H252.793L241.142 123.535ZM233.551 119.434V115.83H239.378C240.72 115.83 241.754 116.481 241.754 117.631C241.754 118.743 240.72 119.432 239.378 119.432H233.551V119.434ZM176.385 138.369H197.819V133.923H181.214V124.109H197.091V119.662H181.214V115.983H197.627V111.536H176.385V138.369ZM269.252 111C259.168 111 251.502 116.482 251.502 124.916C251.502 133.388 259.168 138.909 269.252 138.909C279.333 138.909 287 133.388 287 124.916C287 116.482 279.333 111 269.252 111ZM269.252 134.461C262.311 134.461 256.484 130.551 256.484 124.916C256.484 119.319 262.311 115.446 269.252 115.446C276.19 115.446 282.017 119.318 282.017 124.916C282.017 130.551 276.19 134.461 269.252 134.461Z" fill="#E8F4F9"/>
<path d="M170.1 111.536H165.001L161.206 118.897L157.412 111.536H152.39V138.369H156.836V119.395L160.938 127.29H161.475L165.653 119.241V138.369H170.1M124.951 111.539H119.163V138.371H123.839V119.551L132.463 138.754H133L141.701 119.359V138.371H146.378V111.539H140.513L132.732 129.249L124.951 111.539ZM100.539 111.003C92.336 111.003 86.0884 116.905 86.0884 124.917C86.0884 132.967 92.336 138.909 100.539 138.909C108.742 138.909 114.99 132.967 114.99 124.917C114.99 116.905 108.742 111.003 100.539 111.003ZM100.539 134.462C95.2116 134.462 91.0713 130.399 91.0713 124.917C91.0713 119.473 95.2116 115.449 100.539 115.449C105.867 115.449 110.007 119.473 110.007 124.917C110.007 130.398 105.867 134.462 100.539 134.462ZM70.0143 117.75C70.0143 116.524 71.0873 115.526 72.6983 115.526C74.4607 115.526 75.5739 116.907 76.2634 118.363L80.5954 116.371C79.2534 113.611 76.9158 111.004 72.6998 111.004C68.5224 111.004 65.1861 113.764 65.1861 117.866C65.1861 121.278 67.332 123.921 71.2419 125.149L73.8872 125.991C76.5324 126.834 78.0645 128.329 78.0645 130.438C78.0645 132.853 76.0717 134.462 73.2347 134.462C70.6668 134.462 68.0988 133.082 67.7541 130.399H63C63.1917 134.731 66.9872 138.909 73.2347 138.909C78.9071 138.909 82.933 135.268 82.933 130.246C82.933 125.531 79.4838 123.116 75.1518 121.659L72.5452 120.778C70.8585 120.202 70.0143 118.823 70.0143 117.75Z" fill="#E8F4F9"/>
</svg>
