<svg width="101" height="101" viewBox="0 0 101 101" fill="none" xmlns="http://www.w3.org/2000/svg">
<path d="M50.5 100C37.2716 100 24.8325 94.858 15.4873 85.5127C6.14203 76.1675 1 63.7285 1 50.5C1 37.2715 6.14203 24.8325 15.4873 15.4873C24.8325 6.14203 37.2716 1 50.5 1C63.7284 1 76.1674 6.14203 85.5127 15.4873C94.858 24.8325 100 37.2715 100 50.5C100 63.7285 94.858 76.1675 85.5127 85.5127C76.1674 94.858 63.7284 100 50.5 100ZM6.33405 36.5248C2.06681 49.9666 4.13642 64.4112 11.9668 76.1675C19.8399 87.9664 32.4069 95.4127 46.4675 96.6289L48.7291 96.8209L37.0795 68.2731C36.1194 65.9474 34.4978 64.1339 32.5989 63.2804L29.0998 61.7229C24.7259 59.7813 21.7815 54.6179 21.7815 48.8998C21.7815 44.3552 19.4771 40.2373 16.1487 38.8931L6.78211 35.0953L6.33405 36.5248ZM50.4573 4.17909C32.6416 4.17909 16.2127 14.6338 8.57436 30.7853L7.95561 32.1082L17.3649 35.9274C21.9095 37.7836 24.9819 42.9897 24.9819 48.8785C24.9819 53.2951 27.2222 57.3916 30.4013 58.7998L33.9004 60.3573C36.5888 61.5522 38.7651 63.9205 40.0453 67.0569L52.1642 96.7782L53.1457 96.7142C56.8795 96.5009 60.5707 95.8395 64.1125 94.7513L65.1793 94.4313L64.1765 80.8614C63.7498 75.058 65.9901 71.3241 67.9317 69.2332C70.5774 66.3955 74.3325 64.7526 78.2584 64.7526C79.6879 64.7526 81.1174 64.966 82.483 65.3927L93.0657 68.7211L93.5351 67.5263C97.1409 58.4371 97.7597 48.1957 95.2634 38.7011L94.5806 36.0767L84.9366 47.6836C82.611 50.4787 79.1972 52.0789 75.5274 52.0789C73.2444 52.0789 71.0468 51.4388 69.1265 50.2653L60.5707 44.9526C57.4556 43.0323 55.4073 39.8319 54.9166 36.2047C54.4259 32.5776 55.578 28.9718 58.0743 26.2834C60.3146 23.8724 61.0614 20.4586 60.0373 17.3222L55.7914 4.43513L54.8953 4.34978C53.4231 4.20043 51.9295 4.13643 50.436 4.13643L50.4573 4.17909ZM78.237 67.9317C72.2202 67.9317 67.3129 72.839 67.3129 78.8772C67.3129 79.0479 67.3129 79.1759 67.3129 79.2826C67.3129 79.8942 67.4338 81.8998 67.6756 85.2994C67.7823 86.7929 67.9317 88.7345 68.1237 91.2735L68.273 93.3004L70.108 92.447C78.7918 88.3718 86.1741 81.5229 90.8894 73.1377L91.7215 71.6442L81.5442 68.4438C80.456 68.1024 79.3465 67.9317 78.237 67.9317ZM63.067 16.3621C64.4539 20.5866 63.4297 25.2166 60.4213 28.481C58.5864 30.4653 57.733 33.1323 58.0957 35.8207C58.4584 38.5091 59.9733 40.856 62.2776 42.2856L70.8334 47.5983C72.2629 48.4731 73.8845 48.9425 75.57 48.9425C78.2797 48.9425 80.8187 47.769 82.5256 45.6994L93.2791 32.7483L92.9377 31.9588C87.2196 18.9011 75.57 9.06509 61.7869 5.58729L59.3332 4.96854L63.0883 16.3834L63.067 16.3621Z" fill="#264164" stroke="#264164" stroke-width="2" stroke-miterlimit="10"/>
</svg>
