<svg width="101" height="102" viewBox="0 0 101 102" fill="none" xmlns="http://www.w3.org/2000/svg">
<path d="M27.1512 39.2701C30.9339 46.4209 35.5522 55.1785 43.6673 55.1785C44.437 55.1785 45.2507 55.0982 46.1084 54.9174C49.891 54.1943 53.1679 52.4669 53.2998 52.3865C54.2015 51.9045 54.5094 50.8399 53.9816 50.0163C53.4538 49.1928 52.2882 48.9116 51.3865 49.3937C51.3645 49.3937 48.5275 50.9202 45.3167 51.5228C38.5651 52.8887 34.3207 44.8541 30.56 37.7435C30.2301 37.1008 29.8783 36.4781 29.5704 35.8554C31.2638 35.755 33.463 35.4537 36.3219 35.0721C39.005 34.7105 41.776 34.3288 44.1951 34.1481C49.2973 33.907 52.1342 37.0606 52.816 43.6891C52.86 44.1511 53.1019 44.5328 53.4318 44.814C51.3205 43.5686 49.1213 42.5241 47.252 41.9014C46.2624 41.56 45.1847 42.0219 44.8109 42.9258C44.459 43.8297 44.9428 44.814 45.9325 45.1554C51.4085 47.0034 57.7202 51.8442 58.6879 53.5716C58.5999 57.0667 59.0397 60.9233 60.6452 64.4384C60.9531 65.1012 61.6568 65.503 62.4045 65.503C62.6465 65.503 62.8884 65.4628 63.1303 65.3624C64.0979 65.0008 64.5598 63.9764 64.1419 63.0926C62.7124 59.9792 62.3606 56.5043 62.4705 53.3507C62.4705 53.3105 62.4705 53.2703 62.4705 53.2503C62.5365 51.6433 62.7124 50.1168 62.9324 48.771C65.0876 47.2444 71.1134 44.593 76.1276 43.6289C77.1612 43.428 77.799 42.504 77.5791 41.58C77.3591 40.636 76.3475 40.0535 75.3359 40.2543C71.5532 40.9775 67.2428 42.5643 64.01 44.131C64.0759 43.89 64.1419 43.669 64.2079 43.5284C66.759 35.7952 65.1316 26.7161 62.1186 22.3975C61.5468 21.5941 60.3813 21.353 59.5016 21.8753C58.6219 22.3975 58.358 23.4621 58.9298 24.2656C61.129 27.3789 62.9104 35.4738 60.5792 42.5241C60.2933 43.3878 59.5896 45.7379 59.1057 48.8112C57.6323 47.5457 55.8069 46.2803 53.8936 45.1353C54.1795 45.2559 54.5094 45.3161 54.8393 45.2759C55.8729 45.1956 56.6426 44.3319 56.5546 43.3878C55.3671 31.9787 48.1757 30.5526 43.9312 30.7133C41.3141 30.8941 38.4772 31.2958 35.7282 31.6574C32.5833 32.0792 28.2948 32.6818 27.2612 32.3805C26.5355 31.9988 25.6338 32.0792 25.018 32.6014C24.3802 33.1438 24.2043 34.0075 24.6222 34.7105C25.4359 36.0764 26.2496 37.623 27.1293 39.2701H27.1512Z" fill="#264164" stroke="#264164" stroke-width="0.690963" stroke-miterlimit="10"/>
<path d="M58.027 34.0667C58.2689 34.147 58.5108 34.1872 58.7307 34.1872C59.4784 34.1872 60.1822 33.7855 60.4901 33.1025C60.8859 32.2187 60.4241 31.2144 59.4344 30.8528C59.3905 30.8528 54.1124 28.8442 50.9455 24.6662C48.7463 21.7537 51.1874 13.9803 53.3426 7.1107C53.3866 6.99018 53.4306 6.84958 53.4746 6.72906C54.6842 7.59278 56.2676 8.33597 58.1369 9.21978C60.3801 10.2844 63.1951 11.6101 66.6039 13.6589C74.1471 18.1984 66.142 29.7883 66.0541 29.9088C65.4823 30.7122 65.7462 31.7768 66.6259 32.2991C67.5055 32.8213 68.6711 32.5803 69.2429 31.7768C69.6608 31.1943 79.3593 17.1941 68.6931 10.7664C65.1084 8.61718 62.2274 7.25131 59.8963 6.14656C56.3556 4.47938 54.9041 3.73618 54.6182 2.39039C54.4422 1.60702 53.6945 1.02451 52.8148 1.00442C51.9571 0.944163 51.1434 1.50659 50.9235 2.26988C50.5277 3.55541 50.1318 4.86101 49.714 6.16663C47.0969 14.5025 44.6118 22.3764 47.8446 26.6347C51.6493 31.6563 57.785 33.9662 58.0489 34.0667H58.027Z" fill="#264164" stroke="#264164" stroke-width="0.690963" stroke-miterlimit="10"/>
<path d="M69.1341 38.6863C68.7163 39.5701 69.1341 40.5744 70.1018 40.9762C71.0694 41.3578 72.191 40.9762 72.6089 40.0924C72.8288 39.6505 73.0267 39.068 73.3126 38.3448C75.4239 32.5399 77.6231 29.1653 81.9775 30.3103C85.9581 31.3548 89.1029 32.6604 91.654 33.725C92.9295 34.2673 94.0292 34.7092 94.9968 35.0507C94.425 35.9144 93.8972 36.7982 93.3694 37.682C89.5208 44.0494 86.2 49.5531 74.8961 45.0537C73.9284 44.6721 72.8288 45.0537 72.389 45.9576C71.9711 46.8414 72.389 47.8457 73.3786 48.2474C76.8533 49.6334 79.7783 50.2159 82.2634 50.2159C90.1586 50.2159 93.6993 44.3306 96.6902 39.3693C97.6798 37.7423 98.6035 36.1956 99.6371 34.89C100.077 34.3276 100.121 33.5844 99.7471 33.0018C99.3732 32.3993 98.6475 32.0779 97.8998 32.1582C97.174 32.2185 95.1727 31.3949 93.2594 30.5915C90.5984 29.4867 87.2996 28.1008 83.0551 26.9759C74.3243 24.7062 71.1134 33.4839 69.7499 37.2401C69.53 37.8628 69.3321 38.385 69.1781 38.6863H69.1341Z" fill="#264164" stroke="#264164" stroke-width="0.690963" stroke-miterlimit="10"/>
<path d="M1.02148 90.2079C3.39663 88.7817 11.5557 87.6167 14.3487 88.7014C17.1417 89.7861 46.0613 98.825 48.8542 99.9096C51.3833 100.894 71.2642 93.5824 73.8812 92.4575C76.3883 91.3729 88.8358 83.9409 93.0363 80.2651C92.4865 78.1359 89.5396 75.3841 84.8992 74.6409C80.4788 73.9178 76.8721 75.6452 71.9019 79.4014L59.1465 80.2852" stroke="#264164" stroke-width="4" stroke-linejoin="round"/>
<path d="M31.9209 78.5775C31.9209 78.5775 47.8651 84.8043 50.1303 85.6881C59.235 89.2434 64.0953 78.8386 54.9905 75.2833C52.7034 74.3995 49.2946 73.0537 42.9609 70.5831C41.0696 69.8399 39.4421 64.296 36.4512 63.131C35.1097 62.6088 28.1382 59.8971 25.0593 58.6919C21.9804 57.4867 17.0982 58.2902 13.9973 59.2945C9.13707 61.0822 1 64.1153 1 64.1153" stroke="#264164" stroke-width="4" stroke-linejoin="round"/>
</svg>
