<svg width="96" height="104" viewBox="0 0 96 104" fill="none" xmlns="http://www.w3.org/2000/svg">
<path d="M0 51.825H23.8545C26.8072 56.0333 31.6665 58.8 37.2 58.8C42.7335 58.8 47.5927 56.0333 50.5455 51.825H62.775C67.9133 51.825 72.075 55.9868 72.075 61.125V65.775L69.75 68.1V77.4H93V68.1L90.675 65.775V61.125C90.675 45.7103 78.1898 33.225 62.775 33.225H51.15C49.941 31.086 48.5228 29.7375 46.5 28.575V26.25H27.9V28.575C25.8773 29.7375 24.459 31.086 23.25 33.225H0" stroke="#264164" stroke-width="4.65" stroke-miterlimit="10"/>
<path d="M72.0752 65.7754H86.0252" stroke="#264164" stroke-width="4.65" stroke-miterlimit="10"/>
<path d="M86.0254 65.7754H90.6754" stroke="#264164" stroke-width="4.65" stroke-miterlimit="10"/>
<path d="M43.2446 14.2532C47.9411 15.0437 57.0086 16.9502 60.4496 16.9502C64.3091 16.9502 67.4246 14.3462 67.4246 11.1377C67.4246 7.9292 64.3091 5.3252 60.4496 5.3252C57.2179 5.3252 49.1036 7.6502 41.8496 7.6502" stroke="#264164" stroke-width="4.65" stroke-miterlimit="10"/>
<path d="M31.3631 13.9742C26.6666 14.7647 17.3898 16.9502 13.9721 16.9502C10.1126 16.9502 6.99707 14.3462 6.99707 11.1377C6.99707 7.9292 10.1126 5.3252 13.9721 5.3252C17.2038 5.3252 25.3181 7.6502 32.5721 7.6502" stroke="#264164" stroke-width="4.65" stroke-miterlimit="10"/>
<path d="M32.5498 24.0645V7.65C32.5498 5.0925 34.6423 3 37.1998 3C39.7573 3 41.8498 5.0925 41.8498 7.65V24.0645" stroke="#264164" stroke-width="4.65" stroke-miterlimit="10"/>
<path d="M81.1398 86.2373C80.0238 86.2373 79.0938 87.144 79.0938 88.2833C79.0938 89.4225 80.0005 90.3293 81.1398 90.3293C82.279 90.3293 83.1858 89.4225 83.1858 88.2833C83.1858 87.144 82.279 86.2373 81.1398 86.2373Z" fill="#264164" stroke="#264164" stroke-width="2.046" stroke-miterlimit="10"/>
<path d="M81.1398 102.535C82.2697 102.535 83.1858 101.619 83.1858 100.489C83.1858 99.3594 82.2697 98.4434 81.1398 98.4434C80.0098 98.4434 79.0938 99.3594 79.0938 100.489C79.0938 101.619 80.0098 102.535 81.1398 102.535Z" fill="#264164" stroke="#264164" stroke-width="2.046" stroke-miterlimit="10"/>
<path d="M89.2765 102.535C90.4065 102.535 91.3225 101.619 91.3225 100.489C91.3225 99.3594 90.4065 98.4434 89.2765 98.4434C88.1465 98.4434 87.2305 99.3594 87.2305 100.489C87.2305 101.619 88.1465 102.535 89.2765 102.535Z" fill="#264164" stroke="#264164" stroke-width="2.046" stroke-miterlimit="10"/>
<path d="M73.0021 102.535C74.132 102.535 75.0481 101.619 75.0481 100.489C75.0481 99.3594 74.132 98.4434 73.0021 98.4434C71.8721 98.4434 70.9561 99.3594 70.9561 100.489C70.9561 101.619 71.8721 102.535 73.0021 102.535Z" fill="#264164" stroke="#264164" stroke-width="2.046" stroke-miterlimit="10"/>
<path d="M85.2081 96.4211C86.3381 96.4211 87.2541 95.5051 87.2541 94.3751C87.2541 93.2451 86.3381 92.3291 85.2081 92.3291C84.0781 92.3291 83.1621 93.2451 83.1621 94.3751C83.1621 95.5051 84.0781 96.4211 85.2081 96.4211Z" fill="#264164" stroke="#264164" stroke-width="2.046" stroke-miterlimit="10"/>
<path d="M77.0704 96.4211C78.2004 96.4211 79.1164 95.5051 79.1164 94.3751C79.1164 93.2451 78.2004 92.3291 77.0704 92.3291C75.9405 92.3291 75.0244 93.2451 75.0244 94.3751C75.0244 95.5051 75.9405 96.4211 77.0704 96.4211Z" fill="#264164" stroke="#264164" stroke-width="2.046" stroke-miterlimit="10"/>
</svg>
