<svg width="101" height="99" viewBox="0 0 101 99" fill="none" xmlns="http://www.w3.org/2000/svg">
<path d="M93.8625 96.6359C86.03 91.7545 69.0338 88.3818 49.3083 88.3818C29.5829 88.3818 13.9401 91.4882 5.73047 96.059" stroke="#264164" stroke-width="4.43767" stroke-linecap="round" stroke-linejoin="round"/>
<path d="M68.3433 87.9817L68.3877 48.3312C65.237 41.3862 67.5224 26.054 71.3166 19.0869" stroke="#264164" stroke-width="4.43767" stroke-linecap="round" stroke-linejoin="round"/>
<path d="M68.8555 49.2845C76.3107 47.0435 82.3016 44.8469 84.5648 38.3457" stroke="#264164" stroke-width="4.43767" stroke-linecap="round" stroke-linejoin="round"/>
<path d="M60.2025 86.9612C60.2469 79.8831 61.1122 60.2243 59.7365 59.3589C55.0548 56.4079 51.9706 57.8501 47.9102 49.8623" stroke="#264164" stroke-width="4.43767" stroke-linecap="round" stroke-linejoin="round"/>
<path d="M52.9003 71.2513C33.663 70.2972 31.2001 40.4761 46.7541 31.8448C46.0441 29.4263 45.7778 26.7637 45.9775 23.9902C46.8429 12.4079 56.0067 3 66.4574 3C76.0205 3 83.3427 10.899 83.8086 21.1279C99.6733 23.6351 107.373 59.8243 79.4153 54.6988" stroke="#264164" stroke-width="4.43767" stroke-linecap="round" stroke-linejoin="round"/>
<path d="M38.9451 23.4348C35.1287 19.5074 31.9336 13.8938 30.4026 9.7002C26.9412 21.0606 20.8172 27.828 12.6741 31.245C16.0024 33.1976 19.3972 34.6399 22.8142 35.5274C18.9312 42.6942 14.7154 47.5091 7.85925 50.2826C11.2541 52.3905 15.0261 53.8993 18.9978 54.8534C14.5601 61.5987 11.01 66.1473 3 68.8321C13.5395 75.3333 27.6956 77.663 41.5855 74.8673" stroke="#264164" stroke-width="4.43767" stroke-linecap="round" stroke-linejoin="round"/>
<path d="M27.7627 82.2559V88.402" stroke="#264164" stroke-width="4.43767" stroke-linecap="round" stroke-linejoin="round"/>
<path d="M88.4937 56.5186C89.115 59.0036 89.4034 61.7328 88.6934 64.3732C87.0071 70.586 81.2159 73.4482 75.9795 73.1598" stroke="#264164" stroke-width="4.43767" stroke-linecap="round" stroke-linejoin="round"/>
<path d="M35.6152 81.7012V87.2483" stroke="#264164" stroke-width="4.43767" stroke-linecap="round" stroke-linejoin="round"/>
<path d="M65.6814 33.5752C62.7969 31.2233 60.8665 29.0266 60.334 24.833" stroke="#264164" stroke-width="4.43767" stroke-linecap="round" stroke-linejoin="round"/>
</svg>
