<svg width="125" height="123" viewBox="0 0 125 123" fill="none" xmlns="http://www.w3.org/2000/svg">
<ellipse cx="62.5" cy="61.5" rx="62.5" ry="61.5" fill="#E8F4F9"/>
<path d="M29 86.0145C30.5475 84.9972 35.8632 84.1661 37.6829 84.9399C39.5026 85.7136 58.3443 92.1613 60.164 92.935C61.8117 93.6371 74.7645 88.4216 76.4696 87.6192C78.103 86.8455 86.2128 81.5441 88.9495 78.922C88.5913 77.4032 86.6713 75.4402 83.648 74.9101C80.768 74.3942 78.4182 75.6265 75.18 78.3059L66.8696 78.9363" stroke="#264164" stroke-width="2.86565" stroke-linejoin="round"/>
<path d="M49.1455 77.7045C49.1455 77.7045 59.5335 82.1462 61.0093 82.7767C66.9412 85.3128 70.1078 77.8907 64.1759 75.3546C62.6858 74.7242 60.4649 73.7642 56.3383 72.0018C55.1061 71.4717 54.0458 67.5171 52.0972 66.686C51.2231 66.3135 46.6811 64.3792 44.6751 63.5195C42.6692 62.6598 39.4883 63.2329 37.468 63.9493C34.3015 65.2245 29 67.3881 29 67.3881" stroke="#264164" stroke-width="2.86565" stroke-linejoin="round"/>
<path d="M94.9098 44.434L83.4472 37.2842C78.4896 34.1463 73.1738 33 61.9548 33H54.7907C52.4122 33 50.4922 34.92 50.4922 37.2985V43.0298H66.2533" stroke="#264164" stroke-width="2.86565" stroke-miterlimit="10"/>
<path d="M66.2539 43.0293H70.5524C72.9739 43.0293 74.5213 43.7027 76.6419 44.892L94.9104 55.9247" stroke="#264164" stroke-width="2.86565" stroke-miterlimit="10"/>
<path d="M51.9258 43.0293V48.7606H69.1197V43.0293" stroke="#264164" stroke-width="2.86565" stroke-miterlimit="10"/>
<path d="M60.5236 56.1263C61.22 56.1263 61.7845 55.5618 61.7845 54.8654C61.7845 54.169 61.22 53.6045 60.5236 53.6045C59.8272 53.6045 59.2627 54.169 59.2627 54.8654C59.2627 55.5618 59.8272 56.1263 60.5236 56.1263Z" fill="#264164" stroke="#264164" stroke-width="1.26089" stroke-miterlimit="10"/>
<path d="M60.5236 63.6478C61.22 63.6478 61.7845 63.0832 61.7845 62.3869C61.7845 61.6905 61.22 61.126 60.5236 61.126C59.8272 61.126 59.2627 61.6905 59.2627 62.3869C59.2627 63.0832 59.8272 63.6478 60.5236 63.6478Z" fill="#264164" stroke="#264164" stroke-width="1.26089" stroke-miterlimit="10"/>
<path d="M65.5392 63.6478C66.2356 63.6478 66.8001 63.0832 66.8001 62.3869C66.8001 61.6905 66.2356 61.126 65.5392 61.126C64.8428 61.126 64.2783 61.6905 64.2783 62.3869C64.2783 63.0832 64.8428 63.6478 65.5392 63.6478Z" fill="#264164" stroke="#264164" stroke-width="1.26089" stroke-miterlimit="10"/>
<path d="M55.5089 63.6478C56.2053 63.6478 56.7698 63.0832 56.7698 62.3869C56.7698 61.6905 56.2053 61.126 55.5089 61.126C54.8126 61.126 54.248 61.6905 54.248 62.3869C54.248 63.0832 54.8126 63.6478 55.5089 63.6478Z" fill="#264164" stroke="#264164" stroke-width="1.26089" stroke-miterlimit="10"/>
<path d="M63.0324 59.8802C63.7287 59.8802 64.2933 59.3157 64.2933 58.6193C64.2933 57.9229 63.7287 57.3584 63.0324 57.3584C62.336 57.3584 61.7715 57.9229 61.7715 58.6193C61.7715 59.3157 62.336 59.8802 63.0324 59.8802Z" fill="#264164" stroke="#264164" stroke-width="1.26089" stroke-miterlimit="10"/>
<path d="M58.0168 59.8802C58.7131 59.8802 59.2776 59.3157 59.2776 58.6193C59.2776 57.9229 58.7131 57.3584 58.0168 57.3584C57.3204 57.3584 56.7559 57.9229 56.7559 58.6193C56.7559 59.3157 57.3204 59.8802 58.0168 59.8802Z" fill="#264164" stroke="#264164" stroke-width="1.26089" stroke-miterlimit="10"/>
</svg>
