<svg width="98" height="91" viewBox="0 0 98 91" fill="none" xmlns="http://www.w3.org/2000/svg">
<path d="M2 78.6084C4.20693 77.1575 11.7881 75.9723 14.3833 77.0758C16.9785 78.1793 43.8499 87.3748 46.4451 88.4783C48.795 89.4795 67.2678 82.0414 69.6995 80.897C72.0291 79.7936 83.595 72.2328 87.498 68.4933C86.9872 66.3272 84.2489 63.5277 79.9372 62.7716C75.8299 62.036 72.4786 63.7934 67.8604 67.6146L56.0084 68.5137" stroke="#264164" stroke-width="4.0869" stroke-linejoin="round"/>
<path d="M30.7309 66.7558C30.7309 66.7558 45.5459 73.0905 47.6507 73.9896C56.1106 77.6065 60.6266 67.0215 52.1667 63.4046C50.0415 62.5054 46.8742 61.1363 40.989 58.6229C39.2317 57.8668 37.7195 52.2269 34.9404 51.0417C33.6939 50.5104 27.2162 47.7517 24.3553 46.5256C21.4945 45.2996 16.9581 46.117 14.0768 47.1387C9.56076 48.9574 2 52.043 2 52.043" stroke="#264164" stroke-width="4.0869" stroke-linejoin="round"/>
<path d="M95.9993 19.3067L79.6517 9.10992C72.5814 4.63476 65.0002 3 49 3H38.7827C35.3906 3 32.6523 5.73823 32.6523 9.13036V17.3042H55.1303" stroke="#264164" stroke-width="4.0869" stroke-miterlimit="10"/>
<path d="M55.1309 17.3037H61.2612C64.7146 17.3037 66.9216 18.2641 69.9459 19.9602L95.9999 35.6948" stroke="#264164" stroke-width="4.0869" stroke-miterlimit="10"/>
<path d="M34.6963 17.3037V25.4775H59.2177V17.3037" stroke="#264164" stroke-width="4.0869" stroke-miterlimit="10"/>
<path d="M46.9584 35.9812C47.9515 35.9812 48.7566 35.1761 48.7566 34.183C48.7566 33.1899 47.9515 32.3848 46.9584 32.3848C45.9653 32.3848 45.1602 33.1899 45.1602 34.183C45.1602 35.1761 45.9653 35.9812 46.9584 35.9812Z" fill="#264164" stroke="#264164" stroke-width="1.79824" stroke-miterlimit="10"/>
<path d="M46.9584 46.7098C47.9515 46.7098 48.7566 45.9047 48.7566 44.9115C48.7566 43.9184 47.9515 43.1133 46.9584 43.1133C45.9653 43.1133 45.1602 43.9184 45.1602 44.9115C45.1602 45.9047 45.9653 46.7098 46.9584 46.7098Z" fill="#264164" stroke="#264164" stroke-width="1.79824" stroke-miterlimit="10"/>
<path d="M54.1117 46.7098C55.1049 46.7098 55.91 45.9047 55.91 44.9115C55.91 43.9184 55.1049 43.1133 54.1117 43.1133C53.1186 43.1133 52.3135 43.9184 52.3135 44.9115C52.3135 45.9047 53.1186 46.7098 54.1117 46.7098Z" fill="#264164" stroke="#264164" stroke-width="1.79824" stroke-miterlimit="10"/>
<path d="M39.807 46.7098C40.8002 46.7098 41.6053 45.9047 41.6053 44.9115C41.6053 43.9184 40.8002 43.1133 39.807 43.1133C38.8139 43.1133 38.0088 43.9184 38.0088 44.9115C38.0088 45.9047 38.8139 46.7098 39.807 46.7098Z" fill="#264164" stroke="#264164" stroke-width="1.79824" stroke-miterlimit="10"/>
<path d="M50.5356 41.3348C51.5287 41.3348 52.3338 40.5297 52.3338 39.5365C52.3338 38.5434 51.5287 37.7383 50.5356 37.7383C49.5424 37.7383 48.7373 38.5434 48.7373 39.5365C48.7373 40.5297 49.5424 41.3348 50.5356 41.3348Z" fill="#264164" stroke="#264164" stroke-width="1.79824" stroke-miterlimit="10"/>
<path d="M43.3822 41.3348C44.3754 41.3348 45.1805 40.5297 45.1805 39.5365C45.1805 38.5434 44.3754 37.7383 43.3822 37.7383C42.3891 37.7383 41.584 38.5434 41.584 39.5365C41.584 40.5297 42.3891 41.3348 43.3822 41.3348Z" fill="#264164" stroke="#264164" stroke-width="1.79824" stroke-miterlimit="10"/>
</svg>
