<svg width="59" height="85" viewBox="0 0 59 85" fill="none" xmlns="http://www.w3.org/2000/svg">
<path d="M34.7998 3V29.3331C34.7998 32.25 37.1645 34.5997 40.0999 34.5997H50.7C53.6355 34.5997 56.0001 32.25 56.0001 29.3331V3" stroke="#264164" stroke-width="5.27383" stroke-linecap="round" stroke-linejoin="round"/>
<path d="M50.6988 34.5986V76.7315C50.6988 79.6484 48.3341 81.9982 45.3987 81.9982C42.4633 81.9982 40.0986 79.6484 40.0986 76.7315V34.5986" stroke="#264164" stroke-width="5.27383" stroke-linecap="round" stroke-linejoin="round"/>
<path d="M45.4023 3V34.5997" stroke="#264164" stroke-width="5.27383" stroke-linecap="round" stroke-linejoin="round"/>
<path d="M18.899 33.1826V76.7335C18.899 79.6504 16.5343 82.0001 13.5989 82.0001C10.6635 82.0001 8.29883 79.6504 8.29883 76.7335V33.1826" stroke="#264164" stroke-width="5.27383" stroke-linecap="round" stroke-linejoin="round"/>
<path d="M3 18.7998C3 10.0694 7.7497 3 13.6002 3" stroke="#264164" stroke-width="5.27383" stroke-linecap="round" stroke-linejoin="round"/>
<path d="M24.1988 18.7998C24.1988 10.0694 19.4491 3 13.5986 3" stroke="#264164" stroke-width="5.27383" stroke-linecap="round" stroke-linejoin="round"/>
<path d="M3 24.0674C3 27.9768 5.14043 31.3799 8.30009 33.2029" stroke="#264164" stroke-width="5.27383" stroke-linecap="round" stroke-linejoin="round"/>
<path d="M24.2014 24.0674C24.2014 27.9768 22.061 31.3799 18.9014 33.2029" stroke="#264164" stroke-width="5.27383" stroke-linecap="round" stroke-linejoin="round"/>
<path d="M24.2012 18.7998V24.0664" stroke="#264164" stroke-width="5.27383" stroke-linecap="round" stroke-linejoin="round"/>
<path d="M3 18.7998V24.0664" stroke="#264164" stroke-width="5.27383" stroke-linecap="round" stroke-linejoin="round"/>
</svg>
