<svg width="133" height="132" viewBox="0 0 133 132" fill="none" xmlns="http://www.w3.org/2000/svg">
<ellipse cx="66.3211" cy="65.9407" rx="66.3211" ry="65.26" fill="#E8F4F9"/>
<path d="M71.5147 75.6565C82.3066 72.0309 88.1161 60.3431 84.4905 49.5512C80.8649 38.7593 69.1772 32.9498 58.3852 36.5754C47.5933 40.201 41.7838 51.8887 45.4094 62.6807C49.035 73.4726 60.7227 79.2821 71.5147 75.6565Z" stroke="#264164" stroke-width="3.12223" stroke-miterlimit="10" stroke-linecap="round"/>
<path d="M72.5541 89.6276L83.2336 107.882C84.0851 109.319 86.1606 109.319 86.9944 107.882L91.0036 100.981C91.3939 100.325 92.0858 99.899 92.8663 99.899L100.849 99.7926C102.517 99.7749 103.546 97.9476 102.694 96.5107L92.0148 78.2563" stroke="#264164" stroke-width="3.12223" stroke-miterlimit="10"/>
<path d="M99.1301 51.6115C101.968 74.1767 83.0045 93.1406 60.4393 90.3022C45.0765 88.3686 32.6586 75.9506 30.7249 60.5879C27.8866 38.0227 46.8505 19.0587 69.4157 21.8971C84.7785 23.8308 97.1964 36.2487 99.1301 51.6115Z" stroke="#264164" stroke-width="3.12223" stroke-miterlimit="10" stroke-linecap="round"/>
<path d="M39.1856 78.5938L28.311 96.7239C27.4595 98.1609 28.4529 99.9881 30.1205 100.024L38.1034 100.219C38.8663 100.236 39.5758 100.662 39.9484 101.319L43.8689 108.255C44.685 109.71 46.7783 109.727 47.6298 108.308L58.5044 90.1779" stroke="#264164" stroke-width="3.12223" stroke-miterlimit="10"/>
</svg>
