<svg width="134" height="132" viewBox="0 0 134 132" fill="none" xmlns="http://www.w3.org/2000/svg">
<ellipse cx="66.9634" cy="65.9407" rx="66.3211" ry="65.26" fill="#E8F4F9"/>
<path d="M24.0203 98.6975C26.2138 97.2554 33.7491 96.0774 36.3285 97.1742C38.908 98.2709 65.6165 107.411 68.196 108.508C70.5317 109.503 88.8926 102.11 91.3096 100.972C93.625 99.8755 105.121 92.3605 109 88.6437C108.492 86.4907 105.771 83.7082 101.485 82.9567C97.4028 82.2255 94.0718 83.9722 89.4816 87.7703L77.7014 88.664" stroke="#264164" stroke-width="4.06214" stroke-linejoin="round"/>
<path d="M52.557 86.9371C52.557 86.9371 67.2823 93.2334 69.3743 94.1271C77.7829 97.7221 82.2716 87.2011 73.8629 83.6062C71.7506 82.7125 68.6025 81.3517 62.753 78.8535C61.0063 78.102 59.5033 72.4962 56.741 71.3182C55.5021 70.7901 49.0636 68.0482 46.2201 66.8295C43.3766 65.6109 38.8676 66.4233 36.0038 67.4389C31.5151 69.2465 24.0002 72.3134 24.0002 72.3134" stroke="#264164" stroke-width="4.06214" stroke-linejoin="round"/>
<mask id="mask0_1726_10009" style="mask-type:luminance" maskUnits="userSpaceOnUse" x="60" y="21" width="37" height="50">
<path d="M96.025 21.9219H60.725V70.2207H96.025V21.9219Z" fill="white"/>
</mask>
<g mask="url(#mask0_1726_10009)">
<path d="M78.3742 63.3763C73.7434 63.3763 69.7828 60.1672 68.1579 55.6582H60.907C62.8162 64.0059 69.925 70.221 78.3742 70.221C86.8235 70.221 93.9322 64.0059 95.8414 55.6582H88.5905C86.9656 60.1672 83.0051 63.3763 78.3742 63.3763Z" fill="#264164"/>
<path d="M78.375 32.8896C82.5387 38.3329 87.3117 45.5838 88.835 50.499H96.025C93.9533 40.7702 82.5184 26.8574 81.0763 25.1513L78.375 21.9219L75.6736 25.1513C74.2519 26.8574 62.7967 40.7702 60.725 50.499H67.915C69.4586 45.5838 74.2316 38.3329 78.375 32.8896Z" fill="#264164"/>
</g>
</svg>
