<svg width="134" height="132" viewBox="0 0 134 132" fill="none" xmlns="http://www.w3.org/2000/svg">
<ellipse cx="66.9634" cy="65.9407" rx="66.3211" ry="65.26" fill="#E8F4F9"/>
<path d="M52.539 43.2685V40.6402C52.539 35.853 56.4188 31.9731 61.2061 31.9731H72.4701V37.6208C72.4701 37.6208 67.4013 43.2685 67.417 43.2685H52.539Z" stroke="#264164" stroke-width="2.67522" stroke-linecap="round" stroke-linejoin="round"/>
<path d="M63.2556 43.2681H56.0591V50.9339H63.2556V43.2681Z" stroke="#264164" stroke-width="2.67522" stroke-linecap="round" stroke-linejoin="round"/>
<path d="M50.365 64.8895C52.3519 62.1986 53.4157 58.9289 53.4157 55.581V50.9346H66.5102V61.6198C66.5102 64.3576 67.9025 66.9233 70.2023 68.4095C72.502 69.8958 73.8944 72.4614 73.8944 75.1992V103.876L46.0002 103.907V78.203C46.0002 73.4158 47.5333 68.7381 50.365 64.8895Z" stroke="#264164" stroke-width="2.67522" stroke-linecap="round" stroke-linejoin="round"/>
<path d="M78.1184 31.9731H72.4707V37.6208H78.1184V31.9731Z" stroke="#264164" stroke-width="2.67522" stroke-linecap="round" stroke-linejoin="round"/>
<path d="M72.6895 39.0757L79.8234 50.2146H75.6776L67.9492 43.2841" stroke="#264164" stroke-width="2.08072" stroke-linejoin="round"/>
<path d="M85.0482 34.8044C85.0482 35.5554 85.6584 36.1812 86.4249 36.1812C87.1915 36.1812 87.8016 35.571 87.8016 34.8044C87.8016 34.0379 87.1915 33.4277 86.4249 33.4277C85.6584 33.4277 85.0482 34.0379 85.0482 34.8044Z" fill="#264164" stroke="#264164" stroke-width="1.37672" stroke-miterlimit="10"/>
<path d="M94.6234 36.1812C95.3838 36.1812 96.0002 35.5648 96.0002 34.8044C96.0002 34.0441 95.3838 33.4277 94.6234 33.4277C93.8631 33.4277 93.2467 34.0441 93.2467 34.8044C93.2467 35.5648 93.8631 36.1812 94.6234 36.1812Z" fill="#264164" stroke="#264164" stroke-width="1.37672" stroke-miterlimit="10"/>
<path d="M94.6234 30.7056C95.3838 30.7056 96.0002 30.0892 96.0002 29.3289C96.0002 28.5685 95.3838 27.9521 94.6234 27.9521C93.8631 27.9521 93.2467 28.5685 93.2467 29.3289C93.2467 30.0892 93.8631 30.7056 94.6234 30.7056Z" fill="#264164" stroke="#264164" stroke-width="1.37672" stroke-miterlimit="10"/>
<path d="M94.6234 41.6573C95.3838 41.6573 96.0002 41.0409 96.0002 40.2805C96.0002 39.5202 95.3838 38.9038 94.6234 38.9038C93.8631 38.9038 93.2467 39.5202 93.2467 40.2805C93.2467 41.0409 93.8631 41.6573 94.6234 41.6573Z" fill="#264164" stroke="#264164" stroke-width="1.37672" stroke-miterlimit="10"/>
<path d="M90.5258 33.4434C91.2862 33.4434 91.9026 32.827 91.9026 32.0667C91.9026 31.3063 91.2862 30.6899 90.5258 30.6899C89.7655 30.6899 89.1491 31.3063 89.1491 32.0667C89.1491 32.827 89.7655 33.4434 90.5258 33.4434Z" fill="#264164" stroke="#264164" stroke-width="1.37672" stroke-miterlimit="10"/>
<path d="M90.5258 38.919C91.2862 38.919 91.9026 38.3026 91.9026 37.5422C91.9026 36.7819 91.2862 36.1655 90.5258 36.1655C89.7655 36.1655 89.1491 36.7819 89.1491 37.5422C89.1491 38.3026 89.7655 38.919 90.5258 38.919Z" fill="#264164" stroke="#264164" stroke-width="1.37672" stroke-miterlimit="10"/>
</svg>
