<svg width="133" height="132" viewBox="0 0 133 132" fill="none" xmlns="http://www.w3.org/2000/svg">
<ellipse cx="66.3211" cy="65.9407" rx="66.3211" ry="65.26" fill="#E8F4F9"/>
<path d="M50.0318 62.4246L44.9892 63.074L41.551 57.0763C37.8454 58.3943 34.4645 60.5718 31.7331 63.4752L35.8398 69.0526L33.2039 73.4077L26.3657 72.3571C25.0286 76.2537 24.7039 80.2267 25.2579 84.0278L32.1724 84.2952L33.9297 89.0705L28.8489 93.7693C30.9309 97.0547 33.796 99.8816 37.2724 101.925L41.7993 96.6918L46.6319 98.2963L47.1285 105.211C51.1588 105.65 55.1509 105.096 58.7992 103.683L57.5003 96.8828L61.7599 94.094L67.471 97.9906C70.1834 95.2592 72.2845 91.8783 73.5261 87.9626L67.4137 84.7155L67.8913 79.6537L74.5002 77.629C74.0418 73.6751 72.6283 69.9122 70.4317 66.6268L64.0902 69.3965L60.4419 65.8628L62.9823 59.4257C61.3396 58.4134 59.5632 57.5538 57.6531 56.9235C55.7239 56.2932 53.7756 55.9112 51.8464 55.7393L50.0509 62.4246H50.0318ZM57.9206 81.8121C56.9846 87.3323 51.0442 90.3311 46.0397 87.7716C42.9263 86.1862 41.1308 82.6143 41.7229 79.1762C42.6589 73.656 48.5993 70.6571 53.6037 73.2167C56.7172 74.802 58.5127 78.3739 57.9206 81.8121Z" stroke="#264164" stroke-width="3.34267" stroke-linecap="round" stroke-linejoin="round"/>
<path d="M88.9593 29.2833L84.8907 28.7103L83.4964 23.3047C80.3256 23.5339 77.2312 24.508 74.4807 26.1889L76.4863 31.4035L73.5066 34.2305L68.4066 31.9574C66.5347 34.6889 65.4268 37.7259 65.0448 40.8012L70.374 42.4821L70.7178 46.5697L65.7516 49.1292C66.6684 52.1472 68.292 54.955 70.565 57.2853L75.2065 54.1719L78.6256 56.4449L77.5369 61.9269C80.5739 63.1302 83.802 63.5696 86.9536 63.2448L87.4121 57.6674L91.3278 56.4067L94.9379 60.6662C97.6311 59.119 99.9996 56.9415 101.795 54.1528L97.7266 50.3135L99.1783 46.4742L104.775 46.3023C105.252 43.1315 104.966 39.8843 103.954 36.8664L98.4333 37.6686L96.3513 34.1349L99.7131 29.6653C98.6626 28.5193 97.4592 27.4878 96.103 26.5901C94.7469 25.6732 93.2952 24.9665 91.8244 24.4316L88.9975 29.2451L88.9593 29.2833ZM91.0604 45.8438C89.2076 50.218 83.6492 51.3258 80.2492 48.0023C78.3582 46.1495 77.7852 43.2079 78.8166 40.7821C80.6694 36.408 86.2278 35.3001 89.6278 38.6237C91.5188 40.4765 92.0918 43.418 91.0604 45.8438Z" stroke="#264164" stroke-width="3.34267" stroke-linecap="round" stroke-linejoin="round"/>
</svg>
