<svg width="134" height="132" viewBox="0 0 134 132" fill="none" xmlns="http://www.w3.org/2000/svg">
<ellipse cx="66.9634" cy="65.9407" rx="66.3211" ry="65.26" fill="#E8F4F9"/>
<path d="M41.0015 48.259C46.7499 41.0921 55.5592 36.5195 65.4509 36.5195" stroke="#264164" stroke-width="3.73274" stroke-linecap="round" stroke-linejoin="round"/>
<path d="M58.9183 98.4646C48.2053 96.1876 39.508 88.4422 35.9059 78.2705" stroke="#264164" stroke-width="3.73274" stroke-linecap="round" stroke-linejoin="round"/>
<path d="M93.9312 54.791C95.7602 58.7664 96.7681 63.171 96.7681 67.8369C96.7681 75.2464 94.1925 82.04 89.8998 87.4151" stroke="#264164" stroke-width="3.73274" stroke-linecap="round" stroke-linejoin="round"/>
<path d="M46.882 42.6222C44.941 30.7521 56.1019 23.0627 66.1616 25.3397C76.7253 27.7286 85.7212 36.5379 92.7201 44.302C90.8164 43.4061 87.2516 44.246 86.2065 44.4513C78.573 46.0004 75.0642 53.5592 67.7854 55.4255C60.2452 57.3479 49.6816 51.9728 46.9007 42.6222" stroke="#264164" stroke-width="3.73274" stroke-linecap="round" stroke-linejoin="round"/>
<path d="M96.7681 67.463C107.444 73.0247 107.145 86.7239 99.2691 93.3495C90.9824 100.311 78.5337 102.177 68.1194 103.055C69.9858 102.084 71.4602 98.7433 71.9454 97.7728C75.3236 90.7553 71.4229 83.3831 74.3344 76.4775C77.3579 69.3107 88.1829 64.8314 96.7868 67.4816" stroke="#264164" stroke-width="3.73274" stroke-linecap="round" stroke-linejoin="round"/>
<path d="M49.7737 94.9551C37.9036 99.957 28.0492 96.0189 25.7349 85.9592C23.3086 75.4142 27.34 63.4881 31.2967 53.8203C31.2967 55.9293 33.611 58.7662 34.2642 59.6247C38.9675 65.8397 47.3101 65.7277 52.144 71.4575C57.1459 77.4112 56.8099 89.7666 49.7737 94.9364" stroke="#264164" stroke-width="3.73274" stroke-linecap="round" stroke-linejoin="round"/>
</svg>
