<svg width="133" height="132" viewBox="0 0 133 132" fill="none" xmlns="http://www.w3.org/2000/svg">
<ellipse cx="66.3211" cy="65.9407" rx="66.3211" ry="65.26" fill="#E8F4F9"/>
<path d="M87.1102 24.7469C90.1564 31.1265 95.9996 35.916 103.05 37.5445C104.755 37.9276 106 39.4028 106 41.1653V50.9934C106 67.7566 99.5629 84.1175 87.3593 95.5932C81.3437 101.245 74.4659 105.383 66.7836 108.18C65.9598 108.487 65.0402 108.487 64.2164 108.18C56.5341 105.383 49.6372 101.245 43.6407 95.5932C31.4179 84.1175 25 67.7566 25 50.9934V41.1653C25 39.4028 26.2453 37.9468 27.9503 37.5445C35.0005 35.916 40.8437 31.1265 43.8898 24.7469C44.5029 23.4633 45.7864 22.6587 47.2041 22.6587H83.7959C85.2136 22.6587 86.5163 23.4633 87.1102 24.7469Z" stroke="#264164" stroke-width="3.8316" stroke-miterlimit="10"/>
<path d="M67.0704 95.0752C66.0934 95.535 64.9247 95.535 63.9477 95.0752C56.6485 91.6268 50.6137 86.5882 45.6135 79.7488C40.0576 72.1622 36.9924 62.6216 36.9924 52.8893V49.4409C36.9924 48.0806 37.7204 46.8162 38.9273 46.184C43.5827 43.7701 47.6634 40.36 50.8627 36.1835C51.5907 35.2448 52.6827 34.6509 53.8514 34.6509H77.1475C78.3353 34.6509 79.4273 35.2448 80.1361 36.1835C83.3355 40.36 87.4354 43.7701 92.0716 46.184C93.2786 46.8162 94.0066 48.0806 94.0066 49.4409V52.8893C94.0066 62.6407 90.9413 72.1814 85.3855 79.7488C80.3852 86.5882 74.3505 91.6268 67.0513 95.0752H67.0704Z" stroke="#264164" stroke-width="3.8316" stroke-miterlimit="10"/>
<path d="M57.493 74.9968V73.4259H68.528C70.265 73.4259 71.1335 72.5574 71.1335 70.8204V66.529C71.1335 64.792 70.265 63.9235 68.528 63.9235H60.3284V61.0115H68.528C70.265 61.0115 71.1335 60.143 71.1335 58.406V55.4174C71.1335 53.6804 70.265 52.8119 68.528 52.8119H57.8762V51.2409L59.6004 49.8999H68.4897C72.3979 49.8999 74.352 51.854 74.352 55.7622V58.5593C74.352 59.581 74.0327 60.4112 73.3941 61.0498L72.0531 62.3909L73.3941 63.7319C74.0327 64.3705 74.352 65.2007 74.352 66.2225V70.4755C74.352 74.3838 72.3979 76.3379 68.4897 76.3379H59.2172L57.493 74.9968Z" fill="#264164"/>
<path d="M57.493 74.9968H56.5351V75.4653L56.9049 75.753L57.493 74.9968ZM57.493 73.4259V72.468H56.5351V73.4259H57.493ZM60.3284 63.9235H59.3705V64.8814H60.3284V63.9235ZM60.3284 61.0115V60.0536H59.3705V61.0115H60.3284ZM57.8762 52.8119H56.9183V53.7698H57.8762V52.8119ZM57.8762 51.2409L57.2881 50.4848L56.9183 50.7724V51.2409H57.8762ZM59.6004 49.8999V48.942H59.2717L59.0123 49.1437L59.6004 49.8999ZM73.3941 61.0498L74.0715 61.7271L74.0715 61.7271L73.3941 61.0498ZM72.0531 62.3909L71.3757 61.7135L70.6984 62.3909L71.3757 63.0682L72.0531 62.3909ZM73.3941 63.7319L74.0715 63.0546L74.0715 63.0546L73.3941 63.7319ZM59.2172 76.3379L58.6291 77.094L58.8886 77.2958H59.2172V76.3379ZM58.4509 74.9968V73.4259H56.5351V74.9968H58.4509ZM57.493 74.3838H68.528V72.468H57.493V74.3838ZM68.528 74.3838C69.5442 74.3838 70.4822 74.1291 71.1595 73.4518C71.8367 72.7746 72.0914 71.8365 72.0914 70.8204H70.1756C70.1756 71.5412 69.996 71.9059 69.8048 72.0972C69.6135 72.2884 69.2489 72.468 68.528 72.468V74.3838ZM72.0914 70.8204V66.529H70.1756V70.8204H72.0914ZM72.0914 66.529C72.0914 65.5128 71.8367 64.5748 71.1595 63.8975C70.4822 63.2203 69.5442 62.9656 68.528 62.9656V64.8814C69.2489 64.8814 69.6135 65.061 69.8048 65.2522C69.996 65.4435 70.1756 65.8082 70.1756 66.529H72.0914ZM68.528 62.9656H60.3284V64.8814H68.528V62.9656ZM61.2863 63.9235V61.0115H59.3705V63.9235H61.2863ZM60.3284 61.9694H68.528V60.0536H60.3284V61.9694ZM68.528 61.9694C69.5442 61.9694 70.4822 61.7147 71.1595 61.0375C71.8367 60.3602 72.0914 59.4222 72.0914 58.406H70.1756C70.1756 59.1268 69.996 59.4915 69.8048 59.6828C69.6135 59.874 69.2489 60.0536 68.528 60.0536V61.9694ZM72.0914 58.406V55.4174H70.1756V58.406H72.0914ZM72.0914 55.4174C72.0914 54.4012 71.8367 53.4632 71.1595 52.7859C70.4822 52.1087 69.5442 51.854 68.528 51.854V53.7698C69.2489 53.7698 69.6135 53.9493 69.8048 54.1406C69.996 54.3318 70.1756 54.6965 70.1756 55.4174H72.0914ZM68.528 51.854H57.8762V53.7698H68.528V51.854ZM58.8341 52.8119V51.2409H56.9183V52.8119H58.8341ZM58.4643 51.997L60.1885 50.656L59.0123 49.1437L57.2881 50.4848L58.4643 51.997ZM59.6004 50.8578H68.4897V48.942H59.6004V50.8578ZM68.4897 50.8578C70.2962 50.8578 71.4751 51.3087 72.2091 52.0428C72.9432 52.7768 73.3941 53.9557 73.3941 55.7622H75.3099C75.3099 53.6604 74.7838 51.9082 73.5638 50.6881C72.3437 49.468 70.5915 48.942 68.4897 48.942V50.8578ZM73.3941 55.7622V58.5593H75.3099V55.7622H73.3941ZM73.3941 58.5593C73.3941 59.3634 73.1516 59.9377 72.7168 60.3725L74.0715 61.7271C74.9139 60.8847 75.3099 59.7987 75.3099 58.5593H73.3941ZM72.7168 60.3725L71.3757 61.7135L72.7304 63.0682L74.0715 61.7271L72.7168 60.3725ZM71.3757 63.0682L72.7168 64.4093L74.0715 63.0546L72.7304 61.7135L71.3757 63.0682ZM72.7168 64.4093C73.1516 64.844 73.3941 65.4184 73.3941 66.2225H75.3099C75.3099 64.983 74.9139 63.897 74.0715 63.0546L72.7168 64.4093ZM73.3941 66.2225V70.4755H75.3099V66.2225H73.3941ZM73.3941 70.4755C73.3941 72.282 72.9432 73.4609 72.2091 74.195C71.4751 74.929 70.2962 75.38 68.4897 75.38V77.2958C70.5915 77.2958 72.3437 76.7697 73.5638 75.5496C74.7838 74.3296 75.3099 72.5773 75.3099 70.4755H73.3941ZM68.4897 75.38H59.2172V77.2958H68.4897V75.38ZM59.8053 75.5818L58.0811 74.2407L56.9049 75.753L58.6291 77.094L59.8053 75.5818Z" fill="#264164"/>
</svg>
