<svg width="33" height="32" viewBox="0 0 33 32" fill="none" xmlns="http://www.w3.org/2000/svg">
<path d="M9.43456 8.16089C8.69762 3.65425 12.935 0.734848 16.7543 1.59933C20.7649 2.50633 24.1804 5.85088 26.8376 8.79863C26.1148 8.4585 24.7614 8.77737 24.3646 8.85531C21.4665 9.44344 20.1343 12.3132 17.3708 13.0218C14.5081 13.7517 10.4974 11.7109 9.44164 8.16089" stroke="#F6F6F6" stroke-width="1.41718" stroke-linecap="round" stroke-linejoin="round"/>
<path d="M28.3748 17.592C32.428 19.7036 32.3146 24.9046 29.3243 27.4201C26.1782 30.0632 21.4519 30.7718 17.4979 31.1048C18.2065 30.7364 18.7663 29.468 18.9505 29.0995C20.2331 26.4352 18.7521 23.6363 19.8575 21.0145C21.0055 18.2935 25.1153 16.5929 28.3819 17.5991" stroke="#F6F6F6" stroke-width="1.41718" stroke-linecap="round" stroke-linejoin="round"/>
<path d="M10.5326 28.0297C6.02592 29.9288 2.28455 28.4336 1.40589 24.6143C0.484725 20.6108 2.01528 16.0829 3.5175 12.4124C3.5175 13.2131 4.39616 14.2901 4.64417 14.6161C6.42982 16.9757 9.59723 16.9332 11.4325 19.1085C13.3315 21.369 13.204 26.0598 10.5326 28.0226" stroke="#F6F6F6" stroke-width="1.41718" stroke-linecap="round" stroke-linejoin="round"/>
</svg>
