<svg width="63" height="64" viewBox="0 0 63 64" fill="none" xmlns="http://www.w3.org/2000/svg">
<path d="M31.4754 63.0081C21.4099 63.008 11.3444 63.0082 1.27889 63.0075C0.478982 63.0074 -0.00105783 62.5908 1.75045e-06 61.9069C0.000861477 61.349 0.373354 60.9162 0.927228 60.8336C1.01255 60.8209 1.09993 60.821 1.18645 60.8177C1.88478 60.7903 2.23288 60.4156 2.23075 59.6936C2.22763 53.6472 2.2241 47.6009 2.22424 41.5546C2.22437 36.1344 2.23049 30.7142 2.2314 25.2941C2.23265 17.8817 2.23149 10.4694 2.23128 3.05709C2.23126 2.47081 2.22443 1.88446 2.23164 1.29827C2.24234 0.428442 2.64534 0.00471569 3.49728 0.0051059C10.8945 0.00848769 18.2917 0.0217071 25.689 0.0241848C29.309 0.0253966 32.929 0.010018 36.549 0.00232807C36.705 0.00199814 36.8614 -0.00434608 37.0167 0.00542496C37.8439 0.0574652 38.1908 0.406915 38.2349 1.23247C38.2441 1.40527 38.2396 1.57885 38.2396 1.75208C38.2401 7.72923 38.2468 13.7064 38.2288 19.6835C38.2273 20.174 38.3713 20.2824 38.8372 20.2814C45.5419 20.2674 52.2467 20.2718 58.9515 20.2718C59.1075 20.2718 59.2634 20.2706 59.4193 20.2724C60.3731 20.2833 60.76 20.6733 60.7657 21.6418C60.7707 22.4889 60.7668 23.3361 60.7668 24.1832C60.7671 29.5713 60.7676 34.9593 60.7676 40.3473C60.7676 46.8944 60.7673 53.4415 60.7666 59.9886C60.7666 60.5366 61.0449 60.8125 61.6016 60.8162C62.5122 60.8222 62.9958 61.1998 63 61.9079C63.0035 62.5039 62.5779 62.9656 61.9825 63.0049C61.8272 63.0151 61.6707 63.0082 61.5148 63.0082C54.2556 63.0083 46.9964 63.0083 39.7372 63.0083C36.9833 63.0083 34.2293 63.0083 31.4754 63.0081ZM4.45491 31.5116C4.45491 40.3821 4.4549 49.2527 4.45493 58.1233C4.45493 58.8682 4.47311 59.6138 4.44789 60.358C4.43522 60.7315 4.57369 60.8274 4.92707 60.8223C6.1396 60.8047 7.35273 60.804 8.56522 60.8229C8.91685 60.8284 8.99543 60.7081 8.99392 60.373C8.98214 57.7771 8.99151 55.1811 8.99158 52.5851C8.99162 51.2373 8.9874 49.8895 8.98254 48.5417C8.97981 47.7824 9.4353 47.3151 10.2045 47.3062C10.429 47.3036 10.6538 47.3361 10.8784 47.3352C13.5101 47.3254 16.1418 47.3092 18.7736 47.3016C19.8585 47.2985 20.2333 47.692 20.2319 48.7764C20.2269 52.5706 20.2358 56.3649 20.2135 60.159C20.2105 60.6681 20.323 60.8317 20.8659 60.8292C25.7155 60.8065 30.5654 60.8074 35.4151 60.8299C35.9436 60.8323 36.0239 60.6582 36.0233 60.1826C36.01 49.4451 36.013 38.7077 36.0136 27.9703C36.0137 27.4882 36.0238 27.0061 36.0237 26.524C36.023 18.6584 36.0207 10.7927 36.0208 2.92705C36.0208 2.19543 36.0271 2.19532 35.3056 2.19532C25.2229 2.19531 15.1402 2.19809 5.05746 2.18629C4.60647 2.18576 4.44153 2.26679 4.44239 2.76934C4.45886 12.3501 4.45455 21.9308 4.45491 31.5116ZM58.5438 41.6996C58.5438 35.6713 58.5438 29.643 58.5438 23.6146C58.5438 22.8562 58.1663 22.4769 57.4114 22.4769C51.2117 22.4764 45.0119 22.4807 38.8122 22.4651C38.3635 22.464 38.2139 22.562 38.2286 23.0328C38.2648 24.191 38.2588 25.3515 38.2334 26.5102C38.2246 26.9133 38.3298 27.0435 38.7477 27.0376C40.3757 27.0145 42.0042 27.0251 43.6325 27.0313C44.6091 27.0351 44.9956 27.4204 44.9965 28.3822C44.9984 30.4782 44.9969 32.5743 44.9935 34.6703C44.9921 35.5952 44.5984 35.9795 43.6573 35.9803C42.0116 35.9816 40.3658 35.9932 38.7204 35.9709C38.3268 35.9656 38.2235 36.0822 38.2312 36.4662C38.2549 37.6607 38.2548 38.8562 38.2313 40.0507C38.2237 40.4398 38.3404 40.5568 38.7296 40.5523C40.3722 40.5333 42.0152 40.541 43.658 40.5458C44.5897 40.5484 44.996 40.9516 44.9967 41.8639C44.9985 43.9773 44.9987 46.0907 44.996 48.2041C44.9949 49.0869 44.5829 49.4921 43.69 49.4934C42.027 49.4958 40.364 49.5012 38.7011 49.4896C38.387 49.4874 38.2319 49.539 38.2331 49.9074C38.2449 53.4065 38.2438 56.9058 38.2346 60.4049C38.2338 60.7229 38.3351 60.8249 38.6497 60.8207C39.7377 60.8064 40.8261 60.8157 41.9143 60.8157C47.2497 60.8158 52.5851 60.8097 57.9205 60.8262C58.4093 60.8277 58.558 60.7139 58.5564 60.2003C58.537 54.0334 58.5438 47.8665 58.5438 41.6996ZM18.0035 55.1605C18.0021 55.1605 18.0007 55.1605 17.9993 55.1605C17.9993 53.4139 17.9938 51.6672 18.0047 49.9206C18.0065 49.6305 17.968 49.487 17.6209 49.4882C15.614 49.4948 13.607 49.4832 11.6001 49.4631C11.2848 49.4599 11.1753 49.5562 11.1844 49.8765C11.2094 50.7579 11.2118 51.64 11.2127 52.5219C11.2154 55.1169 11.219 57.712 11.2058 60.3069C11.2039 60.6656 11.2576 60.83 11.6773 60.8253C13.6324 60.8034 15.5881 60.8074 17.5434 60.8236C17.9099 60.8267 18.0132 60.7077 18.0101 60.3518C17.9953 58.6215 18.0035 56.891 18.0035 55.1605ZM42.7716 45.0415C42.7716 44.402 42.7591 43.7621 42.7773 43.123C42.7855 42.8336 42.6952 42.7289 42.3993 42.7317C41.1376 42.7439 39.8756 42.745 38.6139 42.7326C38.3119 42.7296 38.2322 42.8433 38.2349 43.1287C38.2466 44.3904 38.2472 45.6524 38.2346 46.9141C38.2316 47.2085 38.3301 47.3066 38.6224 47.304C39.8841 47.2929 41.1461 47.291 42.4077 47.3054C42.7162 47.3088 42.7856 47.1904 42.7775 46.9082C42.7597 46.2864 42.772 45.6638 42.7716 45.0415ZM42.77 31.5632C42.77 30.9222 42.7585 30.2809 42.775 29.6403C42.7829 29.3367 42.7005 29.2121 42.3695 29.2166C41.1224 29.2336 39.8749 29.2296 38.6276 29.2179C38.3425 29.2152 38.2318 29.2956 38.235 29.5975C38.2488 30.862 38.2514 32.1269 38.2339 33.3913C38.2293 33.7266 38.36 33.796 38.661 33.7929C39.8736 33.7804 41.0865 33.7774 42.2989 33.7947C42.6515 33.7997 42.7959 33.7051 42.7782 33.3298C42.7505 32.7421 42.7708 32.1521 42.77 31.5632Z" fill="#F6F6F6"/>
<path d="M26.9702 15.709C26.5686 15.7088 26.1669 15.7089 25.7653 15.7089C25.0938 15.709 24.4222 15.7091 23.7506 15.7082C22.9755 15.7072 22.5131 15.3192 22.5063 14.5656C22.4861 12.3329 22.4885 10.0998 22.5066 7.86709C22.5119 7.21116 22.976 6.7711 23.6373 6.7673C25.8701 6.75447 28.103 6.75327 30.3358 6.76628C31.037 6.77036 31.4755 7.21123 31.4795 7.91205C31.4922 10.1449 31.4929 12.3779 31.479 14.6107C31.4749 15.2682 31.0113 15.7002 30.3455 15.7065C29.5403 15.7141 28.7351 15.7123 27.9298 15.7105C27.6099 15.7098 27.2901 15.7091 26.9702 15.709ZM26.9914 13.5157V13.5141C27.1694 13.5141 27.3474 13.5131 27.5254 13.512C27.953 13.5094 28.3806 13.5069 28.8078 13.5191C29.1321 13.5284 29.2657 13.4408 29.2603 13.0835C29.2417 11.8555 29.2486 10.6269 29.2658 9.39882C29.2705 9.06932 29.1792 8.94093 28.8292 8.94619C27.6012 8.96466 26.3727 8.96343 25.1446 8.94885C24.8357 8.94518 24.7164 9.0249 24.7205 9.35213C24.7357 10.5976 24.7377 11.8435 24.7188 13.0888C24.7133 13.4447 24.8501 13.5315 25.1751 13.5212C25.6022 13.5077 26.0298 13.5106 26.4574 13.5134C26.6354 13.5146 26.8134 13.5157 26.9914 13.5157Z" fill="#F6F6F6"/>
<path d="M26.9702 15.709C26.5686 15.7088 26.1669 15.7089 25.7653 15.7089C25.0938 15.709 24.4222 15.7091 23.7506 15.7082C22.9755 15.7072 22.5131 15.3192 22.5063 14.5656C22.4861 12.3329 22.4885 10.0998 22.5066 7.86709C22.5119 7.21116 22.976 6.7711 23.6373 6.7673C25.8701 6.75447 28.103 6.75327 30.3358 6.76628C31.037 6.77036 31.4755 7.21123 31.4795 7.91205C31.4922 10.1449 31.4929 12.3779 31.479 14.6107C31.4749 15.2682 31.0113 15.7002 30.3455 15.7065C29.5403 15.7141 28.7351 15.7123 27.9298 15.7105C27.6099 15.7098 27.2901 15.7091 26.9702 15.709ZM26.9914 13.5157V13.5141C27.1694 13.5141 27.3474 13.5131 27.5254 13.512C27.953 13.5094 28.3806 13.5069 28.8078 13.5191C29.1321 13.5284 29.2657 13.4408 29.2603 13.0835C29.2417 11.8555 29.2486 10.6269 29.2658 9.39882C29.2705 9.06932 29.1792 8.94093 28.8292 8.94619C27.6012 8.96466 26.3727 8.96343 25.1446 8.94885C24.8357 8.94518 24.7164 9.0249 24.7205 9.35213C24.7357 10.5976 24.7377 11.8435 24.7188 13.0888C24.7133 13.4447 24.8501 13.5315 25.1751 13.5212C25.6022 13.5077 26.0298 13.5106 26.4574 13.5134C26.6354 13.5146 26.8134 13.5157 26.9914 13.5157Z" stroke="#F6F6F6"/>
<path d="M13.4533 42.7386C13.1312 42.7386 12.809 42.7388 12.4869 42.7391C11.736 42.7398 10.9851 42.7405 10.2341 42.7375C9.44475 42.7344 8.99097 42.3246 8.98659 41.5392C8.97433 39.3413 8.9801 37.1432 8.99837 34.9454C9.00448 34.2109 9.42968 33.7977 10.1777 33.7938C12.3929 33.7823 14.6082 33.7853 16.8234 33.7976C17.5169 33.8015 17.9593 34.2459 17.9626 34.9377C17.9729 37.1529 17.9749 39.3683 17.9624 41.5836C17.9584 42.3023 17.4991 42.7305 16.7762 42.735C15.9987 42.7397 15.221 42.7387 14.4434 42.7376C14.1134 42.7372 13.7833 42.7367 13.4533 42.7367V42.7386ZM11.2118 38.2551C11.2118 38.4366 11.2129 38.6182 11.214 38.7998C11.2165 39.2404 11.2191 39.6811 11.2065 40.1212C11.1978 40.4269 11.2874 40.5531 11.6125 40.5495C12.8566 40.5359 14.1009 40.5389 15.345 40.5483C15.6276 40.5505 15.7508 40.4619 15.7484 40.1632C15.7383 38.9018 15.7358 37.6402 15.7489 36.3789C15.7524 36.0455 15.6091 35.9814 15.3113 35.9847C14.1018 35.9982 12.8917 36.0079 11.6827 35.9805C11.2703 35.9712 11.1886 36.1264 11.2048 36.4928C11.223 36.9044 11.2191 37.3169 11.2151 37.7295C11.2135 37.9047 11.2118 38.0799 11.2118 38.2551Z" fill="#F6F6F6"/>
<path d="M13.4533 42.7386C13.1312 42.7386 12.809 42.7388 12.4869 42.7391C11.736 42.7398 10.9851 42.7405 10.2341 42.7375C9.44475 42.7344 8.99097 42.3246 8.98659 41.5392C8.97433 39.3413 8.9801 37.1432 8.99837 34.9454C9.00448 34.2109 9.42968 33.7977 10.1777 33.7938C12.3929 33.7823 14.6082 33.7853 16.8234 33.7976C17.5169 33.8015 17.9593 34.2459 17.9626 34.9377C17.9729 37.1529 17.9749 39.3683 17.9624 41.5836C17.9584 42.3023 17.4991 42.7305 16.7762 42.735C15.9987 42.7397 15.221 42.7387 14.4434 42.7376C14.1134 42.7372 13.7833 42.7367 13.4533 42.7367V42.7386ZM11.2118 38.2551C11.2118 38.4366 11.2129 38.6182 11.214 38.7998C11.2165 39.2404 11.2191 39.6811 11.2065 40.1212C11.1978 40.4269 11.2874 40.5531 11.6125 40.5495C12.8566 40.5359 14.1009 40.5389 15.345 40.5483C15.6276 40.5505 15.7508 40.4619 15.7484 40.1632C15.7383 38.9018 15.7358 37.6402 15.7489 36.3789C15.7524 36.0455 15.6091 35.9814 15.3113 35.9847C14.1018 35.9982 12.8917 36.0079 11.6827 35.9805C11.2703 35.9712 11.1886 36.1264 11.2048 36.4928C11.223 36.9044 11.2191 37.3169 11.2151 37.7295C11.2135 37.9047 11.2118 38.0799 11.2118 38.2551Z" stroke="#F6F6F6"/>
<path d="M13.455 29.2257C13.1327 29.2257 12.8104 29.2259 12.4881 29.2261C11.7374 29.2265 10.9867 29.227 10.2361 29.225C9.44409 29.2229 8.9961 28.8149 8.991 28.0262C8.97691 25.8457 8.97577 23.665 8.99177 21.4846C8.9976 20.6906 9.43625 20.2813 10.2326 20.2784C12.3786 20.2704 14.5245 20.2678 16.6704 20.275C17.5691 20.278 17.9669 20.6876 17.9685 21.5825C17.9721 23.7111 17.9727 25.8398 17.9692 27.9684C17.9678 28.7879 17.539 29.2183 16.7258 29.2218C15.9629 29.2251 15.2 29.2243 14.4371 29.2236C14.1097 29.2233 13.7824 29.2229 13.455 29.2229V29.2257ZM11.2126 24.717H11.2151C11.2151 24.902 11.216 25.087 11.217 25.272C11.2194 25.7265 11.2218 26.1809 11.2097 26.635C11.2021 26.9203 11.2832 27.0366 11.5856 27.0337C12.847 27.0218 14.1088 27.0206 15.3701 27.0351C15.6717 27.0386 15.7641 26.9206 15.7619 26.6435C15.752 25.3648 15.7436 24.0861 15.7496 22.8074C15.7509 22.5236 15.6287 22.4609 15.3754 22.4625C14.1139 22.4706 12.8522 22.4724 11.5908 22.4616C11.2999 22.4591 11.197 22.5536 11.2065 22.8507C11.2207 23.2913 11.2178 23.7324 11.2149 24.1736C11.2138 24.3547 11.2126 24.5359 11.2126 24.717Z" fill="#F6F6F6"/>
<path d="M13.455 29.2257C13.1327 29.2257 12.8104 29.2259 12.4881 29.2261C11.7374 29.2265 10.9867 29.227 10.2361 29.225C9.44409 29.2229 8.9961 28.8149 8.991 28.0262C8.97691 25.8457 8.97577 23.665 8.99177 21.4846C8.9976 20.6906 9.43625 20.2813 10.2326 20.2784C12.3786 20.2704 14.5245 20.2678 16.6704 20.275C17.5691 20.278 17.9669 20.6876 17.9685 21.5825C17.9721 23.7111 17.9727 25.8398 17.9692 27.9684C17.9678 28.7879 17.539 29.2183 16.7258 29.2218C15.9629 29.2251 15.2 29.2243 14.4371 29.2236C14.1097 29.2233 13.7824 29.2229 13.455 29.2229V29.2257ZM11.2126 24.717H11.2151C11.2151 24.902 11.216 25.087 11.217 25.272C11.2194 25.7265 11.2218 26.1809 11.2097 26.635C11.2021 26.9203 11.2832 27.0366 11.5856 27.0337C12.847 27.0218 14.1088 27.0206 15.3701 27.0351C15.6717 27.0386 15.7641 26.9206 15.7619 26.6435C15.752 25.3648 15.7436 24.0861 15.7496 22.8074C15.7509 22.5236 15.6287 22.4609 15.3754 22.4625C14.1139 22.4706 12.8522 22.4724 11.5908 22.4616C11.2999 22.4591 11.197 22.5536 11.2065 22.8507C11.2207 23.2913 11.2178 23.7324 11.2149 24.1736C11.2138 24.3547 11.2126 24.5359 11.2126 24.717Z" stroke="#F6F6F6"/>
<path d="M26.9805 29.2247C26.6574 29.2247 26.3343 29.2248 26.0112 29.225C25.2608 29.2254 24.5104 29.2258 23.76 29.224C22.9393 29.2221 22.5116 28.8143 22.507 27.9852C22.4952 25.841 22.4939 23.6966 22.5006 21.5524C22.5033 20.695 22.9217 20.2788 23.7798 20.2758C25.9441 20.2682 28.1084 20.2683 30.2727 20.2767C31.0521 20.2797 31.4812 20.7267 31.4828 21.5165C31.4871 23.6635 31.4875 25.8105 31.4825 27.9575C31.4805 28.8144 31.0624 29.2196 30.1977 29.2216C29.4486 29.2233 28.6996 29.2229 27.9506 29.2225C27.6272 29.2224 27.3038 29.2222 26.9805 29.2222V29.2247ZM24.7248 24.7146L24.7266 24.7146C24.7266 24.8997 24.7274 25.0848 24.7281 25.27C24.73 25.7254 24.7318 26.1809 24.7225 26.6361C24.7168 26.9165 24.7956 27.0378 25.1027 27.0344C26.3658 27.0204 27.6292 27.0252 28.8924 27.0315C29.1501 27.0328 29.2638 26.951 29.2609 26.6728C29.2475 25.3919 29.2411 24.1108 29.2544 22.83C29.2577 22.5092 29.1155 22.4634 28.8481 22.465C27.6018 22.4728 26.3553 22.4742 25.109 22.4608C24.8163 22.4577 24.7124 22.5536 24.7199 22.8467C24.7312 23.288 24.729 23.7296 24.7267 24.1713C24.7257 24.3524 24.7248 24.5335 24.7248 24.7146Z" fill="#F6F6F6"/>
<path d="M26.9805 29.2247C26.6574 29.2247 26.3343 29.2248 26.0112 29.225C25.2608 29.2254 24.5104 29.2258 23.76 29.224C22.9393 29.2221 22.5116 28.8143 22.507 27.9852C22.4952 25.841 22.4939 23.6966 22.5006 21.5524C22.5033 20.695 22.9217 20.2788 23.7798 20.2758C25.9441 20.2682 28.1084 20.2683 30.2727 20.2767C31.0521 20.2797 31.4812 20.7267 31.4828 21.5165C31.4871 23.6635 31.4875 25.8105 31.4825 27.9575C31.4805 28.8144 31.0624 29.2196 30.1977 29.2216C29.4486 29.2233 28.6996 29.2229 27.9506 29.2225C27.6272 29.2224 27.3038 29.2222 26.9805 29.2222V29.2247ZM24.7248 24.7146L24.7266 24.7146C24.7266 24.8997 24.7274 25.0848 24.7281 25.27C24.73 25.7254 24.7318 26.1809 24.7225 26.6361C24.7168 26.9165 24.7956 27.0378 25.1027 27.0344C26.3658 27.0204 27.6292 27.0252 28.8924 27.0315C29.1501 27.0328 29.2638 26.951 29.2609 26.6728C29.2475 25.3919 29.2411 24.1108 29.2544 22.83C29.2577 22.5092 29.1155 22.4634 28.8481 22.465C27.6018 22.4728 26.3553 22.4742 25.109 22.4608C24.8163 22.4577 24.7124 22.5536 24.7199 22.8467C24.7312 23.288 24.729 23.7296 24.7267 24.1713C24.7257 24.3524 24.7248 24.5335 24.7248 24.7146Z" stroke="#F6F6F6"/>
<path d="M26.9643 42.7379C26.6421 42.7379 26.32 42.7382 25.9978 42.7385C25.2464 42.7392 24.495 42.7399 23.7436 42.7367C22.9602 42.7335 22.5158 42.3644 22.5084 41.5862C22.4868 39.3378 22.4968 37.089 22.5225 34.8406C22.5297 34.2166 22.9677 33.8033 23.5918 33.7992C25.8588 33.7844 28.126 33.7841 30.3931 33.798C31.0242 33.8018 31.4719 34.2537 31.4762 34.8886C31.4914 37.1395 31.4954 39.3906 31.479 41.6415C31.4742 42.3047 31.007 42.7277 30.3408 42.7335C29.5484 42.7404 28.756 42.739 27.9635 42.7375C27.6305 42.7368 27.2974 42.7362 26.9643 42.7362V42.7379ZM24.7249 38.2576C24.7249 38.441 24.7255 38.6244 24.7261 38.8078C24.7276 39.2639 24.729 39.7199 24.7215 40.1758C24.7172 40.4356 24.8022 40.5501 25.0776 40.5481C26.3402 40.5391 27.603 40.5376 28.8656 40.548C29.1575 40.5504 29.2644 40.446 29.2624 40.1555C29.2538 38.8929 29.2511 37.6301 29.2653 36.3675C29.2687 36.0645 29.1568 35.985 28.8721 35.9875C27.612 35.9983 26.3516 36.0002 25.0916 35.9851C24.7764 35.9814 24.7161 36.1164 24.7219 36.3896C24.7318 36.8498 24.7294 37.3102 24.7269 37.7706C24.7261 37.9329 24.7253 38.0952 24.7249 38.2576Z" fill="#F6F6F6"/>
<path d="M26.9643 42.7379C26.6421 42.7379 26.32 42.7382 25.9978 42.7385C25.2464 42.7392 24.495 42.7399 23.7436 42.7367C22.9602 42.7335 22.5158 42.3644 22.5084 41.5862C22.4868 39.3378 22.4968 37.089 22.5225 34.8406C22.5297 34.2166 22.9677 33.8033 23.5918 33.7992C25.8588 33.7844 28.126 33.7841 30.3931 33.798C31.0242 33.8018 31.4719 34.2537 31.4762 34.8886C31.4914 37.1395 31.4954 39.3906 31.479 41.6415C31.4742 42.3047 31.007 42.7277 30.3408 42.7335C29.5484 42.7404 28.756 42.739 27.9635 42.7375C27.6305 42.7368 27.2974 42.7362 26.9643 42.7362V42.7379ZM24.7249 38.2576C24.7249 38.441 24.7255 38.6244 24.7261 38.8078C24.7276 39.2639 24.729 39.7199 24.7215 40.1758C24.7172 40.4356 24.8022 40.5501 25.0776 40.5481C26.3402 40.5391 27.603 40.5376 28.8656 40.548C29.1575 40.5504 29.2644 40.446 29.2624 40.1555C29.2538 38.8929 29.2511 37.6301 29.2653 36.3675C29.2687 36.0645 29.1568 35.985 28.8721 35.9875C27.612 35.9983 26.3516 36.0002 25.0916 35.9851C24.7764 35.9814 24.7161 36.1164 24.7219 36.3896C24.7318 36.8498 24.7294 37.3102 24.7269 37.7706C24.7261 37.9329 24.7253 38.0952 24.7249 38.2576Z" stroke="#F6F6F6"/>
<path d="M13.4624 15.7098C13.1357 15.7098 12.8089 15.7096 12.4822 15.7094C11.7194 15.7089 10.9566 15.7085 10.1939 15.7105C9.40373 15.7126 9.06057 15.2887 9.0265 14.4281C8.97408 13.1038 8.98026 11.7795 8.98643 10.4553C8.98985 9.72182 8.99327 8.98833 8.98673 8.25486C8.97662 7.11968 9.33933 6.75795 10.4638 6.76051C11.625 6.76316 12.7863 6.76852 13.9476 6.77387C14.8632 6.7781 15.7789 6.78232 16.6945 6.78522C17.6374 6.7882 17.9277 7.13915 17.952 8.06223C18.0013 9.93818 17.9857 11.8161 17.97 13.6935C17.9675 13.9966 17.965 14.2997 17.9627 14.6028C17.9577 15.2744 17.5085 15.6972 16.8378 15.7044C16.0459 15.7129 15.2539 15.7111 14.4619 15.7092C14.1288 15.7085 13.7956 15.7077 13.4624 15.7077V15.7098ZM11.2147 11.2077L11.2121 11.2077C11.2121 11.3934 11.2147 11.5792 11.2172 11.765C11.2232 12.2026 11.2292 12.6401 11.202 13.0756C11.1765 13.4823 11.3891 13.5518 11.6959 13.5497C12.3026 13.5454 12.9093 13.539 13.516 13.5325C14.1544 13.5258 14.7927 13.519 15.431 13.5148C15.638 13.5134 15.747 13.4638 15.7488 13.2247C15.7587 11.9309 15.7757 10.637 15.8047 9.34343C15.8117 9.03078 15.7026 8.91135 15.386 8.91668C14.1226 8.93796 12.8588 8.94998 11.5952 8.94847C11.3027 8.94812 11.2006 9.04256 11.2092 9.33743C11.222 9.77916 11.2194 10.2213 11.2168 10.6635C11.2158 10.8449 11.2147 11.0264 11.2147 11.2077Z" fill="#F6F6F6"/>
<path d="M13.4624 15.7098C13.1357 15.7098 12.8089 15.7096 12.4822 15.7094C11.7194 15.7089 10.9566 15.7085 10.1939 15.7105C9.40373 15.7126 9.06057 15.2887 9.0265 14.4281C8.97408 13.1038 8.98026 11.7795 8.98643 10.4553C8.98985 9.72182 8.99327 8.98833 8.98673 8.25486C8.97662 7.11968 9.33933 6.75795 10.4638 6.76051C11.625 6.76316 12.7863 6.76852 13.9476 6.77387C14.8632 6.7781 15.7789 6.78232 16.6945 6.78522C17.6374 6.7882 17.9277 7.13915 17.952 8.06223C18.0013 9.93818 17.9857 11.8161 17.97 13.6935C17.9675 13.9966 17.965 14.2997 17.9627 14.6028C17.9577 15.2744 17.5085 15.6972 16.8378 15.7044C16.0459 15.7129 15.2539 15.7111 14.4619 15.7092C14.1288 15.7085 13.7956 15.7077 13.4624 15.7077V15.7098ZM11.2147 11.2077L11.2121 11.2077C11.2121 11.3934 11.2147 11.5792 11.2172 11.765C11.2232 12.2026 11.2292 12.6401 11.202 13.0756C11.1765 13.4823 11.3891 13.5518 11.6959 13.5497C12.3026 13.5454 12.9093 13.539 13.516 13.5325C14.1544 13.5258 14.7927 13.519 15.431 13.5148C15.638 13.5134 15.747 13.4638 15.7488 13.2247C15.7587 11.9309 15.7757 10.637 15.8047 9.34343C15.8117 9.03078 15.7026 8.91135 15.386 8.91668C14.1226 8.93796 12.8588 8.94998 11.5952 8.94847C11.3027 8.94812 11.2006 9.04256 11.2092 9.33743C11.222 9.77916 11.2194 10.2213 11.2168 10.6635C11.2158 10.8449 11.2147 11.0264 11.2147 11.2077Z" stroke="#F6F6F6"/>
<path d="M56.2388 45.0398C56.2389 45.3572 56.2394 45.6746 56.2399 45.992C56.241 46.764 56.2422 47.536 56.2372 48.308C56.2322 49.0756 55.8174 49.491 55.0476 49.4928C52.8517 49.4979 50.6557 49.4974 48.4597 49.4926C47.7472 49.491 47.3057 49.0906 47.3008 48.3855C47.2854 46.1526 47.2864 43.9195 47.2994 41.6866C47.3036 40.9725 47.7283 40.5531 48.4326 40.5497C50.6309 40.539 52.8293 40.537 55.0276 40.5489C55.8626 40.5534 56.2362 40.9661 56.2381 41.8202C56.2396 42.5441 56.2393 43.2679 56.239 43.9917C56.2389 44.3411 56.2387 44.6905 56.2388 45.0398ZM51.8149 47.2997L51.8153 47.3304C51.9922 47.3304 52.1692 47.3291 52.3461 47.3278C52.7739 47.3247 53.2017 47.3216 53.6289 47.3367C53.9353 47.3475 54.057 47.2796 54.0518 46.9393C54.0328 45.6937 54.0369 44.4475 54.055 43.2019C54.0602 42.8459 53.9588 42.7222 53.5854 42.7291C52.3563 42.7516 51.1264 42.7446 49.897 42.7306C49.5851 42.7271 49.4736 42.8207 49.4777 43.1439C49.4936 44.3906 49.493 45.6377 49.4782 46.8844C49.4744 47.2007 49.5751 47.3139 49.8928 47.305C50.3461 47.2925 50.7998 47.295 51.2535 47.2976C51.4406 47.2987 51.6278 47.2997 51.8149 47.2997Z" fill="#F6F6F6"/>
<path d="M56.2388 45.0398C56.2389 45.3572 56.2394 45.6746 56.2399 45.992C56.241 46.764 56.2422 47.536 56.2372 48.308C56.2322 49.0756 55.8174 49.491 55.0476 49.4928C52.8517 49.4979 50.6557 49.4974 48.4597 49.4926C47.7472 49.491 47.3057 49.0906 47.3008 48.3855C47.2854 46.1526 47.2864 43.9195 47.2994 41.6866C47.3036 40.9725 47.7283 40.5531 48.4326 40.5497C50.6309 40.539 52.8293 40.537 55.0276 40.5489C55.8626 40.5534 56.2362 40.9661 56.2381 41.8202C56.2396 42.5441 56.2393 43.2679 56.239 43.9917C56.2389 44.3411 56.2387 44.6905 56.2388 45.0398ZM51.8149 47.2997L51.8153 47.3304C51.9922 47.3304 52.1692 47.3291 52.3461 47.3278C52.7739 47.3247 53.2017 47.3216 53.6289 47.3367C53.9353 47.3475 54.057 47.2796 54.0518 46.9393C54.0328 45.6937 54.0369 44.4475 54.055 43.2019C54.0602 42.8459 53.9588 42.7222 53.5854 42.7291C52.3563 42.7516 51.1264 42.7446 49.897 42.7306C49.5851 42.7271 49.4736 42.8207 49.4777 43.1439C49.4936 44.3906 49.493 45.6377 49.4782 46.8844C49.4744 47.2007 49.5751 47.3139 49.8928 47.305C50.3461 47.2925 50.7998 47.295 51.2535 47.2976C51.4406 47.2987 51.6278 47.2997 51.8149 47.2997Z" stroke="#F6F6F6"/>
<path d="M56.2397 31.5094C56.2398 31.7539 56.2398 31.9984 56.2399 32.2429C56.24 33.0538 56.2401 33.8648 56.2397 34.6758C56.2393 35.5975 55.8688 35.9778 54.9628 35.9786C52.8172 35.9804 50.6717 35.9805 48.5262 35.979C47.7217 35.9784 47.2975 35.5818 47.2938 34.7791C47.2838 32.5991 47.2856 30.4189 47.295 28.2388C47.2984 27.45 47.6942 27.0427 48.472 27.0386C50.652 27.0271 52.8322 27.0254 55.0122 27.0367C55.8611 27.0411 56.2362 27.443 56.2388 28.2911C56.2411 29.0297 56.2406 29.7684 56.2401 30.507C56.2399 30.8411 56.2397 31.1753 56.2397 31.5094ZM51.7601 29.2226C51.5802 29.2226 51.4002 29.2233 51.2202 29.224C50.7768 29.2256 50.3335 29.2273 49.8903 29.2188C49.6194 29.2137 49.4751 29.2748 49.4781 29.5891C49.4904 30.8702 49.4882 32.1515 49.4795 33.4327C49.4776 33.7051 49.5824 33.7931 49.8474 33.7914C51.1286 33.7827 52.4099 33.7819 53.6911 33.7922C53.9662 33.7944 54.0531 33.6891 54.0513 33.4257C54.0428 32.1445 54.0419 30.8633 54.0486 29.5821C54.05 29.3146 53.9509 29.2132 53.6819 29.2184C53.2294 29.2271 52.7768 29.2255 52.3241 29.2239C52.1361 29.2232 51.9481 29.2225 51.7601 29.2226Z" fill="#F6F6F6"/>
<path d="M56.2397 31.5094C56.2398 31.7539 56.2398 31.9984 56.2399 32.2429C56.24 33.0538 56.2401 33.8648 56.2397 34.6758C56.2393 35.5975 55.8688 35.9778 54.9628 35.9786C52.8172 35.9804 50.6717 35.9805 48.5262 35.979C47.7217 35.9784 47.2975 35.5818 47.2938 34.7791C47.2838 32.5991 47.2856 30.4189 47.295 28.2388C47.2984 27.45 47.6942 27.0427 48.472 27.0386C50.652 27.0271 52.8322 27.0254 55.0122 27.0367C55.8611 27.0411 56.2362 27.443 56.2388 28.2911C56.2411 29.0297 56.2406 29.7684 56.2401 30.507C56.2399 30.8411 56.2397 31.1753 56.2397 31.5094ZM51.7601 29.2226C51.5802 29.2226 51.4002 29.2233 51.2202 29.224C50.7768 29.2256 50.3335 29.2273 49.8903 29.2188C49.6194 29.2137 49.4751 29.2748 49.4781 29.5891C49.4904 30.8702 49.4882 32.1515 49.4795 33.4327C49.4776 33.7051 49.5824 33.7931 49.8474 33.7914C51.1286 33.7827 52.4099 33.7819 53.6911 33.7922C53.9662 33.7944 54.0531 33.6891 54.0513 33.4257C54.0428 32.1445 54.0419 30.8633 54.0486 29.5821C54.05 29.3146 53.9509 29.2132 53.6819 29.2184C53.2294 29.2271 52.7768 29.2255 52.3241 29.2239C52.1361 29.2232 51.9481 29.2225 51.7601 29.2226Z" stroke="#F6F6F6"/>
</svg>
