<svg width="30" height="30" viewBox="0 0 30 30" fill="none" xmlns="http://www.w3.org/2000/svg">
<path d="M0.506592 25.2905C1.22917 24.8154 3.71138 24.4274 4.56108 24.7887C5.41078 25.15 14.2089 28.1607 15.0586 28.522C15.828 28.8499 21.8763 26.4145 22.6725 26.0398C23.4352 25.6785 27.2221 23.203 28.5 21.9786C28.3327 21.2694 27.4362 20.3528 26.0245 20.1053C24.6797 19.8644 23.5824 20.4398 22.0703 21.6909L18.1898 21.9853" stroke="#F6F6F6" stroke-width="1.33812" stroke-linejoin="round"/>
<path d="M9.90696 21.4168C9.90696 21.4168 14.7576 23.4908 15.4468 23.7852C18.2167 24.9694 19.6953 21.5037 16.9254 20.3195C16.2296 20.0251 15.1925 19.5768 13.2656 18.7539C12.6902 18.5063 12.1951 16.6597 11.2852 16.2717C10.8771 16.0977 8.75618 15.1945 7.8195 14.7931C6.88282 14.3916 5.39751 14.6593 4.45414 14.9938C2.97552 15.5893 0.5 16.5995 0.5 16.5995" stroke="#F6F6F6" stroke-width="1.33812" stroke-linejoin="round"/>
<mask id="mask0_1762_10275" style="mask-type:luminance" maskUnits="userSpaceOnUse" x="12" y="0" width="13" height="16">
<path d="M24.2258 0H12.5975V15.9102H24.2258V0Z" fill="white"/>
</mask>
<g mask="url(#mask0_1762_10275)">
<path d="M18.4114 13.6557C16.8859 13.6557 15.5812 12.5986 15.046 11.1133H12.6575C13.2864 13.8631 15.6281 15.9104 18.4114 15.9104C21.1946 15.9104 23.5364 13.8631 24.1653 11.1133H21.7767C21.2415 12.5986 19.9368 13.6557 18.4114 13.6557Z" fill="#F6F6F6"/>
<path d="M18.4116 3.61291C19.7832 5.40599 21.3555 7.79452 21.8573 9.41364H24.2258C23.5433 6.20886 19.7765 1.62581 19.3015 1.0638L18.4116 0L17.5218 1.0638C17.0535 1.62581 13.28 6.20886 12.5975 9.41364H14.966C15.4745 7.79452 17.0468 5.40599 18.4116 3.61291Z" fill="#F6F6F6"/>
</g>
</svg>
