<svg width="65" height="65" viewBox="0 0 65 65" fill="none" xmlns="http://www.w3.org/2000/svg">
<path d="M32.6214 64.2427C24.1708 64.2427 16.2246 60.9579 10.2547 54.988C4.28481 49.0181 1 41.0719 1 32.6213C1 24.1708 4.28481 16.2246 10.2547 10.2547C16.2246 4.28481 24.1708 1 32.6214 1C41.0719 1 49.0181 4.28481 54.988 10.2547C60.9579 16.2246 64.2427 24.1708 64.2427 32.6213C64.2427 41.0719 60.9579 49.0181 54.988 54.988C49.0181 60.9579 41.0719 64.2427 32.6214 64.2427ZM4.40747 23.6938C1.68149 32.2806 3.00359 41.508 8.00576 49.0181C13.0352 56.5554 21.0632 61.3123 30.0453 62.0892L31.4901 62.2118L24.0482 43.975C23.4348 42.4894 22.3989 41.3309 21.1859 40.7857L18.9506 39.7907C16.1564 38.5504 14.2755 35.2519 14.2755 31.5991C14.2755 28.6959 12.8035 26.0654 10.6772 25.2067L4.6937 22.7806L4.40747 23.6938ZM32.5941 3.03085C21.2131 3.03085 10.7181 9.7095 5.83862 20.0273L5.44335 20.8724L11.4541 23.3121C14.3573 24.4979 16.32 27.8236 16.32 31.5855C16.32 34.4069 17.7511 37.0238 19.782 37.9234L22.0173 38.9184C23.7347 39.6816 25.1249 41.1945 25.9427 43.1981L33.6845 62.1846L34.3115 62.1437C36.6967 62.0074 39.0547 61.5849 41.3172 60.8897L41.9987 60.6853L41.3581 52.0167C41.0855 48.3093 42.5167 45.9241 43.757 44.5884C45.4471 42.7756 47.846 41.7261 50.3539 41.7261C51.2671 41.7261 52.1803 41.8624 53.0526 42.135L59.813 44.2613L60.1128 43.498C62.4163 37.6917 62.8116 31.1493 61.2169 25.084L60.7807 23.4075L54.62 30.8222C53.1343 32.6077 50.9536 33.63 48.6092 33.63C47.1508 33.63 45.7469 33.2211 44.5202 32.4714L39.0547 29.0776C37.0647 27.8509 35.7562 25.8064 35.4427 23.4893C35.1293 21.1722 35.8653 18.8688 37.46 17.1514C38.8911 15.6112 39.3681 13.4305 38.7139 11.4269L36.0016 3.19441L35.4291 3.13989C34.4887 3.04448 33.5346 3.0036 32.5805 3.0036L32.5941 3.03085ZM50.3402 43.757C46.4966 43.757 43.3617 46.8918 43.3617 50.7491C43.3617 50.8581 43.3617 50.9399 43.3617 51.0081C43.3617 51.3988 43.4389 52.68 43.5934 54.8517C43.6616 55.8058 43.757 57.0461 43.8796 58.6681L43.9751 59.9629L45.1472 59.4177C50.6946 56.8144 55.4105 52.4392 58.4227 47.0827L58.9543 46.1286L52.4528 44.0841C51.7577 43.866 51.049 43.757 50.3402 43.757ZM40.6494 10.8135C41.5353 13.5122 40.8811 16.4699 38.9593 18.5553C37.7871 19.8229 37.2419 21.5266 37.4736 23.244C37.7053 24.9613 38.673 26.4606 40.1451 27.3738L45.6106 30.7677C46.5238 31.3265 47.5597 31.6264 48.6365 31.6264C50.3675 31.6264 51.9894 30.8767 53.0798 29.5546L59.9493 21.2813L59.7312 20.777C56.0784 12.4355 48.6365 6.1521 39.8316 3.93043L38.2641 3.53516L40.663 10.8272L40.6494 10.8135Z" fill="#F6F6F6" stroke="#F6F6F6" stroke-width="0.681495" stroke-miterlimit="10"/>
</svg>
