<svg width="64" height="69" viewBox="0 0 64 69" fill="none" xmlns="http://www.w3.org/2000/svg">
<path d="M0 34.55H15.903C17.8715 37.3555 21.111 39.2 24.8 39.2C28.489 39.2 31.7285 37.3555 33.697 34.55H41.85C45.2755 34.55 48.05 37.3245 48.05 40.75V43.85L46.5 45.4V51.6H62V45.4L60.45 43.85V40.75C60.45 30.4735 52.1265 22.15 41.85 22.15H34.1C33.294 20.724 32.3485 19.825 31 19.05V17.5H18.6V19.05C17.2515 19.825 16.306 20.724 15.5 22.15H0" stroke="#F6F6F6" stroke-width="2.5" stroke-miterlimit="10"/>
<path d="M48.0499 43.8501H57.3499" stroke="#F6F6F6" stroke-width="2.5" stroke-miterlimit="10"/>
<path d="M57.3501 43.8501H60.4501" stroke="#F6F6F6" stroke-width="2.5" stroke-miterlimit="10"/>
<path d="M28.83 9.50204C31.961 10.029 38.006 11.3 40.3 11.3C42.873 11.3 44.95 9.56405 44.95 7.42505C44.95 5.28605 42.873 3.55005 40.3 3.55005C38.1455 3.55005 32.736 5.10005 27.9 5.10005" stroke="#F6F6F6" stroke-width="2.5" stroke-miterlimit="10"/>
<path d="M20.909 9.31605C17.778 9.84305 11.5935 11.3 9.31504 11.3C6.74204 11.3 4.66504 9.56405 4.66504 7.42505C4.66504 5.28605 6.74204 3.55005 9.31504 3.55005C11.4695 3.55005 16.879 5.10005 21.715 5.10005" stroke="#F6F6F6" stroke-width="2.5" stroke-miterlimit="10"/>
<path d="M21.7 16.043V5.1C21.7 3.395 23.095 2 24.8 2C26.505 2 27.9 3.395 27.9 5.1V16.043" stroke="#F6F6F6" stroke-width="2.5" stroke-miterlimit="10"/>
<path d="M54.0934 57.4922C53.3494 57.4922 52.7294 58.0967 52.7294 58.8562C52.7294 59.6157 53.3339 60.2202 54.0934 60.2202C54.8529 60.2202 55.4574 59.6157 55.4574 58.8562C55.4574 58.0967 54.8529 57.4922 54.0934 57.4922Z" fill="#F6F6F6" stroke="#F6F6F6" stroke-width="1.1" stroke-miterlimit="10"/>
<path d="M54.0934 68.3576C54.8467 68.3576 55.4574 67.747 55.4574 66.9936C55.4574 66.2403 54.8467 65.6296 54.0934 65.6296C53.3401 65.6296 52.7294 66.2403 52.7294 66.9936C52.7294 67.747 53.3401 68.3576 54.0934 68.3576Z" fill="#F6F6F6" stroke="#F6F6F6" stroke-width="1.1" stroke-miterlimit="10"/>
<path d="M59.518 68.3576C60.2713 68.3576 60.882 67.747 60.882 66.9936C60.882 66.2403 60.2713 65.6296 59.518 65.6296C58.7647 65.6296 58.154 66.2403 58.154 66.9936C58.154 67.747 58.7647 68.3576 59.518 68.3576Z" fill="#F6F6F6" stroke="#F6F6F6" stroke-width="1.1" stroke-miterlimit="10"/>
<path d="M48.6683 68.3576C49.4216 68.3576 50.0323 67.747 50.0323 66.9936C50.0323 66.2403 49.4216 65.6296 48.6683 65.6296C47.915 65.6296 47.3043 66.2403 47.3043 66.9936C47.3043 67.747 47.915 68.3576 48.6683 68.3576Z" fill="#F6F6F6" stroke="#F6F6F6" stroke-width="1.1" stroke-miterlimit="10"/>
<path d="M56.8057 64.2812C57.559 64.2812 58.1697 63.6705 58.1697 62.9172C58.1697 62.1639 57.559 61.5532 56.8057 61.5532C56.0524 61.5532 55.4417 62.1639 55.4417 62.9172C55.4417 63.6705 56.0524 64.2812 56.8057 64.2812Z" fill="#F6F6F6" stroke="#F6F6F6" stroke-width="1.1" stroke-miterlimit="10"/>
<path d="M51.3805 64.2812C52.1339 64.2812 52.7446 63.6705 52.7446 62.9172C52.7446 62.1639 52.1339 61.5532 51.3805 61.5532C50.6272 61.5532 50.0165 62.1639 50.0165 62.9172C50.0165 63.6705 50.6272 64.2812 51.3805 64.2812Z" fill="#F6F6F6" stroke="#F6F6F6" stroke-width="1.1" stroke-miterlimit="10"/>
</svg>
