<svg width="30" height="31" viewBox="0 0 30 31" fill="none" xmlns="http://www.w3.org/2000/svg">
<path d="M20.5517 1.8393C19.041 1.282 17.4564 1 15.8382 1C9.3857 1 3.8732 5.51206 2.5169 11.6893L1.42917 10.0107C1.27473 9.77569 0.965873 9.70855 0.730869 9.86298C0.495866 10.0107 0.428727 10.3263 0.583157 10.5613L2.36918 13.3209C2.36918 13.3209 2.37589 13.3276 2.38261 13.3343C2.40275 13.3612 2.42289 13.3813 2.44304 13.4082C2.44304 13.4082 2.44975 13.4216 2.45646 13.4216C2.48332 13.4485 2.51689 13.4686 2.55047 13.4887C2.55718 13.4887 2.56389 13.4955 2.57732 13.5022C2.60418 13.5156 2.63104 13.5223 2.6579 13.5357C2.67133 13.5357 2.68475 13.5357 2.69818 13.5425C2.71161 13.5425 2.72504 13.5492 2.73176 13.5492C2.7519 13.5492 2.77204 13.5492 2.79218 13.5492C2.82576 13.5492 2.85933 13.5492 2.8929 13.5357C2.90633 13.5357 2.91305 13.5357 2.92647 13.529C2.95333 13.5223 2.98019 13.5089 3.00704 13.5022C3.00704 13.5022 3.02048 13.5022 3.02719 13.4955L5.84051 11.9914C6.08223 11.8639 6.17624 11.555 6.04866 11.3133C5.92109 11.0716 5.61223 10.9776 5.37051 11.1051L3.4502 12.1257C4.62521 6.29093 9.78186 2.00716 15.8315 2.00716C17.3355 2.00716 18.806 2.26902 20.2026 2.77931C20.4644 2.87331 20.7531 2.73902 20.8472 2.48388C20.9412 2.22202 20.8069 1.9333 20.5517 1.8393Z" fill="#F6F6F6" stroke="#F6F6F6" stroke-width="0.335719" stroke-miterlimit="10"/>
<path d="M24.8423 4.40428L26.9237 4.43785C26.9237 4.43785 26.9237 4.43785 26.9304 4.43785C27.2057 4.43785 27.4273 4.21627 27.434 3.94099C27.434 3.6657 27.2192 3.43741 26.9372 3.43069L23.6538 3.37026C23.3853 3.35683 23.1704 3.55827 23.1435 3.82013L22.8145 6.99603C22.7877 7.27132 22.9891 7.51975 23.2644 7.54661C23.2845 7.54661 23.298 7.54661 23.3181 7.54661C23.5733 7.54661 23.7881 7.35189 23.815 7.09674L24.0298 5.01529C26.8633 7.41903 28.4748 10.8837 28.4748 14.637C28.4748 18.3903 26.7156 22.1504 23.6538 24.5676C23.439 24.7421 23.3987 25.0577 23.5733 25.2726C23.674 25.4001 23.8217 25.4673 23.9694 25.4673C24.0768 25.4673 24.191 25.4337 24.2783 25.3599C27.5817 22.7547 29.4819 18.8469 29.4819 14.637C29.4819 10.7225 27.763 6.97588 24.8423 4.39756V4.40428Z" fill="#F6F6F6" stroke="#F6F6F6" stroke-width="0.335719" stroke-miterlimit="10"/>
<path d="M21.6191 26.2597L18.8259 24.7154C18.5842 24.5811 18.2754 24.6684 18.1411 24.9101C18.0068 25.1518 18.0941 25.4607 18.3358 25.595L20.0681 26.5484C18.7118 27.0318 17.2951 27.2803 15.8313 27.2803C9.49968 27.2803 4.10803 22.5533 3.29559 16.2754C3.26201 16.0001 3.00687 15.8054 2.73158 15.839C2.45629 15.8725 2.26157 16.1277 2.29515 16.403C3.16801 23.1778 8.98938 28.2807 15.8246 28.2807C17.4294 28.2807 18.9871 28.0054 20.471 27.4683L19.5712 29.496C19.4571 29.7512 19.5712 30.0466 19.8264 30.1607C19.8935 30.1876 19.9607 30.201 20.0278 30.201C20.2225 30.201 20.4038 30.0869 20.4844 29.9056L21.8206 26.9043C21.928 26.6693 21.834 26.3873 21.6057 26.2597H21.6191Z" fill="#F6F6F6" stroke="#F6F6F6" stroke-width="0.335719" stroke-miterlimit="10"/>
<mask id="mask0_1762_11190" style="mask-type:luminance" maskUnits="userSpaceOnUse" x="10" y="6" width="12" height="17">
<path d="M21.8808 6.2356H10.2112V22.2024H21.8808V6.2356Z" fill="white"/>
</mask>
<g mask="url(#mask0_1762_11190)">
<path d="M16.0389 19.9399C14.508 19.9399 13.1987 18.879 12.6616 17.3884H10.2645C10.8957 20.148 13.2457 22.2026 16.0389 22.2026C18.8321 22.2026 21.1821 20.148 21.8133 17.3884H19.4162C18.8791 18.879 17.5698 19.9399 16.0389 19.9399Z" fill="#F6F6F6"/>
<path d="M16.039 9.86136C17.4155 11.6608 18.9933 14.0578 19.4969 15.6827H21.8738C21.1889 12.4665 17.4088 7.86719 16.932 7.30318L16.039 6.2356L15.146 7.30318C14.676 7.86719 10.8891 12.4665 10.2042 15.6827H12.5811C13.0914 14.0578 14.6693 11.6608 16.039 9.86136Z" fill="#F6F6F6"/>
</g>
</svg>
