<svg width="72" height="61" viewBox="0 0 72 61" fill="none" xmlns="http://www.w3.org/2000/svg">
<path d="M35.8063 48.0789C35.1979 48.0789 34.7206 48.0932 34.2444 48.0764C32.9657 48.0314 32.2132 47.3392 31.987 45.9999C31.5856 43.6288 29.673 42.7593 27.6991 44.0505C26.4059 44.8965 25.2311 44.8234 24.1746 43.8314C23.7587 43.4393 23.3689 43.0195 22.9668 42.6127C21.7664 41.3985 21.6114 40.0978 22.5018 38.7105C23.6474 36.9259 23.0111 35.113 21.0107 34.5262C20.5583 34.3935 20.0763 34.3376 19.6038 34.3028C18.6514 34.2326 18.2753 33.6913 18.278 32.796C18.2805 31.938 18.27 31.0799 18.2794 30.2221C18.2974 28.5739 19.1112 27.5409 20.7208 27.1232C23.0733 26.5119 23.7148 24.7322 22.3428 22.6234C21.5533 21.4099 21.6207 20.3111 22.545 19.327C22.8715 18.9798 23.1977 18.632 23.535 18.2954C24.9438 16.8896 26.4704 16.7485 28.1148 17.8722C29.1739 18.5957 31.4434 17.8371 31.8576 16.5816C32.0037 16.1387 31.996 15.6419 32.0359 15.1678C32.147 13.8461 32.904 13.3688 34.1627 13.4703C34.7311 13.5162 35.3075 13.4547 35.878 13.4846C36.8199 13.5339 37.8407 13.2042 38.6851 13.7252C39.6276 14.3067 39.3079 15.4356 39.5441 16.3276C39.9536 17.8745 41.9833 18.5785 43.4512 17.7126C45.0478 16.7708 46.4991 16.9495 47.8052 18.2489C47.8728 18.3161 47.9413 18.3826 48.0066 18.452C48.7209 19.2116 49.8378 19.7728 50.0271 20.793C50.2036 21.7441 49.1621 22.4179 48.6899 23.233C47.8543 24.6753 48.6828 26.4905 50.362 27.0521C51.2347 27.344 52.5099 26.8702 52.9357 27.8985C53.2781 28.7251 53.1031 29.7682 53.1466 30.7157C53.1685 31.1917 53.1854 31.6695 53.1705 32.1454C53.1138 33.9587 53.1127 33.979 51.3316 34.3396C50.3014 34.5482 49.2882 34.6382 48.7491 35.8024C48.1578 37.0793 48.3387 38.0551 49.2284 39.1701C50.3941 40.6313 50.2919 40.7187 49.0776 42.0085C48.6202 42.4943 48.1462 42.9646 47.6747 43.437C46.4352 44.6788 45.0464 44.8298 43.508 43.8901C42.083 43.0199 39.9611 43.6757 39.5529 45.1487C39.305 46.0429 39.6459 47.1962 38.7545 47.7886C37.8466 48.3919 36.7082 47.9924 35.8063 48.0789ZM26.0368 18.3237C25.2823 18.5692 24.8837 19.2691 24.3085 19.754C23.3765 20.5395 22.9418 21.4302 24.0043 22.3834C25.3086 23.5537 24.7726 24.6352 24.1884 25.9379C23.6223 27.2001 23.2966 28.502 21.5705 28.4587C20.3807 28.4288 19.7857 28.9382 19.9151 30.1715C19.9348 30.3601 19.9167 30.5526 19.9158 30.7434C19.9097 32.0087 20.5328 32.8003 21.785 33.1181C22.3376 33.2572 23.0315 33.2721 23.3085 33.7901C23.9338 34.9593 24.5889 36.1569 24.919 37.4244C25.145 38.2918 24.2008 38.9279 23.6469 39.5483C23.0533 40.2132 23.106 40.6645 23.7615 41.1961C24.1282 41.4936 24.4642 41.8513 24.7389 42.2356C25.5108 43.3159 26.369 43.4738 27.3155 42.5057C28.3748 41.4222 29.4602 41.6783 30.68 42.2266C31.9941 42.8173 33.2458 43.1765 33.3609 45.0729C33.4581 46.6754 33.8088 46.7209 35.7314 46.737C37.6235 46.7529 37.7346 46.6915 38.1329 45.0608C38.3092 44.3392 38.1174 43.4221 38.922 43.027C40.0255 42.4851 41.1686 41.9686 42.3519 41.6625C43.275 41.4236 43.8667 42.3402 44.5563 42.8057C45.2229 43.2556 45.7358 43.307 46.2718 42.6533C46.5728 42.2862 46.9133 41.9435 47.275 41.6356C48.1594 40.8826 48.3054 40.1183 47.4875 39.1979C47.0553 38.7115 46.3532 38.1756 46.5561 37.5104C46.9413 36.2473 47.4912 35.017 48.1179 33.8512C48.5142 33.1142 49.4053 33.0901 50.1646 33.0722C51.344 33.0445 51.587 32.3504 51.5144 31.3661C51.5005 31.1767 51.5206 30.9849 51.5214 30.7942C51.5289 28.8773 51.5305 28.8693 49.6424 28.4213C49.0895 28.2901 48.4237 28.3051 48.1361 27.747C47.5272 26.5656 46.8403 25.3811 46.5125 24.1133C46.2907 23.2554 47.239 22.6168 47.8057 22.0018C48.425 21.3299 48.2363 20.8399 47.683 20.3105C47.4075 20.0469 47.1485 19.7662 46.8778 19.4974C45.5285 18.1576 45.4884 18.1036 43.9102 19.2499C43.0334 19.8868 42.2834 20.0864 41.3132 19.5028C40.7523 19.1654 40.0949 18.9497 39.4531 18.7957C38.6948 18.6138 38.3016 18.2123 38.2361 17.4399C38.196 16.9671 38.111 16.4968 38.0235 16.0297C37.7401 14.5158 36.5392 14.8768 35.5382 14.8171C34.5196 14.7564 33.4063 14.8486 33.4184 16.1032C33.4381 18.1354 32.257 18.774 30.6252 19.4226C29.2977 19.9502 28.2914 20.03 27.2728 19.0009C26.9395 18.6642 26.5679 18.3557 26.0368 18.3237Z" fill="#F6F6F6" stroke="#F6F6F6" stroke-width="0.719949"/>
<path d="M35.6598 58.9772C43.581 59.0928 49.9409 56.4446 55.4121 51.5203C55.9055 51.0763 56.3019 50.5258 56.7831 50.0663C57.6023 49.284 57.7137 48.6969 56.8142 47.7375C54.5915 45.3668 54.217 42.4534 55.206 39.4582C56.5217 35.4732 60.6528 33.3347 64.8597 34.2717C68.5342 35.0901 71.4162 39.3149 70.9505 43.2005C70.4722 47.1913 66.9661 50.299 62.9002 50.3281C62.4234 50.3315 61.8874 50.4302 61.4797 50.2529C59.6794 49.4701 58.6109 50.3243 57.3499 51.5676C49.4026 59.4038 39.8668 62.3366 29.0231 59.621C17.7469 56.7972 10.4733 49.5265 7.24816 38.2997C7.14285 37.9332 7.01678 37.5718 6.92748 37.2015C6.73846 36.4176 6.52113 35.8681 5.80645 36.886C5.59693 37.1844 5.28629 37.434 4.97489 37.6318C4.71768 37.7952 4.40701 37.7011 4.2266 37.4491C4.12989 37.314 4.03989 37.0389 4.10882 36.9411C4.93063 35.7754 5.76627 34.6183 6.6376 33.4893C6.89144 33.1604 7.31297 33.1147 7.66774 33.3691C8.67475 34.0914 9.67842 34.8199 10.6529 35.5849C10.9371 35.808 11.1821 36.1515 10.9283 36.5671C10.6643 36.9995 10.2989 36.8985 9.93854 36.7175C9.6834 36.5894 9.43335 36.4489 9.19132 36.2974C8.95136 36.1473 8.68665 35.9696 8.43407 36.1614C8.1447 36.381 8.38469 36.6832 8.43132 36.9453C8.85277 39.3141 9.68761 41.5491 10.8244 43.6501C15.1666 51.6747 21.7924 56.6776 30.7419 58.5836C32.5359 58.9657 34.3492 58.897 35.6598 58.9772ZM62.7688 35.4661C59.2699 35.4543 56.0797 38.7198 56.11 42.2823C56.1407 45.893 59.2992 49.0174 62.8762 48.9756C66.4887 48.9333 69.6461 45.7256 69.5695 42.1755C69.4915 38.5598 66.3681 35.4783 62.7688 35.4661Z" fill="#F6F6F6" stroke="#F6F6F6" stroke-width="0.719949"/>
<path d="M35.3117 2.24487C27.5935 2.7155 20.7372 5.58519 15.2401 11.4351C14.0892 12.6599 14.1238 12.7451 15.3155 14.2031C17.5859 16.9808 17.9263 20.4576 16.2281 23.5243C14.6092 26.448 11.6488 27.978 8.35455 27.5937C4.80948 27.18 2.15176 24.8847 1.25246 21.46C-0.218019 15.86 4.97128 10.2374 10.691 11.5284C12.4666 11.9292 13.2892 11.4126 14.3349 10.3182C21.0151 3.32697 29.266 0.152917 38.8386 1.02026C51.2986 2.14921 61.0964 10.6146 64.6177 21.8771C64.7309 22.2392 64.7527 22.6298 64.8642 22.9926C65.2767 24.3344 65.3621 24.357 66.5426 23.3787C66.9025 23.0804 67.211 22.6081 67.7258 23.0481C68.2236 23.4735 67.8531 23.9006 67.6324 24.3086C67.587 24.3926 67.5445 24.4783 67.4947 24.5595C65.4934 27.8217 64.1751 27.9558 61.544 25.1821C61.2553 24.8778 61.0959 24.5634 61.2903 24.1815C61.4422 23.8831 61.7584 23.9388 62.041 23.9584C63.6106 24.0675 63.7463 23.9689 63.3 22.5583C61.7765 17.7438 59.2789 13.5004 55.555 10.061C49.9135 4.85065 43.1863 2.34187 35.3117 2.24487ZM9.12144 12.9917C5.35852 12.9932 2.39903 15.9892 2.49386 19.701C2.58515 23.2748 5.53804 26.1304 9.16756 26.155C12.9844 26.1808 15.9064 23.2973 15.8945 19.5167C15.8827 15.7217 13.0473 12.9902 9.12144 12.9917Z" fill="#F6F6F6" stroke="#F6F6F6" stroke-width="0.719949"/>
<path d="M62.6983 48.2914C62.6261 48.2382 62.5026 48.1956 62.4895 48.1306C62.2268 46.834 60.8845 46.6332 60.1621 45.8114C59.9175 45.5332 59.7347 45.1733 59.6154 44.8198C59.489 44.4455 59.5748 44.0637 59.9626 43.8452C60.2446 43.6864 60.496 43.7853 60.7026 44.0107C61.0841 44.4267 61.409 44.9179 61.8541 45.2472C62.5528 45.7642 63.2911 45.5715 63.9726 45.1172C64.8096 44.5593 64.7608 43.4854 63.8149 43.1177C63.2142 42.8842 62.5038 42.9495 61.8755 42.7671C59.6765 42.1288 58.9587 39.5634 60.7024 38.1538C61.489 37.518 62.0007 36.3005 62.9074 36.2343C63.7208 36.1749 63.7697 37.7676 64.7864 38.0782C65.1016 38.1744 65.3589 38.5682 65.5682 38.8764C65.8441 39.2828 65.9842 39.7829 65.6016 40.1806C65.137 40.6637 64.8199 40.3371 64.5112 39.8995C64.0518 39.2482 63.428 38.8343 62.5847 38.9158C61.9782 38.9744 61.4716 39.237 61.3167 39.8672C61.1553 40.5236 61.4755 40.974 62.1036 41.1641C62.7384 41.3563 63.4077 41.4442 64.0291 41.6688C66.3448 42.5057 66.7959 44.7044 64.9281 46.2846C64.286 46.8278 63.5284 47.2067 63.1857 48.0461C63.1339 48.1731 62.8663 48.212 62.6983 48.2914Z" fill="#F6F6F6" stroke="#F6F6F6" stroke-width="0.719949"/>
<path d="M9.18271 25.5325C9.08851 25.5191 8.92062 25.5257 8.91105 25.49C8.49665 23.9427 6.43014 23.7677 6.12764 22.1365C6.05357 21.7371 6.14342 21.336 6.51601 21.1862C6.70036 21.1121 7.15181 21.2708 7.23386 21.4428C7.84732 22.7285 8.85103 22.9705 10.0767 22.5414C10.5158 22.3877 10.8973 22.0218 10.9755 21.5121C11.063 20.9421 10.6549 20.6431 10.2051 20.475C9.67785 20.2779 9.12602 20.1035 8.5705 20.034C7.28173 19.8726 6.46516 19.1872 6.18683 17.9427C5.93412 16.8127 6.2478 15.7215 7.34888 15.3219C8.29549 14.9783 8.32624 13.2995 9.36449 13.7472C9.98503 14.0149 10.4995 14.9072 11.2007 15.3869C11.5052 15.5952 11.7585 15.8998 11.9818 16.2003C12.3005 16.629 12.3102 17.1147 11.8907 17.4655C11.5666 17.7365 11.1145 17.6717 10.91 17.3036C10.5544 16.6637 10.01 16.2957 9.35071 16.1753C8.49292 16.0187 7.82648 16.4558 7.60882 17.271C7.39315 18.0788 7.99031 18.4765 8.69092 18.6459C9.3307 18.8005 10.0349 18.7715 10.6284 19.0199C12.7638 19.9137 13.1182 22.0561 11.3796 23.5066C10.7366 24.043 9.864 24.3169 9.62674 25.2672C9.59725 25.3853 9.33647 25.4457 9.18271 25.5325Z" fill="#F6F6F6" stroke="#F6F6F6" stroke-width="0.719949"/>
<path d="M7.3479 35.0784C7.79502 39.6508 9.65002 43.6878 12.2347 47.3891C16.79 53.9122 23.1025 58.0182 30.8596 59.348C38.2342 60.6121 45.3747 59.542 51.7817 55.1646C54.2219 53.4974 56.5632 51.7895 58.3661 49.4155C58.7077 48.9656 58.7354 48.6833 58.3654 48.2492C57.8818 47.6821 57.3263 47.2033 56.8806 46.5683C55.0128 43.9077 54.9581 40.0168 56.9205 37.6573C59.3509 34.7352 62.8962 33.9597 66.09 35.6515C69.6187 37.5208 71.0452 40.9225 69.8151 44.5345C68.5409 48.276 65.1973 50.1257 61.2116 49.4476C60.4106 49.3114 59.7053 48.9644 58.9263 48.8327" stroke="#F6F6F6" stroke-width="0.719949" stroke-linecap="round" stroke-linejoin="round"/>
<path d="M64.3705 25.3356C64.4581 22.2716 63.1896 19.6013 61.7702 17.0375C57.7018 9.68866 51.6519 5.00603 43.4786 2.60963C34.8561 0.0815483 23.7962 2.8534 17.9206 8.11002C16.2954 9.564 14.3784 10.6843 13.3651 12.7275" stroke="#F6F6F6" stroke-width="0.719949" stroke-linecap="round" stroke-linejoin="round"/>
<path d="M49.1836 20.7511C48.6105 20.178 48.0662 19.5719 47.4565 19.0408C46.7928 18.4626 46.3921 17.5122 45.4543 17.3343C44.3846 17.1313 44.0919 18.24 43.4735 18.7696C43.0745 19.1113 42.6495 19.1172 42.3158 19.0041C41.4286 18.7036 40.6116 18.192 39.7214 17.9046C38.579 17.5357 39.0081 16.6266 38.8506 15.8835C38.6319 14.8511 38.2749 13.8841 36.8601 14.1501C36.4911 14.2195 36.0979 14.1605 35.7159 14.1605C33.1976 14.1605 33.1635 14.1528 32.5758 16.7422C32.1812 18.4804 30.5394 18.358 29.4389 19.0735C28.3836 19.7597 28.1925 18.8176 27.7019 18.4464C27.2751 18.1235 26.9466 17.6729 26.5344 17.3268C26.4223 17.2328 26.1586 17.2827 25.9743 17.3178C25.2627 17.4535 22.6629 20.347 22.5213 21.0349C22.3479 21.8776 23.0243 22.2138 23.3605 22.7771C23.705 23.3544 24.7058 23.8538 23.9612 24.7576C23.183 25.7022 23.4291 27.4329 21.6769 27.6433C20.8069 27.7478 19.5315 27.7433 19.2016 28.2677C18.771 28.9519 19.0962 30.1116 19.0962 31.0668C19.0962 31.3533 19.1341 31.6459 19.0895 31.9254C18.908 33.0636 19.2861 33.631 20.5282 33.6678C21.8582 33.7072 22.8705 34.15 23.4565 35.6269C23.988 36.9664 24.3256 37.9324 23.1392 39.1214C21.8811 40.3822 21.9869 40.4927 23.1092 41.6677C23.4823 42.0583 23.8704 42.4347 24.2543 42.815C25.3165 43.8672 26.4626 43.9628 27.6926 43.1018C29.169 42.0683 32.0396 43.0752 32.5575 44.8229C32.6953 45.288 32.8923 45.7974 32.8225 46.2495C32.6644 47.2739 33.4546 47.2812 34.0015 47.3699C34.746 47.4906 35.525 47.4108 36.2889 47.3979C37.6819 47.3743 38.5416 46.7064 38.8679 45.3941C39.5389 42.7018 41.8314 41.8103 44.0257 43.3883C45.0154 44.1 45.9703 44.0042 46.8906 43.1011C47.3722 42.6276 47.8463 42.1466 48.3239 41.669C49.1837 40.8094 49.1392 39.9888 48.3393 39.0766C47.7917 38.452 46.8467 38.1641 47.6345 36.7337C48.4089 35.3275 48.8109 33.7392 50.6175 33.7016C52.2357 33.668 52.5194 32.9641 52.3411 31.6392C52.3032 31.3577 52.3356 31.0668 52.3356 30.7803C52.3356 29.9206 52.6046 28.9253 52.2589 28.24C51.9223 27.5726 50.7651 27.7969 50.0336 27.7031C47.9773 27.4395 48.1614 25.6463 47.4869 24.4633C47.1404 23.8555 47.2717 23.7538 48.3208 22.4679C48.6743 22.0347 49.3665 21.7969 49.1836 21.0377" stroke="#F6F6F6" stroke-width="0.719949" stroke-linecap="round" stroke-linejoin="round"/>
<path d="M13.0786 12.7277C11.6454 12.5399 10.277 12.0077 8.779 12.139C3.74196 12.5805 0.52253 17.2445 2.20901 22.1772C3.34961 25.5132 7.37565 27.5212 11.0727 26.7685C14.1546 26.141 16.4523 23.0288 16.5419 19.6055C16.5958 17.5491 15.9703 15.8719 14.5243 14.4339C14.0976 14.0094 13.4467 13.7322 13.3651 13.0142" stroke="#F6F6F6" stroke-width="0.719949" stroke-linecap="round" stroke-linejoin="round"/>
<path d="M9.06707 15.02C8.34909 15.1016 8.18593 15.9479 7.62493 16.1385C6.6725 16.4622 6.64965 17.208 6.81023 17.877C7.00033 18.6689 7.49783 19.3143 8.49369 19.3333C8.97274 19.3424 9.42352 19.3141 9.94797 19.5593C11.4979 20.2838 12.1725 21.0506 11.646 21.8971C10.6618 23.4796 9.13105 24.1181 7.93969 23.3024C7.30884 22.8705 6.56985 22.328 6.77469 21.3241" stroke="#F6F6F6" stroke-width="0.719949" stroke-linecap="round" stroke-linejoin="round"/>
<path d="M65.2299 40.2364C65.4549 38.4832 63.8423 38.5044 62.9129 37.9885C62.1573 37.5692 61.4737 38.3627 60.9558 38.8303C59.8965 39.7869 60.3731 41.455 61.7964 41.941C62.3388 42.1263 62.9507 42.0988 63.5081 42.2517C64.8667 42.6243 65.4719 43.4581 65.2299 44.5346C65.0578 45.3002 63.6851 46.5014 62.9376 46.5404C61.7324 46.6033 60.4714 45.2022 60.3586 43.6749" stroke="#F6F6F6" stroke-width="0.719949" stroke-linecap="round" stroke-linejoin="round"/>
<path d="M67.5224 23.3298C66.5319 24.0497 66.2845 25.6985 64.657 25.6222" stroke="#F6F6F6" stroke-width="0.719949" stroke-linecap="round" stroke-linejoin="round"/>
<path d="M4.19592 37.0839C4.38695 37.1794 4.53374 37.0381 4.77584 36.8044C6.45527 35.1839 8.36331 34.9905 10.5 36.2243" stroke="#F6F6F6" stroke-width="0.719949" stroke-linecap="round" stroke-linejoin="round"/>
<path d="M9.06707 13.8738C8.93615 14.7889 9.37669 15.3713 10.2176 15.5752C10.9144 15.7442 11.1365 16.3971 11.646 16.7393" stroke="#F6F6F6" stroke-width="0.719949" stroke-linecap="round" stroke-linejoin="round"/>
<path d="M61.7918 24.4761C62.241 24.8099 62.4687 25.5316 63.2237 25.3325C64.2425 25.0639 64.5274 25.8648 64.9438 26.4819" stroke="#F6F6F6" stroke-width="0.719949" stroke-linecap="round" stroke-linejoin="round"/>
<mask id="mask0_1763_23741" style="mask-type:luminance" maskUnits="userSpaceOnUse" x="29" y="20" width="14" height="19">
<path d="M41.8247 20.77H29.627V37.8018H41.8247V20.77Z" fill="white" stroke="white" stroke-width="0.719949"/>
</mask>
<g mask="url(#mask0_1763_23741)">
<path d="M40.517 32.6648C39.8984 34.9387 37.987 36.5938 35.7254 36.5938C33.4636 36.5938 31.5522 34.9387 30.9337 32.6648H32.1975C32.7557 34.2572 34.1257 35.3855 35.7254 35.3855C37.325 35.3855 38.6949 34.2572 39.2531 32.6648H40.517Z" fill="#F6F6F6" stroke="#F6F6F6" stroke-width="0.719949"/>
<path d="M35.7254 35.3855C34.1259 35.3855 32.7557 34.257 32.1975 32.6648H29.6895C30.3515 35.6103 32.8065 37.8019 35.7254 37.8019C38.6467 37.8019 41.1019 35.6103 41.7614 32.6648H39.2533C38.6952 34.257 37.325 35.3855 35.7254 35.3855Z" fill="#F6F6F6" stroke="#F6F6F6" stroke-width="0.719949"/>
<path d="M35.7259 24.6386C37.1635 26.5572 38.8115 29.1137 39.3432 30.8486H41.8247C41.1095 27.4199 37.1539 22.5099 36.6609 21.9106L35.7259 20.77L34.7908 21.9106C34.3001 22.5099 30.3423 27.4199 29.627 30.8486H32.1085C32.6402 29.1137 34.2905 26.5572 35.7259 24.6386Z" fill="#F6F6F6" stroke="#F6F6F6" stroke-width="0.719949"/>
</g>
</svg>
