<svg width="350" height="250" viewBox="0 0 350 250" fill="none" xmlns="http://www.w3.org/2000/svg">
<rect width="350" height="250" rx="20" fill="#E8F4F9"/>
<path d="M49.0054 125.326C48.9924 128.74 46.4199 131.361 43.0656 131.378C39.6045 131.394 36.9191 128.623 37.0019 125.12C37.0803 121.8 39.8913 119.063 43.1325 119.149C46.4622 119.239 49.0182 121.927 49.0054 125.326Z" fill="#264164"/>
<path d="M67.3939 143.816C67.34 147.21 64.7286 149.809 61.3827 149.798C57.9607 149.786 55.3211 146.995 55.4091 143.483C55.4916 140.19 58.2813 137.408 61.4598 137.448C64.8421 137.49 67.4498 140.288 67.3939 143.816Z" fill="#264164"/>
<path d="M67.3933 125.403C67.3772 128.78 64.7941 131.375 61.427 131.398C57.9825 131.421 55.3261 128.679 55.4005 125.177C55.4714 121.839 58.1782 118.926 61.3799 119.108C64.4912 119.284 67.3817 121.223 67.3933 125.403Z" fill="#264164"/>
<path d="M85.8272 125.335C85.7794 128.728 83.175 131.374 79.8582 131.398C76.4185 131.423 73.7822 128.721 73.8098 125.198C73.8367 121.751 76.707 118.908 80.0021 119.063C83.2398 119.216 85.8734 122.052 85.8272 125.335Z" fill="#264164"/>
<path d="M61.4099 101C64.9656 101.022 67.3753 103.403 67.3933 106.912C67.4116 110.492 64.8252 113.052 61.2507 112.991C57.8409 112.932 55.3549 110.329 55.406 106.87C55.4586 103.315 57.8489 100.978 61.4099 101Z" fill="#264164"/>
<path d="M119.396 132.763V124.59H108.867V132.763H106.648V114.9H108.867V122.56H119.396V114.9H121.615V132.763H119.396Z" fill="#264164"/>
<path d="M128.19 132.763V114.9H138.231V116.768H130.409V122.722H136.878V124.59H130.409V130.896H138.475V132.763H128.19Z" fill="#264164"/>
<path d="M143.453 132.763V114.9H145.673V130.896H153.657V132.763H143.453Z" fill="#264164"/>
<path d="M166.539 117.931C165.619 117.39 165.24 117.201 164.672 117.011C163.995 116.795 162.912 116.632 162.209 116.632C160.179 116.632 158.798 117.634 158.798 119.149C158.798 120.476 159.583 121.152 163.21 123.074C164.428 123.723 165.375 124.319 166.025 124.887C166.891 125.618 167.405 126.836 167.405 128.135C167.405 131.193 165.132 133.115 161.532 133.115C160.314 133.115 159.177 132.899 158.23 132.52C157.553 132.249 157.093 131.979 155.929 131.193L157.066 129.434C158.068 130.111 158.501 130.355 159.123 130.598C159.908 130.896 160.774 131.058 161.694 131.058C163.806 131.058 165.078 130.057 165.078 128.352C165.078 127.837 164.996 127.404 164.807 127.08C164.509 126.538 163.995 126.024 163.291 125.618C162.994 125.456 161.992 124.941 160.314 124.021C157.635 122.587 156.498 121.179 156.498 119.339C156.498 116.497 158.852 114.603 162.398 114.603C163.427 114.603 164.482 114.738 165.403 115.035C166.133 115.279 166.566 115.496 167.568 116.091L166.539 117.931Z" fill="#264164"/>
<path d="M172.655 132.763V114.9H182.696V116.768H174.874V122.722H181.343V124.59H174.874V130.896H182.939V132.763H172.655Z" fill="#264164"/>
<path d="M201.965 132.763H195.36V114.9H201.152C202.885 114.9 203.832 115.198 204.725 116.01C205.591 116.822 206.133 118.04 206.133 119.285C206.133 121.206 204.969 122.749 203.074 123.399C205.456 123.859 206.809 125.537 206.809 128C206.809 130.842 204.861 132.763 201.965 132.763ZM203.047 117.417C202.587 116.93 202.019 116.768 200.638 116.768H197.58V122.56H200.476C201.748 122.56 202.316 122.37 202.912 121.775C203.453 121.233 203.778 120.395 203.778 119.474C203.778 118.608 203.507 117.877 203.047 117.417ZM200.638 124.59H197.58V130.896H200.638C202.262 130.896 202.885 130.733 203.507 130.219C204.075 129.732 204.454 128.785 204.454 127.837C204.454 125.753 203.074 124.59 200.638 124.59Z" fill="#264164"/>
<path d="M212.031 132.763V114.9H222.072V116.768H214.25V122.722H220.719V124.59H214.25V130.896H222.316V132.763H212.031Z" fill="#264164"/>
<path d="M236.822 132.763L231.896 125.104H229.514V132.763H227.294V114.9H232.735C234.9 114.9 235.928 115.225 236.957 116.226C237.823 117.065 238.364 118.365 238.364 119.718C238.364 121.125 237.796 122.478 236.795 123.426C236.064 124.156 235.414 124.481 234.088 124.779L239.366 132.763H236.822ZM235.008 117.282C234.467 116.849 234.007 116.768 232.41 116.768H229.514V123.236H232.41C234.765 123.236 235.982 122.045 235.982 119.745C235.982 118.608 235.658 117.796 235.008 117.282Z" fill="#264164"/>
<path d="M256.064 132.52C254.846 132.899 253.06 133.115 251.571 133.115C246.185 133.115 242.044 129.083 242.044 123.804C242.044 118.5 246.05 114.603 251.49 114.603C252.762 114.603 254.25 114.765 255.198 115.008C255.983 115.225 256.389 115.414 257.363 115.956L256.524 117.796C256.091 117.553 255.793 117.417 255.577 117.309C254.548 116.876 253.141 116.605 251.706 116.605C249.189 116.605 247.565 117.282 246.185 118.879C245.076 120.178 244.426 121.883 244.426 123.642C244.426 127.946 247.728 131.112 252.194 131.112C253.087 131.112 253.709 131.031 255.144 130.733V124.779H257.363V132.087C256.795 132.303 256.362 132.438 256.064 132.52Z" fill="#264164"/>
<path d="M263.478 132.763V114.9H273.519V116.768H265.698V122.722H272.166V124.59H265.698V130.896H273.763V132.763H263.478Z" fill="#264164"/>
<path d="M290.813 132.926L281.8 118.987C281.719 118.852 281.583 118.635 281.448 118.365C281.204 117.931 281.069 117.688 280.961 117.282V132.763H278.741V114.9H281.637L290.488 128.514C290.569 128.622 290.677 128.812 290.732 128.947L291.165 130.03V114.9H293.384V132.926H290.813Z" fill="#264164"/>
</svg>
