<svg width="350" height="250" viewBox="0 0 350 250" fill="none" xmlns="http://www.w3.org/2000/svg">
<rect width="350" height="250" rx="20" fill="#E8F4F9"/>
<path d="M271.282 146.772V111.957C272.347 111.338 273.235 111.498 274.085 111.496C279.551 111.483 285.016 111.502 290.481 111.476C291.317 111.472 292.23 111.742 293 111.043V102.234H238.152C238.078 105.337 238.018 108.294 238.193 111.42C245.505 111.615 252.601 111.353 259.941 111.578V146.772H271.282Z" fill="#264164"/>
<path d="M220.079 102.217C214.25 107.381 208.403 112.56 202.467 117.819C200.567 116.145 198.844 114.646 197.142 113.124C193.543 109.904 189.954 106.674 186.362 103.446C185.529 102.698 184.701 102.06 183.453 102.075C179.023 102.125 174.593 102.094 170.162 102.094C170.089 102.227 170.015 102.36 169.941 102.493C178.038 109.785 186.135 117.078 194.223 124.363C194.015 124.628 193.944 124.796 193.819 124.864C193.264 125.164 192.693 125.435 192.129 125.718C184.536 129.53 179.99 135.641 178.368 143.953C178.189 144.873 178.054 145.799 178.409 146.76H188.374C188.592 145.93 188.775 145.245 188.952 144.558C190.627 138.059 196.169 133.719 202.815 133.704C209.444 133.69 215.031 138.062 216.664 144.552C216.854 145.307 216.869 146.123 217.629 146.917C219.121 146.917 220.775 146.955 222.426 146.906C224.064 146.857 225.727 147.148 227.383 146.667C227.414 146.28 227.496 145.963 227.457 145.662C226.213 136.127 221.378 129.211 212.529 125.214C211.997 124.974 211.26 124.949 211.033 124.018C218.97 116.879 226.946 109.707 235.274 102.217H220.079Z" fill="#264164"/>
<path d="M97.9746 146.697C101.726 147.155 111.963 147.005 113.657 146.485C113.703 146.134 113.797 145.749 113.798 145.364C113.806 131.51 113.807 117.656 113.802 103.802C113.802 103.259 113.87 102.678 113.352 102.279C110.638 101.934 104.468 102.016 102.511 102.481V135.327C102.302 135.392 102.093 135.457 101.884 135.522C91.7233 124.366 81.5631 113.211 71.5458 102.212C65.7774 101.834 57.8708 101.981 56.0892 102.498C56.059 103.099 55.9986 103.726 56 104.353C56.0337 118.361 56.0741 132.369 56.1177 146.377C56.1179 146.446 56.1717 146.523 56.2189 146.581C56.2677 146.642 56.3393 146.683 56.4008 146.733C59.7039 147.133 65.5632 147.012 67.3063 146.468V126.814C67.3063 124.597 67.2653 122.379 67.318 120.164C67.3694 118.003 67.0835 115.821 67.5897 113.312C77.9188 124.661 88.0235 135.763 97.9746 146.697Z" fill="#264164"/>
<path d="M133.661 128.527C143.561 128.513 153.462 128.526 163.363 128.506C164.281 128.505 165.26 128.751 166.092 128.174C166.487 125.258 166.398 122.302 165.868 120.665C165.032 120.364 164.155 120.498 163.294 120.497C153.314 120.487 143.334 120.498 133.354 120.477C132.442 120.475 131.45 120.759 130.458 119.907C130.458 117.507 130.455 114.982 130.46 112.456C130.461 112.063 130.48 111.665 130.837 111.296C131.651 110.809 132.624 111.026 133.554 111.025C143.454 111.008 153.355 111.018 163.256 111.007C164.183 111.007 165.142 111.154 165.987 110.771C166.476 108.297 166.412 104.018 165.885 102.303C163.207 101.928 121.183 102.016 119.43 102.4C118.987 104.592 119.036 144.821 119.495 146.695C119.694 146.755 119.915 146.879 120.136 146.88C134.868 146.898 149.6 146.907 164.332 146.911C164.804 146.911 165.277 146.846 165.748 146.799C165.816 146.792 165.878 146.713 165.938 146.662C165.996 146.612 166.049 146.555 166.201 146.404V138.036C162.033 137.956 158.094 138.006 154.157 137.997C150.276 137.988 146.394 138.015 142.513 137.989C138.581 137.963 134.641 138.105 130.777 137.899C130.267 135.248 130.343 130.459 130.873 128.741C131.766 128.355 132.726 128.528 133.661 128.527Z" fill="#264164"/>
</svg>
