<svg width="350" height="250" viewBox="0 0 350 250" fill="none" xmlns="http://www.w3.org/2000/svg">
<rect width="350" height="250" rx="20" fill="#264164"/>
<path fill-rule="evenodd" clip-rule="evenodd" d="M189.828 92.3114C190.066 90.0395 188.695 88.032 186.763 87.8214C184.892 87.6213 183.185 89.1881 182.867 91.3555C182.665 92.2815 182.671 93.0164 182.611 94.0232C182.557 94.9149 181.442 98.0905 182.43 98.3519C183.404 98.6103 186.437 96.6924 187.904 95.5721C188.923 94.9388 189.679 93.7424 189.828 92.3114Z" fill="#E8F4F9"/>
<path fill-rule="evenodd" clip-rule="evenodd" d="M82.3789 160.581C82.8039 160.056 83.2053 159.248 85.3697 158.711C85.3697 158.711 158.903 133.34 256.728 138.415C256.728 138.415 262.281 138.205 260.774 140.677C259.889 142.124 258.238 142.214 255.103 142.381C255.103 142.381 254.037 142.544 249.879 142.5C249.879 142.5 259.882 146.445 220.391 145.625C220.391 145.625 223.877 149.24 209.357 148.199C209.357 148.199 168.859 146.326 87.0077 161.397C87.0077 161.397 80.5689 162.81 82.3789 160.581Z" fill="#E8F4F9"/>
<path fill-rule="evenodd" clip-rule="evenodd" d="M202.904 106.433C200.494 101.179 198.806 105.62 198.806 105.62C197.197 110.176 187.072 121.753 185.064 123.798C176.615 131.249 179.535 126.606 178.86 123.268C178.86 123.268 179.213 117.215 180.897 115.837C180.897 115.837 181.779 116.243 182.467 112.569C182.467 112.569 184.509 107.787 179.065 106.888C179.065 106.888 175.337 104.3 173.649 111.617C173.649 111.617 170.466 125.44 174.812 131.762C174.812 131.762 177.06 135.913 188.475 124.6L188.446 124.569C192.438 120.587 198.468 113.396 198.468 113.396C204.849 125.29 195.108 128.49 195.108 128.49C191.466 130.902 195.174 131.465 195.174 131.465C210.156 131.78 211.36 122.581 211.36 122.581C211.72 115.97 202.904 106.433 202.904 106.433ZM165.437 78.5097C165.437 78.5097 160.567 72.2721 161.391 79.4642C161.391 79.4642 162.055 94.4682 159.616 113.138C159.32 112.358 158.928 111.62 158.449 110.94C158.449 110.94 154.204 105.191 149.443 106.785C149.443 106.785 143.37 108.728 139.851 118.041C139.851 118.041 137.369 124.478 138.075 129.326C138.075 129.326 137.84 142.057 153.095 133.063C153.095 133.063 154.709 132.063 156.602 130.11C156.234 131.7 155.64 132.742 155.578 134.378C155.578 134.378 155.033 137.739 156.546 138.584C157.125 138.908 157.746 138.459 159.09 135.192C159.09 135.192 169.937 106.924 170.516 95.2539C170.519 95.2539 174.329 89.4614 165.437 78.5097ZM146.527 129.383C146.527 129.383 145.403 128.624 145.476 125.21C145.476 125.21 145.789 119.277 149.757 114.524C149.757 114.524 150.861 113.102 151.763 112.927C152.064 112.869 152.551 113.317 152.779 115.13C152.833 115.575 151.573 115.668 152.032 117.087C152.032 117.087 154.143 122.514 158.59 120.065C158.403 121.188 158.204 122.308 157.994 123.426C155.677 126.694 150.806 132.342 146.527 129.383ZM252.038 104.652C252.038 104.652 241.639 120.354 241.679 125.582C241.679 125.582 241.248 130.412 246.647 130.219C246.647 130.219 252.086 129.898 255.987 126.62C255.987 126.62 258.494 124.089 259.958 123.797C259.958 123.797 263.49 124.17 262.362 119.381C262.362 119.381 261.182 113.974 259.855 111.922C259.855 111.922 258.659 109.511 257.176 110.431C257.176 110.431 255.781 111.085 256.243 113.631C256.243 113.631 256.119 113.723 256.837 115.799C256.837 115.799 258.525 121.042 257.532 121.186C257.532 121.186 257.062 121.247 256.519 121.767C256.2 122.071 255.577 122.767 254.896 123.254C254.896 123.254 250.147 126.494 251.205 121.916C251.205 121.916 251.849 119.168 252.518 117.459C252.518 117.459 255.166 109.914 258.09 105.878C258.09 105.878 260.936 102.416 257.469 102.682C257.251 102.698 256.731 102.869 256.481 102.728C256.479 102.728 254.65 101.142 252.038 104.652ZM230.314 111.541C228.473 110.361 226.391 106.008 228.015 103.946C228.726 103.042 230.169 102.243 229.956 100.969C229.485 98.1397 224.643 100.979 223.737 104.341C221.936 109.432 216.503 112.688 216.503 112.688C215.624 113.487 215.418 115.565 215.418 115.565C215.249 119.32 217.609 116.676 217.609 116.676L223.399 112.116C229.781 124.009 220.039 127.21 220.039 127.21C218.753 127.709 218.443 128.312 218.44 129.071C218.47 130.098 220.106 130.188 220.106 130.188C235.086 130.5 236.288 121.301 236.288 121.301C236.978 117.223 232.805 113.306 230.314 111.541ZM133.746 129.903C133.746 129.903 133.717 129.728 133.564 129.585C133.161 129.302 131.181 130.209 129.215 131.411C128.902 131.601 128.619 131.767 128.356 131.916C127.634 132.372 126.939 132.826 126.658 133.071C126.658 133.071 125.393 134.096 125.531 131.794L125.537 131.703H125.534C125.559 131.189 125.655 130.539 125.686 129.842C125.686 129.842 127.419 122.808 128.169 120.839C128.169 120.839 128.581 118.984 129.228 116.87C129.228 116.87 132.179 113.75 126.756 112.739C126.756 112.739 124.16 106.265 121.372 116.464L121.37 116.461C121.175 115.411 120.231 113.795 118.769 113.157C118.48 112.987 118.065 112.863 117.491 112.814C117.275 112.791 117.13 112.851 116.652 112.787C116.652 112.787 114.052 111.877 111.264 115.414C108.305 118.727 99.6618 129.252 101.635 138.066C101.635 138.066 102.704 142.626 106.695 142.602C106.695 142.602 111.972 142.663 115.961 138.822C115.961 138.822 117.158 137.748 118.44 136.158C118.488 136.698 118.572 137.296 118.725 137.882C118.75 137.999 118.777 138.112 118.807 138.221C118.807 138.221 118.956 139.246 119.779 140.018C120.387 140.587 121.361 141.019 122.917 140.805C123.073 140.771 123.235 140.729 123.404 140.68C123.404 140.68 128.99 139.305 128.854 136.893C128.785 135.703 129.21 135.467 129.21 135.467C129.21 135.467 129.566 135.265 129.438 134.848C129.44 134.845 133.896 131.816 133.746 129.903ZM117.643 133.261C117.181 134.01 116.742 134.859 115.552 135.633C115.552 135.633 109.441 139.434 109.654 134.066C109.654 134.066 109.857 131.093 110.865 128.324C110.865 128.324 113.679 121.06 118.04 116.824C118.441 116.415 118.788 116.375 119.012 116.681C119.619 117.528 119.723 118.493 120.187 119.28C120.309 119.489 120.442 119.704 120.587 119.913C120.066 122.636 118.724 127.804 118.5 131.71C118.335 132.248 117.953 132.753 117.643 133.261ZM75.0361 103.802C74.6273 103.046 73.7304 103.469 71.5616 107.018C71.5616 107.018 53.0746 138.748 49.3458 153.796C49.3458 153.796 45.239 164.184 50.7309 167.921C50.7309 167.921 51.9557 169.887 53.4496 170.241C53.8686 172.497 54.6553 174.567 56.1786 173.859C56.7123 173.611 56.7888 171.768 56.7329 169.968L56.7564 169.977C56.7268 168.685 56.8258 167.394 57.052 166.123C57.1711 165.7 57.2887 165.257 57.4005 164.755L57.6328 163.818C57.665 163.718 57.7003 163.619 57.7387 163.521L57.7034 163.533C59.3972 156.753 67.8665 123.511 74.642 109.435C74.6435 109.433 76.2109 105.978 75.0361 103.802Z" fill="#E8F4F9"/>
<path fill-rule="evenodd" clip-rule="evenodd" d="M103.129 157C103.129 157 87.2033 132.697 85.5829 127.534C85.5829 127.534 84.8727 125.568 83.9023 124.446C85.0652 124.439 86.2277 124.4 87.3885 124.33C87.3885 124.33 95.8358 124.164 99.4 117.54C100.379 115.722 102.269 109.48 94.983 101.647C94.983 101.647 85.7829 90.5442 64.8742 89.1342C64.8742 89.1342 59.228 86.4232 48.4649 95.4779C48.4649 95.4779 44.4185 98.752 46.6946 99.5227C47.7342 99.8663 48.462 99.8633 49.4104 99.5855C49.4104 99.5855 66.8842 93.5809 88.5825 106.246C88.5825 106.246 97.1429 111.744 91.8143 117.23C91.8143 117.23 89.7029 119.608 84.314 120.482C84.314 120.482 83.0289 120.723 80.4969 120.994C80.4969 120.994 79.2427 121.103 77.5179 121.184C77.5179 121.184 75.3315 121.166 75.1036 121.822C75.0007 122.227 75.3712 122.378 76.5563 122.957C76.549 122.954 76.5637 122.96 76.5563 122.957C74.2934 123.215 73.445 123.55 72.9113 124.149C72.9113 124.149 72.4702 124.684 72.6907 125.28C74.2023 129.35 81.1042 146.115 96.7165 159.267C96.7165 159.267 105.692 166.392 107.685 164.629C108.303 164.086 106.059 161.153 103.129 157ZM298.933 126.609C296.432 125.045 289.526 110.948 289.526 110.948C287.926 108.506 285.187 111.469 285.187 111.469C283.325 112.92 280.767 117.462 279.449 120.189C277.692 123.242 278.139 119.257 278.139 119.257C278.226 118.17 278.55 116.449 279.736 115.652C279.736 115.652 280.658 116.431 281.686 112.84C281.686 112.84 283.63 108.132 278.823 106.86C278.823 106.86 275.352 103.926 272.993 111.049C272.993 111.049 269.742 121.371 271.04 127.804C271.04 127.804 271.646 135.349 277.922 129.444C278.551 128.853 279.22 127.939 279.923 126.923C281.204 124.9 281.568 124.165 282.462 122.052C284.011 118.394 286.713 115.084 287.195 114.537C286.842 118.818 291.721 130.148 291.721 130.148C293.415 135.924 296.178 135.715 296.178 135.715C310.383 136.199 298.933 126.609 298.933 126.609ZM301.154 111.148C302.642 111.148 303.884 112.35 303.884 113.914C303.884 114.278 303.814 114.639 303.676 114.975C303.539 115.311 303.338 115.616 303.084 115.873C302.83 116.13 302.529 116.333 302.198 116.472C301.867 116.61 301.512 116.681 301.154 116.679C300.795 116.681 300.44 116.611 300.109 116.472C299.777 116.334 299.476 116.131 299.222 115.874C298.968 115.617 298.767 115.311 298.63 114.975C298.493 114.639 298.422 114.278 298.423 113.914C298.423 112.35 299.661 111.148 301.154 111.148ZM301.154 117.217C301.582 117.22 302.006 117.137 302.403 116.973C302.799 116.808 303.16 116.565 303.463 116.258C303.766 115.95 304.006 115.585 304.169 115.183C304.333 114.781 304.415 114.349 304.413 113.914C304.416 113.479 304.333 113.048 304.17 112.645C304.007 112.243 303.767 111.877 303.463 111.57C303.16 111.263 302.8 111.02 302.403 110.855C302.007 110.69 301.582 110.607 301.154 110.61C300.725 110.607 300.3 110.689 299.903 110.854C299.506 111.019 299.145 111.262 298.842 111.569C298.538 111.876 298.298 112.242 298.135 112.645C297.971 113.047 297.888 113.479 297.891 113.914C297.889 114.35 297.972 114.781 298.135 115.184C298.298 115.586 298.539 115.951 298.842 116.259C299.146 116.566 299.507 116.809 299.903 116.973C300.3 117.138 300.725 117.221 301.154 117.217ZM301.717 114.08C302.205 114.064 302.693 113.795 302.693 113.064C302.693 112.282 302.096 112.08 301.433 112.08H299.893V115.795H300.424V114.08H301.102L302.039 115.795H302.642L301.717 114.08ZM301.334 112.618C301.774 112.618 302.164 112.651 302.164 113.123C302.164 113.626 301.483 113.542 300.986 113.542H300.423V112.618H301.334Z" fill="#E8F4F9"/>
<path fill-rule="evenodd" clip-rule="evenodd" d="M267.422 139.002C270.411 139.189 273.774 139.232 278.435 139.688C280.855 139.927 284.59 139.927 285.118 141.524C285.603 142.987 283.78 144.493 280.526 145.135C278.875 145.459 277.835 145.733 276.347 145.68C274.587 145.616 270.818 145.76 270.713 143.694C270.632 142.408 268.17 142.417 266.525 142.353C263.237 142.221 263.572 141.276 264.288 140.136C264.716 139.437 265.618 138.984 267.422 139.002Z" fill="#E8F4F9"/>
</svg>
