<svg width="350" height="250" viewBox="0 0 350 250" fill="none" xmlns="http://www.w3.org/2000/svg">
<rect width="350" height="250" rx="20" fill="#264164"/>
<path d="M119.034 125.498C119.034 115.91 118.949 106.32 119.066 96.7322C119.135 91.1279 119.962 85.6479 123.246 80.8424C128.389 73.319 135.817 70.15 144.623 70.097C164.609 69.977 184.598 69.9563 204.585 70.1038C214.62 70.1779 222.896 74.0806 227.3 83.4652C229.092 87.2835 229.973 91.8537 230.034 96.0993C230.313 115.696 230.215 135.299 230.129 154.899C230.09 163.829 227.089 171.432 219.426 176.713C214.881 179.844 209.694 180.869 204.373 180.9C184.527 181.017 164.68 181.047 144.834 180.904C134.461 180.83 126.225 176.701 121.516 167.015C119.374 162.611 119.056 157.799 119.028 152.996C118.976 143.83 119.013 134.664 119.013 125.498C119.02 125.498 119.027 125.498 119.034 125.498ZM182.627 96.8329V121.106C187.877 121.106 192.885 121.318 197.855 120.984C199.46 120.877 201.311 119.646 202.456 118.39C205.75 114.773 205.222 110.152 201.282 105.402C201.62 104.768 202.016 104.113 202.331 103.421C204.423 98.8272 201.878 92.6748 197.366 92.3485C191.841 91.9488 186.264 92.2532 180.564 92.2532V96.4064C181.194 96.5366 181.727 96.6468 182.627 96.8329ZM178.146 116.625C175.087 108.459 172.038 100.321 169.04 92.3195H159.257C159.663 94.02 158.37 95.9118 160.686 97.0293C157.723 105.009 154.757 112.995 151.758 121.067H157.141C158.038 118.783 158.903 116.582 159.765 114.389C163.46 114.389 166.917 114.316 170.365 114.452C171.044 114.479 171.982 115.173 172.297 115.809C173.133 117.492 173.693 119.312 174.337 121.009H180.693V116.889C179.844 116.801 179.152 116.729 178.146 116.625ZM149.807 92.2482C145.616 92.2482 141.513 91.9701 137.483 92.3892C135.935 92.5501 134.133 94.0083 133.175 95.3813C130.258 99.5589 132.198 105.103 137.221 107.18C139.142 107.974 141.303 108.194 143.354 108.676C145.464 109.171 146.457 110.595 146.388 112.663C146.317 114.803 145.191 116.403 143.013 116.627C140.659 116.868 138.26 116.681 135.775 116.681C135.66 115.425 135.561 114.341 135.462 113.256H131.543V121.071C135.601 121.071 139.55 121.269 143.469 121.006C146.371 120.811 148.585 119.109 149.897 116.431C152.649 110.814 149.323 105.123 142.772 104.06C141.132 103.794 139.289 103.501 138.031 102.563C137.072 101.848 136.547 100.107 136.5 98.7978C136.475 98.0861 137.776 96.7991 138.604 96.6866C140.804 96.3874 143.072 96.585 145.249 96.585C145.447 97.4351 145.586 98.0347 145.717 98.5999H149.807V92.2482ZM203.097 143.587H193.943V134.033H187.544V137.353C188.218 137.555 188.845 137.743 189.583 137.964V158.993H194.063V147.678H203.155V159.121H207.43V134.132H203.097V143.587ZM147.621 137.91C147.621 138.978 147.619 139.957 147.621 140.936C147.629 144.531 147.508 148.133 147.675 151.721C147.926 157.096 151.42 159.849 157.52 159.711C162.865 159.59 166.014 156.504 166.058 151.309C166.084 148.348 166.065 145.387 166.065 142.425C166.066 139.629 166.066 136.833 166.066 134.021H161.609C161.609 134.926 161.609 135.684 161.609 136.443C161.609 141.237 161.62 146.031 161.605 150.825C161.594 154.123 160.489 155.193 157.119 155.232C153.351 155.275 152.134 154.281 152.069 150.898C152.001 147.374 152.051 143.848 152.051 140.323C152.05 138.232 152.05 136.142 152.05 134.056H145.911V137.395C146.488 137.569 147 137.723 147.621 137.91ZM143.515 134.014C139.675 134.014 136.024 133.952 132.378 134.065C131.62 134.088 130.781 134.636 130.152 135.152C126.188 138.406 127.327 144.776 132.328 146.896C133.988 147.601 135.853 147.846 137.64 148.224C139.506 148.618 140.478 149.736 140.475 151.605C140.472 153.422 139.613 154.913 137.786 155.149C135.674 155.421 133.5 155.212 131.298 155.212C131.217 154.177 131.147 153.289 131.072 152.349H127.439V158.941C131.23 158.941 134.884 159.111 138.512 158.879C140.826 158.731 142.483 157.171 143.517 155.084C145.954 150.169 143.07 145.184 137.337 144.235C135.903 143.998 134.278 143.747 133.2 142.912C132.346 142.25 131.905 140.698 131.852 139.515C131.826 138.926 133.021 137.842 133.765 137.744C135.688 137.489 137.667 137.658 139.577 137.658C139.795 138.397 139.946 138.908 140.125 139.517C141.297 139.464 142.381 139.415 143.515 139.364V134.014ZM169.089 158.896C172.945 158.896 176.678 159.12 180.368 158.82C182.948 158.61 184.591 156.666 185.494 154.286C187.317 149.487 184.259 145.115 178.744 144.173C177.043 143.883 175.332 143.023 173.914 142.019C173.353 141.622 173.195 139.945 173.552 139.172C173.89 138.442 175.101 137.829 176.003 137.704C177.659 137.473 179.371 137.638 181.122 137.638C181.344 138.301 181.531 138.861 181.699 139.361H185.02V133.971C181.373 133.971 177.831 133.727 174.353 134.092C172.98 134.236 171.372 135.471 170.527 136.67C168.064 140.168 169.742 145.146 173.861 146.855C175.53 147.547 177.375 147.852 179.166 148.204C181.159 148.595 182.142 149.79 182.102 151.728C182.063 153.641 181.052 155.035 179.095 155.225C177.085 155.419 175.042 155.268 172.954 155.268C172.837 154.229 172.73 153.28 172.623 152.337H169.089V158.896ZM213.764 121.087V92.2992H206.601V96.3477C207.373 96.5009 208.042 96.6337 208.951 96.8142V121.087H213.764ZM216.919 159.144V134.072H210.778V137.377C211.429 137.589 211.992 137.773 212.772 138.027V159.144H216.919Z" fill="#E8F4F9"/>
<path d="M187.764 108.002C190.598 108.002 193.207 107.878 195.799 108.032C199.381 108.245 201.388 112.156 199.452 115.148C198.985 115.87 197.95 116.609 197.137 116.656C194.067 116.832 190.98 116.727 187.764 116.727V108.002Z" fill="#E8F4F9"/>
<path d="M187.739 103.486V96.6161C190.685 96.6161 193.546 96.4933 196.39 96.6594C198.278 96.7696 198.621 98.4415 198.65 99.9298C198.684 101.693 197.866 103.266 195.99 103.426C193.293 103.658 190.562 103.486 187.739 103.486Z" fill="#E8F4F9"/>
<path d="M169.812 109.061H161.693C163.018 105.526 164.278 102.165 165.774 98.1772C167.25 102.155 168.488 105.493 169.812 109.061Z" fill="#E8F4F9"/>
</svg>
