<svg width="370" height="250" viewBox="0 0 370 250" fill="none" xmlns="http://www.w3.org/2000/svg">
<rect width="350" height="250" rx="20" fill="#264164"/>
<path d="M43.7206 136.339V114.299H48.5307L48.7279 119.602H48.3533C48.6687 118.288 49.1581 117.217 49.822 116.389C50.4855 115.561 51.2611 114.947 52.1482 114.546C53.0353 114.145 53.965 113.945 54.9377 113.945C56.5277 113.945 57.8124 114.444 58.7917 115.443C59.7706 116.442 60.4639 117.914 60.8715 119.859H60.2604C60.5625 118.545 61.0785 117.451 61.8079 116.576C62.5373 115.702 63.4047 115.046 64.4101 114.605C65.4155 114.165 66.4899 113.945 67.6333 113.945C68.9605 113.945 70.1499 114.234 71.2014 114.812C72.2527 115.391 73.0872 116.235 73.7051 117.345C74.3226 118.456 74.6316 119.832 74.6316 121.475V136.339H69.5061V122.264C69.5061 120.897 69.1315 119.898 68.3824 119.267C67.6333 118.636 66.7328 118.321 65.6816 118.321C64.8666 118.321 64.1569 118.498 63.5525 118.853C62.9478 119.208 62.4846 119.698 62.1627 120.322C61.8406 120.946 61.6797 121.672 61.6797 122.5V136.339H56.6725V122.027C56.6725 120.91 56.324 120.013 55.6276 119.336C54.9309 118.659 54.0372 118.321 52.9466 118.321C52.1975 118.321 51.5106 118.492 50.8865 118.834C50.2621 119.176 49.7659 119.681 49.3981 120.352C49.03 121.022 48.8461 121.85 48.8461 122.835V136.339H43.7206Z" fill="#E8F4F9"/>
<path d="M90.6431 136.793C88.5007 136.793 86.6412 136.317 85.0641 135.363C83.487 134.411 82.2679 133.084 81.4072 131.381C80.5462 129.679 80.116 127.698 80.116 125.438C80.116 123.151 80.5462 121.15 81.4072 119.435C82.2679 117.72 83.487 116.389 85.0641 115.443C86.6412 114.497 88.5007 114.023 90.6431 114.023C92.7983 114.023 94.6647 114.497 96.2418 115.443C97.8188 116.389 99.0376 117.72 99.8986 119.435C100.759 121.15 101.19 123.151 101.19 125.438C101.19 127.698 100.759 129.679 99.8986 131.381C99.0376 133.084 97.8188 134.411 96.2418 135.363C94.6647 136.317 92.7983 136.793 90.6431 136.793ZM90.6431 132.633C91.8389 132.633 92.8344 132.311 93.6297 131.667C94.4246 131.024 95.0161 130.156 95.4039 129.065C95.7915 127.974 95.9855 126.758 95.9855 125.418C95.9855 124.065 95.7915 122.842 95.4039 121.751C95.0161 120.66 94.4246 119.793 93.6297 119.149C92.8344 118.505 91.8389 118.183 90.6431 118.183C89.4469 118.183 88.458 118.505 87.6762 119.149C86.894 119.793 86.3092 120.657 85.9216 121.741C85.5338 122.826 85.3401 124.051 85.3401 125.418C85.3401 126.758 85.5338 127.974 85.9216 129.065C86.3092 130.156 86.894 131.024 87.6762 131.667C88.458 132.311 89.4469 132.633 90.6431 132.633Z" fill="#E8F4F9"/>
<path d="M111.8 106.966V136.339H106.674V106.966H111.8Z" fill="#E8F4F9"/>
<path d="M127.811 136.793C125.669 136.793 123.809 136.317 122.232 135.363C120.655 134.411 119.436 133.084 118.575 131.381C117.714 129.679 117.284 127.698 117.284 125.438C117.284 123.151 117.714 121.15 118.575 119.435C119.436 117.72 120.655 116.389 122.232 115.443C123.809 114.497 125.669 114.023 127.811 114.023C129.966 114.023 131.833 114.497 133.41 115.443C134.987 116.389 136.206 117.72 137.067 119.435C137.927 121.15 138.358 123.151 138.358 125.438C138.358 127.698 137.927 129.679 137.067 131.381C136.206 133.084 134.987 134.411 133.41 135.363C131.833 136.317 129.966 136.793 127.811 136.793ZM127.811 132.633C129.007 132.633 130.002 132.311 130.798 131.667C131.593 131.024 132.184 130.156 132.572 129.065C132.96 127.974 133.154 126.758 133.154 125.418C133.154 124.065 132.96 122.842 132.572 121.751C132.184 120.66 131.593 119.793 130.798 119.149C130.002 118.505 129.007 118.183 127.811 118.183C126.615 118.183 125.626 118.505 124.844 119.149C124.062 119.793 123.477 120.657 123.09 121.741C122.702 122.826 122.508 124.051 122.508 125.418C122.508 126.758 122.702 127.974 123.09 129.065C123.477 130.156 124.062 131.024 124.844 131.667C125.626 132.311 126.615 132.633 127.811 132.633Z" fill="#E8F4F9"/>
<path d="M144.237 136.339V106.966H147.785V136.339H144.237ZM147.568 128.414V124.018H148.219L157.642 114.299H162.038L151.846 124.767H151.452L147.568 128.414ZM158.174 136.339L149.737 125.556L152.26 123.052L162.728 136.339H158.174Z" fill="#E8F4F9"/>
<path d="M170.953 106.966V136.339H167.404V106.966H170.953Z" fill="#E8F4F9"/>
<path d="M179.985 110.692C179.315 110.692 178.737 110.462 178.251 110.002C177.764 109.542 177.521 108.99 177.521 108.346C177.521 107.689 177.764 107.134 178.251 106.68C178.737 106.227 179.315 106 179.985 106C180.669 106 181.254 106.227 181.74 106.68C182.226 107.134 182.469 107.689 182.469 108.346C182.469 108.99 182.226 109.542 181.74 110.002C181.254 110.462 180.669 110.692 179.985 110.692ZM178.192 136.339V114.299H181.74V136.339H178.192Z" fill="#E8F4F9"/>
<path d="M192.527 123.131V136.339H188.979V114.299H192.389L192.409 119.642H191.916C192.586 117.605 193.542 116.159 194.784 115.305C196.026 114.451 197.482 114.023 199.151 114.023C200.636 114.023 201.937 114.329 203.054 114.94C204.171 115.551 205.042 116.471 205.666 117.7C206.291 118.929 206.603 120.477 206.603 122.343V136.339H203.054V122.638C203.054 120.943 202.611 119.616 201.724 118.656C200.837 117.697 199.624 117.217 198.086 117.217C197.035 117.217 196.089 117.447 195.248 117.907C194.407 118.367 193.743 119.038 193.257 119.918C192.77 120.798 192.527 121.869 192.527 123.131Z" fill="#E8F4F9"/>
<path d="M215.636 110.692C214.965 110.692 214.387 110.462 213.901 110.002C213.415 109.542 213.171 108.99 213.171 108.346C213.171 107.689 213.415 107.134 213.901 106.68C214.387 106.227 214.965 106 215.636 106C216.319 106 216.904 106.227 217.39 106.68C217.876 107.134 218.12 107.689 218.12 108.346C218.12 108.99 217.876 109.542 217.39 110.002C216.904 110.462 216.319 110.692 215.636 110.692ZM213.842 136.339V114.299H217.39V136.339H213.842Z" fill="#E8F4F9"/>
<path d="M224.629 136.339V106.966H228.177V136.339H224.629ZM227.961 128.414V124.018H228.611L238.034 114.299H242.43L232.238 124.767H231.844L227.961 128.414ZM238.566 136.339L230.129 125.556L232.652 123.052L243.12 136.339H238.566Z" fill="#E8F4F9"/>
<path d="M247.797 136.339V106.966H251.345V136.339H247.797ZM251.128 128.414V124.018H251.779L261.202 114.299H265.598L255.406 124.767H255.012L251.128 128.414ZM261.734 136.339L253.297 125.556L255.82 123.052L266.288 136.339H261.734Z" fill="#E8F4F9"/>
<path d="M279.323 136.812C277.194 136.812 275.357 136.339 273.813 135.393C272.268 134.447 271.079 133.126 270.244 131.431C269.41 129.735 268.993 127.757 268.993 125.497C268.993 123.237 269.4 121.246 270.215 119.524C271.03 117.802 272.183 116.455 273.675 115.482C275.166 114.51 276.911 114.023 278.909 114.023C280.078 114.023 281.232 114.218 282.368 114.605C283.505 114.993 284.537 115.617 285.463 116.478C286.39 117.339 287.129 118.472 287.681 119.878C288.233 121.285 288.509 123.006 288.509 125.043V126.522H271.398V123.525H286.597L284.941 124.629C284.941 123.184 284.714 121.899 284.261 120.775C283.808 119.652 283.134 118.771 282.24 118.134C281.346 117.496 280.236 117.178 278.909 117.178C277.581 117.178 276.444 117.503 275.498 118.153C274.552 118.804 273.829 119.652 273.33 120.697C272.83 121.741 272.581 122.862 272.581 124.058V126.049C272.581 127.678 272.863 129.062 273.428 130.199C273.993 131.335 274.785 132.196 275.804 132.781C276.822 133.366 278.002 133.658 279.342 133.658C280.21 133.658 280.998 133.533 281.708 133.284C282.418 133.034 283.029 132.656 283.541 132.15C284.054 131.645 284.448 131.017 284.724 130.268L288.154 131.214C287.812 132.318 287.234 133.291 286.42 134.131C285.604 134.973 284.596 135.63 283.394 136.103C282.191 136.576 280.834 136.812 279.323 136.812Z" fill="#E8F4F9"/>
<path d="M298.153 123.131V136.339H294.605V114.299H298.015L298.035 119.642H297.542C298.212 117.605 299.168 116.159 300.41 115.305C301.652 114.451 303.108 114.023 304.777 114.023C306.262 114.023 307.563 114.329 308.68 114.94C309.797 115.551 310.668 116.471 311.292 117.7C311.916 118.929 312.229 120.477 312.229 122.343V136.339H308.68V122.638C308.68 120.943 308.237 119.616 307.35 118.656C306.462 117.697 305.25 117.217 303.712 117.217C302.661 117.217 301.714 117.447 300.874 117.907C300.032 118.367 299.368 119.038 298.882 119.918C298.396 120.798 298.153 121.869 298.153 123.131Z" fill="#E8F4F9"/>
</svg>
