<svg width="350" height="250" viewBox="0 0 350 250" fill="none" xmlns="http://www.w3.org/2000/svg">
<rect width="350" height="250" rx="20" fill="#264164"/>
<path d="M198.936 87.4311H207.237C207.22 90.5571 207.171 95.0213 207.026 98.65C216.14 87.9058 222.626 75.0722 224.486 71.3623C220.837 73.0939 209.782 78.6043 198.936 87.4311Z" fill="#E8F4F9" stroke="white" stroke-width="0.303474"/>
<path d="M195.183 151.441C192.784 153.608 190.376 155.63 187.867 157.604L190.573 160.31C193.626 156.428 196.91 152.673 200.424 149.064L216.557 165.194C216.148 166.538 216.467 168.028 217.528 169.091C219.062 170.626 221.551 170.626 223.085 169.091C224.619 167.558 224.619 165.07 223.085 163.536C222.036 162.486 220.542 162.155 219.212 162.541L203.072 146.416C206.676 142.906 210.424 139.627 214.299 136.577L211.598 133.879C209.626 136.384 207.585 138.81 205.419 141.207" fill="#E8F4F9"/>
<path d="M195.183 151.441C192.784 153.608 190.376 155.63 187.867 157.604L190.573 160.31C193.626 156.428 196.91 152.673 200.424 149.064L216.557 165.194C216.148 166.538 216.467 168.028 217.528 169.091C219.062 170.626 221.551 170.626 223.085 169.091C224.619 167.558 224.619 165.07 223.085 163.536C222.036 162.486 220.542 162.155 219.212 162.541L203.072 146.416C206.676 142.906 210.424 139.627 214.299 136.577L211.598 133.879C209.626 136.384 207.585 138.81 205.419 141.207" stroke="white" stroke-width="0.30325"/>
<path d="M191.58 147.835C191.685 147.94 195.182 151.44 195.182 151.44C195.182 151.44 198.744 148.138 200.449 146.433C202.148 144.733 205.419 141.207 205.419 141.207C205.419 141.207 199.9 135.682 199.523 135.309C197.637 139.397 194.731 144.01 191.58 147.835Z" fill="#E8F4F9" stroke="white" stroke-width="0.30325"/>
<path d="M154.221 151.441C156.618 153.608 159.026 155.63 161.535 157.604L158.831 160.31C155.776 156.428 152.493 152.673 148.978 149.064L132.847 165.196C133.254 166.538 132.936 168.028 131.874 169.091C130.341 170.626 127.853 170.626 126.318 169.091C124.785 167.558 124.783 165.07 126.318 163.536C127.366 162.486 128.86 162.155 130.191 162.541L146.331 146.416C142.727 142.906 138.98 139.627 135.105 136.577L137.804 133.879C139.778 136.384 141.817 138.81 143.984 141.207" fill="#E8F4F9"/>
<path d="M154.221 151.441C156.618 153.608 159.026 155.63 161.535 157.604L158.831 160.31C155.776 156.428 152.493 152.673 148.978 149.064L132.847 165.196C133.254 166.538 132.936 168.028 131.874 169.091C130.341 170.626 127.853 170.626 126.318 169.091C124.785 167.558 124.783 165.07 126.318 163.536C127.366 162.486 128.86 162.155 130.191 162.541L146.331 146.416C142.727 142.906 138.98 139.627 135.105 136.577L137.804 133.879C139.778 136.384 141.817 138.81 143.984 141.207" stroke="white" stroke-width="0.30325"/>
<path d="M158.042 147.617C157.47 148.19 154.221 151.441 154.221 151.441C154.221 151.441 150.66 148.138 148.954 146.433C147.254 144.733 143.984 141.207 143.984 141.207C143.984 141.207 149.104 136.087 150.149 135.053C152.023 139.183 154.878 143.745 158.042 147.617Z" fill="#E8F4F9" stroke="white" stroke-width="0.297791"/>
<path d="M150.923 87.4265H142.621C142.631 91.2708 142.684 95.0198 142.824 98.6409C133.716 87.898 127.225 75.0709 125.364 71.364C129.016 73.0956 140.078 78.5981 150.923 87.4265Z" fill="#E8F4F9" stroke="white" stroke-width="0.303474"/>
<path d="M142.617 87.4326C142.682 119.205 145.908 143.076 174.937 162.703C203.817 143.076 207.167 119.127 207.24 87.4326H142.617ZM176.883 90.5633C178.873 89.5046 178.617 92.9305 176.968 91.7313C176.907 91.7484 176.878 91.7797 176.873 91.8296C177.215 92.5182 177.381 92.6166 178.36 92.8492C179.136 93.0288 179.614 92.8555 180.066 92.4869C180.041 92.4262 180.004 92.3512 180.004 92.3512C178.408 92.9055 178.655 90.2995 180.154 91.1098C180.525 90.287 181.731 90.4087 181.804 91.461C183.548 91.48 182.477 93.8517 181.369 92.629C181.32 92.6478 181.278 92.6729 181.253 92.7195C181.643 93.4269 181.718 93.6736 182.601 93.8642C183.494 94.1171 183.873 93.914 184.276 93.6674C184.29 93.6316 184.276 93.5691 184.242 93.5317C182.209 93.7345 183.708 90.6616 184.9 92.5743C185.513 92.02 186.028 92.192 186.346 92.4198C186.051 92.8132 184.401 94.9963 184.192 95.2663C182.496 94.8682 177.943 93.8095 176.186 93.3911C176.163 93.2381 175.771 90.2432 175.704 89.7091C176.59 89.6092 176.823 90.4024 176.883 90.5633ZM171.55 97.0448C172.343 97.507 171.713 97.4758 174.412 97.5757C174.476 97.6397 174.878 98.0628 175.02 98.2174C171.599 98.105 171.939 98.1551 171.277 97.6194C171.185 97.4274 171.364 97.0167 171.55 97.0448ZM198.797 117.773C198.857 117.934 198.958 118.277 198.958 118.277L192.275 121.252C192.275 121.4 192.295 121.606 192.295 121.606C193.94 121.08 194.813 122.401 197.191 122.054C197.258 122.228 197.328 122.504 197.328 122.504L192.63 124.673C192.63 127.729 199.095 136.891 190.759 140.215C185.267 141.708 182.266 136.56 179.738 132.449C179.62 130.588 179.514 128.917 179.396 128.002C179.151 127.31 178.965 126.868 178.965 126.868C178.948 126.85 178.914 126.868 178.93 126.901C179.014 127.12 179.329 127.919 179.343 128.011C179.4 128.13 179.738 132.168 179.777 136.273C179.852 137.118 180.277 140.754 180.382 140.862C180.522 141.001 181.244 141.561 181.244 141.683C181.347 142.119 181.125 144.197 180.824 144.517C180.408 144.997 180.29 144.803 180.302 145.707C180.354 147.312 179.631 152.532 179.879 154.453C179.81 154.521 179.56 154.685 179.431 154.685C178.278 154.005 178.305 152.882 176.409 154.531C176.831 156.133 177.857 156.472 175.91 157.451C175.805 157.855 175.997 158.94 176.055 159.243C175.179 159.465 174.437 157.165 174.342 156.745C174.342 156.28 174.868 154.996 174.868 154.738C174.706 154.578 174.626 154.565 174.626 154.565C174.445 154.69 173.352 156.045 172.946 156.045C172.473 155.927 171.916 155.611 171.583 155.212C170.922 155.4 170.056 156.326 170.056 156.326C169.725 155.263 170.354 154.792 171.748 153.574C172.098 153.397 173.697 153.307 173.833 153.169C173.889 153.115 173.978 152.899 173.928 152.876C173.402 152.651 171.861 151.884 171.861 151.586C171.861 151.141 171.874 150.608 172.258 150.173C172.025 149.776 171.422 149.225 170.698 148.76C171.741 148.009 172.574 148.966 174.134 149.629C174.565 150.474 174.889 151.917 175.273 152.078C175.357 152.206 176.106 152.059 176.544 151.725C177.329 149.901 176.119 143.032 175.88 142.139C175.871 142.108 175.86 142.081 175.858 142.067C174.904 139.73 170.862 137.419 169.356 133.973C169.167 132.664 168.893 131.04 169.152 130.388C170.763 127.791 173.157 127.274 174.974 123.28C174.94 123.246 174.962 123.257 174.904 123.257C173.218 127.146 171.011 127.521 169.091 130.349C168.805 131.381 169.258 133.494 169.314 134.003C169.598 134.699 170.404 136.015 171.166 136.777C170.424 138.645 169.224 138.852 169.628 140.704C166.437 141.971 167.203 142.202 165.247 140.774C161.182 140.195 159.986 139.068 157.477 139.335C157.324 139.274 157.187 139.071 157.138 138.874C158.048 137.969 158.568 138.004 157.391 136.175C155.956 137.083 156.186 136.993 154.568 136.768C152.991 136.123 153.128 136.423 152.863 135.45C153.464 135.584 153.792 135.726 154.44 135.633C154.657 134.28 154.505 134.482 156.748 134.416C156.781 134.307 156.784 134.285 156.746 134.098C154.448 133.431 154.774 133.709 154.67 132.958C154.699 132.335 154.793 132.586 155.035 132.009C154.598 131.649 154.613 131.518 153.397 131.18C153.981 130.563 153.939 130.784 155.331 130.925C156.46 131.128 157.091 131.445 158.19 133.386C158.281 133.386 158.369 133.373 158.443 133.342C158.483 133.059 158.503 131.795 158.864 131.342C159.157 131.219 159.917 131.256 160.033 131.267C160.392 130.642 160.295 130.036 160.269 129.431C161.249 130.069 161.035 130.441 161.14 131.176C160.956 133.559 161.282 132.825 159.565 134.649C159.677 134.899 160.074 136.328 160.074 136.579C160.675 136.824 164.6 136.915 165.714 137.052C165.317 136.259 165.504 135.219 166.196 131.1C167.006 127.793 166.669 128.552 169.367 126.982C169.761 126.759 172.32 126.02 172.242 125.777C171.753 124.236 171.759 121.851 169.829 120.17C169.399 119.689 168.844 118.422 168.74 117.984C169.364 117.228 173.107 112.581 173.107 112.581C173.118 112.55 173.085 112.541 173.085 112.541L163.026 125.012C162.619 125.012 162.505 124.882 162.488 124.393C162.405 123.53 162.338 123.353 160.833 123.324C160.274 124.201 160.106 124.523 159.485 125.254C158.974 125.861 158.951 125.627 158.205 125.497C158.205 125.985 158.314 129.567 158.205 129.567C158.022 129.618 156.843 129.652 156.651 129.567V125.769C156.342 125.727 155.816 126.732 155.611 126.793C155.528 126.712 155.371 126.294 155.371 126.128C155.861 125.038 155.748 124.77 156.651 123.945V121.926C156.15 121.769 156.048 122.083 155.714 120.851C155.791 120.215 155.392 120.373 155.044 120.232C154.808 120.16 154.05 120.276 153.75 120.267C154.081 119.466 154.249 119.586 154.726 119.458C155.556 119.133 155.941 119.206 156.651 119.102V106.848C156.228 107.225 156.514 107.421 155.019 106.826C154.036 107.436 153.973 107.973 153.633 108.375C152.935 107.435 153.631 106.754 153.968 106.092C154.835 104.451 155.478 104.705 156.651 104.182V103.939C156.228 103.787 155.558 103.711 155.065 103.567C154.915 103.206 154.723 102.947 154.645 102.01C153.875 101.71 153.854 101.81 152.705 101.81C153.21 100.783 153.041 101.114 154.593 100.844C155.277 100.844 155.909 100.655 156.651 101.219V97.8573C153.901 97.8405 153.404 98.1404 150.268 101.823C148.636 99.2933 147.378 94.1936 147.59 91.0318C151.981 94.1834 153.368 94.8246 156.651 94.9542V93.3521C156.812 93.3083 158.028 93.3053 158.205 93.3521V94.984C158.54 94.986 158.889 94.9868 159.265 94.9868C159.265 95.8112 159.277 97.3118 159.265 97.8802C158.881 97.882 158.534 97.8797 158.205 97.8761V102.049C158.375 102.14 158.693 102.399 158.718 102.283C158.749 101.956 159.004 100.486 159.146 100.393C159.424 100.208 159.882 100.069 160.313 100.013C160.531 99.7508 160.561 99.0028 160.7 98.1925C161.599 98.3409 161.392 99.4214 161.565 99.9366C161.523 101.482 161.904 100.995 160.13 103.286C160.683 103.962 160.9 103.597 161.477 103.831C161.888 104.701 163.15 104.93 166.326 106.691C165.981 107.841 165.568 110.881 165.423 111.262C164.825 110.815 160.409 106.927 160.166 106.897C159.894 106.844 159.429 106.812 159.216 106.812C158.764 106.473 158.77 106.566 159.491 105.68C159.285 105.525 158.32 104.933 158.205 104.877V119.381C158.369 119.58 159.348 120.393 159.485 120.393C159.562 120.376 159.715 120.267 159.736 120.176C159.608 119.967 158.865 118.755 158.831 118.546C158.99 118.196 158.959 117.84 159.58 117.289C159.458 116.16 159.085 116.183 158.824 115.51C159.733 115.415 159.444 115.524 160.503 116.457C161.432 118.188 161.399 117.187 161.399 120.813C161.523 120.936 161.994 121.166 162.14 121.133C162.633 120.267 167.033 112.687 166.744 112.687C166.302 112.634 165.564 112.706 165.033 112.687C165.793 111.082 165.945 106.482 166.91 105.751C170.916 102.229 172.931 101.111 176.127 100.764C176.971 100.661 177.034 100.571 177.399 99.6711C177.57 99.5025 174.67 99.6118 174.367 99.5338C174.5 99.1013 175.006 98.5594 175.181 98.1627C173.925 96.7809 174.642 97.8505 173.913 95.3381C174.258 95.0712 176.05 93.6316 176.203 93.4348C176.48 93.494 183.923 95.2695 184.145 95.2695C184.825 95.3131 185.417 95.4147 185.306 96.183C185.255 97.1634 184.615 97.5726 184.282 98.0614C184.688 104.279 179.743 108.929 179.934 111.789C179.501 111.722 179.211 111.496 178.898 111.41C178.898 112.135 178.677 123.382 178.855 123.78C180.471 125.21 183.139 133.169 185.203 136.165C189.046 141.955 197.03 137.776 191.285 129.499C188.714 124.318 181.036 118.213 192.424 110.807C198.763 106.279 199.609 105.203 200.551 102.719C202.585 94.4248 192.147 94.0796 193.007 99.5604C195.414 100.197 195.006 99.1558 196.249 102.636C196.249 103.579 195.788 106.171 195.615 106.496C195.531 106.582 195.4 106.582 195.212 106.582C195.034 104.596 194.435 104.017 194.149 103.328C194.047 103.261 193.793 103.222 193.824 103.325C194.086 104.302 194.233 104.698 193.824 106.014C192.397 107.441 187.658 110.144 186.351 112.348C186.229 112.348 186.008 112.27 185.945 112.213C186.685 109.446 190.175 105.528 190.845 104.123C190.845 103.945 190.898 103.241 190.854 103.075C190.829 102.956 189.457 103.817 188.743 104.763C188.617 104.701 188.543 104.643 188.475 104.572C188.634 104.145 189.429 102.304 190.804 100.581C190.303 92.0669 202.617 92.501 202.386 101.154C202.178 106.207 197.514 109.578 194.513 113.402C197.367 112.828 197.579 114.097 200.117 113.441C200.24 113.563 200.303 113.936 200.303 113.936C198.385 114.889 192.561 117.52 192.561 117.52L192.503 117.898C195.387 116.83 196.479 118.415 198.797 117.773Z" fill="#E8F4F9"/>
<path d="M175.549 97.6367C175.613 97.8647 175.769 98.2378 175.839 98.2942C176.066 98.3473 178.467 98.3879 178.467 98.3879C178.467 98.3879 178.221 97.7133 178.18 97.7117C177.91 97.6821 175.663 97.6055 175.549 97.6367Z" fill="#E8F4F9"/>
<path d="M174.476 95.8738C174.469 95.9924 174.506 96.0518 174.536 96.108C174.678 96.108 174.978 95.9846 175.103 95.8613C175.109 95.8129 175.098 95.7364 175.046 95.6287C174.901 95.7302 174.637 95.8534 174.476 95.8738Z" fill="#E8F4F9"/>
<path d="M183.33 96.2111C183.989 95.791 184.162 96.0393 184.377 96.1502C184.516 96.7202 184.032 96.9403 183.803 97.2433V97.3494C184.337 96.7248 184.588 96.6983 184.485 96.1002C183.834 95.7364 183.553 96.0174 183.284 96.1533C183.317 96.2143 183.317 96.1971 183.33 96.2111Z" fill="#E8F4F9"/>
<path d="M176.027 94.9588C176.088 94.9588 176.598 94.5294 176.822 94.428C176.822 94.428 177.092 94.4951 177.276 94.5497C177.061 94.5966 176.872 94.7903 176.851 94.9619C176.817 95.2149 177.042 95.4178 177.42 95.4695C177.796 95.5193 178.101 95.3851 178.135 95.1291C178.152 94.9931 178.058 94.7683 177.897 94.6684C178.319 94.7169 179.701 95.0853 179.857 95.2399C179.845 95.168 179.876 95.1978 179.784 95.0744C179.367 94.9276 177.407 94.442 176.784 94.3218C176.667 94.3811 176.013 94.7933 175.947 94.8715C175.947 94.9495 175.966 94.9588 176.027 94.9588Z" fill="#E8F4F9"/>
<path d="M167.633 109.468C167.647 109.491 167.625 109.514 167.662 109.514C170.474 104.953 169.463 105.505 173.963 105.213C173.971 105.205 173.999 105.178 173.986 105.169C169.488 105.459 170.435 104.878 167.633 109.468Z" fill="#E8F4F9"/>
<path d="M158.264 122.076V122.952C158.348 122.983 159.221 122.545 159.316 122.44C159.338 122.304 159.324 122.178 159.268 122.118C159.212 122.064 158.306 122.031 158.264 122.076Z" fill="#E8F4F9"/>
<path d="M158.205 94.9842C157.639 94.9808 157.123 94.973 156.651 94.9543V97.8575C157.101 97.8602 157.612 97.87 158.205 97.8763V94.9842Z" fill="#E8F4F9"/>
<path d="M198.936 87.4327C199.401 84.5831 201.431 76.3637 202.081 74.6227C200.042 73.6656 197.678 74.0402 197.473 75.6079C193.526 71.9182 186.44 70.4209 174.906 70.4209C166.108 70.4209 157.797 71.0595 152.391 75.5908C152.169 74.0371 149.815 73.6686 147.785 74.6227C148.435 76.3637 150.464 84.5831 150.928 87.4327H198.936Z" fill="#E8F4F9" stroke="white" stroke-width="0.303474"/>
<path d="M198.936 87.4325C199.401 84.5828 201.431 76.3635 202.081 74.6224C199.245 73.2905 195.777 74.5382 198.373 77.9874L198.087 78.2747C192.049 71.9695 192.049 86.0318 198.087 79.6955C198.205 79.8143 198.373 79.9814 198.373 79.9814C197.867 80.9588 196.349 83.0511 196.016 83.2993C194.38 83.9708 192.227 84.0629 190.341 83.2993C189.635 82.7403 188.381 80.331 188.179 79.5066C188.179 79.5066 188.37 79.3176 188.404 79.2832C193.994 84.8748 193.994 72.0538 188.404 77.6454C188.404 77.6454 188.264 77.5064 188.179 77.4206C193.951 71.651 180.371 71.651 186.076 77.4206C185.992 77.5064 185.851 77.6454 185.851 77.6454C180.26 72.0538 180.26 84.8748 185.851 79.2832C185.887 79.3176 186.023 79.452 186.076 79.5066C185.875 80.331 184.619 82.7403 183.915 83.2993C181.934 83.9254 180.21 83.9535 178.241 83.2993C177.335 82.6217 176.053 79.9969 175.825 79.235C175.88 79.1803 176.022 79.0381 176.088 78.9742C181.963 85.5337 181.963 70.9999 176.088 77.561L175.825 77.3003C182.508 71.1388 167.404 71.1388 174.089 77.3003L173.827 77.561C167.951 70.9999 167.951 85.5337 173.827 78.9742C173.892 79.0381 174.036 79.1803 174.089 79.235C173.861 79.9969 172.579 82.6217 171.675 83.2993C169.92 83.9254 168.088 84.0052 166.252 83.2993C165.548 82.7403 164.019 80.331 163.818 79.5066C163.874 79.452 164.007 79.3176 164.043 79.2832C169.633 84.8748 169.633 72.0538 164.043 77.6454L163.818 77.4206C169.522 71.651 155.944 71.651 161.715 77.4206C161.63 77.5064 161.49 77.6454 161.49 77.6454C155.9 72.0538 155.9 84.8748 161.49 79.2832C161.523 79.3176 161.66 79.452 161.715 79.5066C161.513 80.331 160.258 82.7403 159.554 83.2993C157.736 84.0629 155.267 83.9708 153.85 83.2993C153.515 83.0511 151.998 80.9588 151.492 79.9814C151.492 79.9814 151.661 79.8143 151.779 79.6955C157.819 86.0318 157.819 71.9695 151.779 78.2747L151.492 77.9874C154.089 74.5382 150.621 73.2905 147.785 74.6224C148.435 76.3635 150.464 84.5828 150.928 87.4325H198.936Z" fill="#E8F4F9" stroke="white" stroke-width="0.303474"/>
<path d="M176.133 57.1017C178.313 57.6701 179.89 59.5781 179.89 61.8937C179.89 64.6199 177.671 66.8309 174.932 66.8309C172.195 66.8309 169.975 64.6199 169.975 61.8937C169.975 59.5734 171.613 57.6092 173.746 57.0985C173.746 56.5863 173.744 53.2246 173.744 53.2246H171.005V50.9089H173.744V48H176.135V50.9089H178.875V53.2246L176.131 53.223C176.131 53.5477 176.133 56.972 176.133 57.1017Z" fill="#E8F4F9" stroke="white" stroke-width="0.303474"/>
<path d="M179.729 60.6508C179.729 60.6508 179.912 61.3346 179.891 61.9014C179.907 62.3731 179.755 63.0429 179.755 63.0429H170.112C170.112 63.0429 169.961 62.3699 169.976 61.9014C169.951 61.3487 170.135 60.6508 170.135 60.6508H173.744V57.1033C173.744 57.1033 174.523 56.9595 174.932 56.9595C175.346 56.9595 176.131 57.1063 176.131 57.1063V60.6508H179.729Z" fill="#E8F4F9" stroke="white" stroke-width="0.303474"/>
<path d="M173.803 72.844C174.512 72.6363 175.362 72.6254 176.074 72.8329L176.473 66.5935L176.394 66.6138C176.394 66.6138 175.816 66.8245 174.94 66.8245C174.3 66.8573 173.625 66.6591 173.446 66.6014C173.418 66.5919 173.393 66.5857 173.393 66.5857L173.803 72.844Z" fill="#E8F4F9" stroke="white" stroke-width="0.303474"/>
<path d="M173.393 66.5951C158.643 64.6886 160.005 65.257 161.341 73.367C162.027 73.0642 162.912 73.008 163.663 73.2031C162.811 66.9028 161.949 66.8996 173.499 68.2128C173.468 67.5382 173.393 66.5951 173.393 66.5951Z" fill="#E8F4F9" stroke="white" stroke-width="0.303474"/>
<path d="M176.369 68.2346C188.07 66.7684 186.885 67.1774 186.106 73.2375C186.838 73.0314 187.708 73.0392 188.396 73.3046C189.532 65.6378 191.73 64.5745 176.473 66.6092L176.369 68.2346Z" fill="#E8F4F9" stroke="white" stroke-width="0.303474"/>
<path d="M198.435 74.3775C199.085 74.0652 199.984 74.0168 200.918 74.2245C202.821 66.8919 203.054 66.4407 188.718 66.4407C189.144 66.8685 189.249 67.4931 189.196 68.341C199.868 68.341 199.978 68.163 198.435 74.3775Z" fill="#E8F4F9" stroke="white" stroke-width="0.303474"/>
<path d="M160.572 68.341C160.542 67.4884 160.662 66.8669 161.078 66.4407C147.712 66.6327 146.82 66.2549 148.934 74.2275C149.869 74.0152 150.778 74.0715 151.433 74.3775C149.866 68.0724 150.115 68.341 160.572 68.341Z" fill="#E8F4F9" stroke="white" stroke-width="0.303474"/>
<path d="M102.182 191.907C102.182 192.075 102.116 192.239 101.985 192.374L101.689 192.669C101.555 192.8 101.423 192.868 101.228 192.868H93.8054V189.105H101.228C101.423 189.105 101.555 189.171 101.689 189.303L101.985 189.601C102.116 189.732 102.182 189.897 102.182 190.062V191.907ZM102.745 180.96C102.745 180.797 102.678 180.63 102.545 180.498L102.247 180.201C102.116 180.068 101.985 180.004 101.786 180.004H88.9571C88.759 180.004 88.6264 180.068 88.4954 180.201L88.1981 180.498C88.0674 180.63 88 180.797 88 180.96V201.046C88 201.243 88.0674 201.374 88.1981 201.506L88.4954 201.803C88.6264 201.935 88.7908 202 88.9571 202H91.0004C91.1659 202 91.331 201.935 91.4621 201.803L91.7586 201.506C91.8908 201.374 91.9575 201.243 91.9575 201.046V183.763H101.786C101.985 183.763 102.116 183.698 102.247 183.564L102.545 183.269C102.678 183.136 102.745 182.97 102.745 182.807V180.96ZM123.717 185.049C123.717 184.42 123.487 183.864 123.025 183.401L120.32 180.695C119.858 180.234 119.299 180.004 118.672 180.004H110.064C109.435 180.004 108.875 180.234 108.415 180.695L107.92 181.19L110.424 183.763H117.815C118.013 183.763 118.145 183.829 118.275 183.963L119.56 185.248C119.692 185.379 119.761 185.544 119.761 185.711V196.79L122.298 199.331L123.025 198.605C123.485 198.146 123.717 197.584 123.717 196.957V185.049ZM118.275 198.241H110.92C110.723 198.241 110.592 198.176 110.459 198.044L109.173 196.757C109.04 196.625 108.974 196.461 108.974 196.298V185.216L106.435 182.71L105.708 183.401C105.237 183.852 105.017 184.42 105.017 185.049V196.957C105.017 197.584 105.248 198.143 105.708 198.605L108.415 201.309C108.875 201.77 109.435 202 110.064 202H118.672C119.299 202 119.858 201.77 120.32 201.309L120.818 200.814L118.275 198.241ZM138.972 193H140.358C140.982 193 141.51 192.766 141.941 192.336L143.786 190.491C144.246 190.03 144.479 189.501 144.479 188.841V184.488C144.479 183.829 144.246 183.301 143.786 182.837L141.609 180.663C141.179 180.234 140.652 180.004 140.025 180.004H128.714C128.515 180.004 128.381 180.068 128.254 180.201L127.954 180.498C127.824 180.63 127.757 180.797 127.757 180.96V201.046C127.757 201.243 127.824 201.374 127.954 201.506L128.254 201.803C128.381 201.935 128.549 202 128.714 202H130.759C130.924 202 131.089 201.935 131.221 201.803L131.519 201.506C131.648 201.374 131.713 201.243 131.713 201.046V183.763H139.137C139.334 183.763 139.466 183.829 139.598 183.963L140.322 184.687C140.455 184.819 140.52 184.951 140.52 185.148V188.182C140.52 188.38 140.455 188.512 140.322 188.644L139.431 189.533C139.3 189.667 139.169 189.732 138.972 189.732H133.562V192.239C133.562 192.436 133.645 192.556 133.759 192.701L140.817 201.738C140.931 201.883 141.345 202 141.51 202H144.311C144.476 202 144.644 201.935 144.775 201.803L145.07 201.506C145.203 201.374 145.358 201.168 145.235 201.011L138.972 193ZM166.262 183.301C166.262 183.116 166.238 182.981 166.1 182.837L163.923 180.663C163.463 180.201 162.902 180.004 162.275 180.004H153.071C152.446 180.004 151.882 180.236 151.425 180.695L150.996 181.125L153.599 183.763H161.416C161.614 183.763 161.777 183.829 161.91 183.963L163.428 185.478C163.567 185.619 163.704 185.679 163.891 185.679H164.352C164.539 185.679 164.697 185.594 164.812 185.478L166.1 184.193C166.212 184.076 166.262 183.917 166.262 183.731V183.301ZM166.724 193.197C166.724 192.568 166.491 191.998 166.032 191.548L164.12 189.667C163.66 189.214 163.095 189.008 162.472 189.008H153.071C152.875 189.008 152.743 188.941 152.609 188.809L152.182 188.38C152.05 188.25 151.985 188.117 151.985 187.918V185.084L149.511 182.61L148.72 183.401C148.258 183.864 148.028 184.42 148.028 185.049V188.58C148.028 189.205 148.258 189.776 148.72 190.227L150.632 192.107C151.09 192.56 151.657 192.766 152.281 192.766H161.681C161.875 192.766 162.01 192.834 162.142 192.963L162.572 193.392C162.704 193.525 162.769 193.659 162.769 193.856V196.857L165.272 199.362L166.032 198.605C166.494 198.143 166.724 197.584 166.724 196.957V193.197ZM161.186 198.241H153.37C153.17 198.241 152.973 198.176 152.841 198.044L151.326 196.526C151.185 196.386 151.049 196.33 150.863 196.33H150.432C150.248 196.33 150.089 196.411 149.973 196.526L148.687 197.814C148.569 197.929 148.52 198.088 148.52 198.275V198.703C148.52 198.89 148.546 199.026 148.687 199.166L150.863 201.343C151.325 201.803 151.89 202 152.512 202H161.681C162.307 202 162.869 201.77 163.328 201.309L163.791 200.849L161.186 198.241ZM186.247 180.498L185.951 180.201C185.819 180.068 185.688 180.004 185.488 180.004H183.41C183.213 180.004 183.081 180.068 182.948 180.201L182.654 180.498C182.519 180.63 182.469 180.903 182.422 181.06L178.595 192.868L180.441 198.57L186.443 180.96C186.497 180.804 186.381 180.63 186.247 180.498ZM172.757 181.06C172.709 180.903 172.66 180.63 172.525 180.498L172.231 180.201C172.098 180.068 171.966 180.004 171.769 180.004H169.659C169.462 180.004 169.327 180.068 169.198 180.201L168.9 180.498C168.768 180.63 168.653 180.804 168.703 180.96L175.167 201.046C175.228 201.233 175.267 201.374 175.398 201.506L175.696 201.803C175.826 201.935 175.991 202 176.156 202H178.297C178.462 202 178.627 201.935 178.759 201.803L179.057 201.506C179.189 201.374 179.315 201.233 179.254 201.046L172.757 181.06ZM198.21 180.993C198.142 180.807 198.11 180.63 197.976 180.498L197.683 180.201C197.551 180.068 197.383 180.004 197.22 180.004H193.791C193.624 180.004 193.459 180.068 193.328 180.201L193.032 180.498C192.9 180.63 192.871 180.807 192.8 180.993L185.379 201.046C185.323 201.199 185.446 201.374 185.576 201.506L185.873 201.803C186.005 201.935 186.141 202 186.335 202H188.382C188.579 202 188.711 201.935 188.843 201.803L189.141 201.506C189.273 201.374 189.35 201.102 189.402 200.946L195.439 184.291L198.475 192.963H194.186L192.965 196.493H199.823L201.506 200.946C201.567 201.102 201.606 201.374 201.738 201.506L202.035 201.803C202.168 201.935 202.297 202 202.499 202H204.576C204.774 202 204.906 201.935 205.038 201.803L205.333 201.506C205.468 201.374 205.588 201.199 205.53 201.046L198.21 180.993ZM219.021 193H220.407C221.033 193 221.56 192.766 221.99 192.336L223.839 190.491C224.299 190.03 224.531 189.501 224.531 188.841V184.488C224.531 183.829 224.299 183.301 223.839 182.837L221.663 180.663C221.231 180.234 220.704 180.004 220.077 180.004H208.765C208.565 180.004 208.436 180.068 208.302 180.201L208.006 180.498C207.872 180.63 207.809 180.797 207.809 180.96V201.046C207.809 201.243 207.872 201.374 208.006 201.506L208.302 201.803C208.436 201.935 208.596 202 208.765 202H210.811C210.972 202 211.14 201.935 211.27 201.803L211.57 201.506C211.701 201.374 211.766 201.243 211.766 201.046V183.763H219.186C219.383 183.763 219.518 183.829 219.647 183.963L220.374 184.687C220.504 184.819 220.574 184.951 220.574 185.148V188.182C220.574 188.38 220.504 188.512 220.374 188.644L219.483 189.533C219.351 189.667 219.219 189.732 219.021 189.732H213.614V192.239C213.614 192.436 213.696 192.556 213.811 192.701L220.866 201.738C220.984 201.883 221.398 202 221.56 202H224.364C224.531 202 224.693 201.935 224.826 201.803L225.125 201.506C225.253 201.374 225.411 201.168 225.287 201.011L219.021 193ZM242.851 190.062C242.851 189.897 242.786 189.732 242.654 189.601L242.358 189.303C242.226 189.171 242.094 189.105 241.897 189.105H234.474V192.868H241.897C242.094 192.868 242.226 192.8 242.358 192.669L242.654 192.374C242.786 192.239 242.851 192.075 242.851 191.907V190.062ZM243.413 199.197C243.413 199.032 243.347 198.867 243.215 198.735L242.921 198.438C242.786 198.308 242.654 198.241 242.456 198.241H232.628V183.763H242.391C242.589 183.763 242.72 183.698 242.851 183.564L243.15 183.269C243.28 183.136 243.347 182.97 243.347 182.807V180.96C243.347 180.797 243.28 180.63 243.15 180.498L242.851 180.201C242.72 180.068 242.589 180.004 242.391 180.004H229.627C229.427 180.004 229.299 180.068 229.164 180.201L228.87 180.498C228.738 180.63 228.67 180.797 228.67 180.96V201.046C228.67 201.211 228.738 201.374 228.87 201.506L229.164 201.803C229.299 201.935 229.427 202 229.627 202H242.456C242.654 202 242.786 201.935 242.921 201.803L243.215 201.506C243.347 201.374 243.413 201.211 243.413 201.046V199.197ZM261.654 180.96C261.654 180.797 261.587 180.63 261.454 180.498L261.16 180.201C261.024 180.068 260.893 180.004 260.693 180.004H245.919C245.722 180.004 245.589 180.068 245.46 180.201L245.16 180.498C245.027 180.63 244.963 180.797 244.963 180.96V182.807C244.963 182.97 245.027 183.136 245.16 183.269L245.46 183.564C245.589 183.698 245.722 183.763 245.919 183.763H251.329V201.046C251.329 201.243 251.394 201.374 251.526 201.506L251.823 201.803C251.955 201.935 252.118 202 252.287 202H254.327C254.495 202 254.662 201.935 254.789 201.803L255.088 201.506C255.221 201.374 255.288 201.243 255.288 201.046V183.763H260.693C260.893 183.763 261.024 183.698 261.16 183.564L261.454 183.269C261.587 183.136 261.654 182.97 261.654 182.807V180.96Z" fill="#E8F4F9"/>
</svg>
