<svg width="350" height="250" viewBox="0 0 350 250" fill="none" xmlns="http://www.w3.org/2000/svg">
<rect width="350" height="250" rx="20" fill="#E8F4F9"/>
<path d="M295.127 88.2945H305.729V122.365C309.88 128.236 313.901 133.926 318 139.724C317.117 140.367 316.334 140.937 315.416 141.604C314.66 141.03 314.044 140.34 313.454 139.488C311.124 136.126 308.634 132.877 306.4 129.443C305.36 127.843 304.07 126.405 302.916 124.877C302.748 124.654 302.708 124.333 302.43 123.56V92.1678H299.124V117.933H284.832C284.406 114.821 284.51 111.788 285.157 110.442C284.49 109.678 283.815 108.843 283.076 108.067C279.63 104.447 276.143 100.866 272.72 97.2239C271.439 95.8607 270.293 94.3711 268.995 92.8317C268.514 93.2023 267.899 93.4415 267.859 93.7543C267.762 94.5068 267.19 94.7972 266.781 95.24C264.557 97.6482 262.574 100.26 260.38 102.701C258.516 104.775 256.921 107.099 254.8 109.1V123.202H243.798V88.3156H228.512C228.324 88.5032 228.097 88.7293 227.865 88.9613V107.176C227.807 107.241 227.763 107.31 227.702 107.356C227.644 107.398 227.567 107.44 227.499 107.44C219.494 107.444 211.489 107.444 203.4 107.444V119.805H199.181C197.153 118.006 194.987 116.083 192.678 114.035C191.561 115.289 190.009 116.134 189.317 117.807C189.261 117.944 189.093 118.032 188.985 118.15C186.852 120.477 184.72 122.805 182.583 125.138H176.865V123.08C176.865 116.443 176.869 109.806 176.862 103.169C176.86 101.304 177.087 99.4162 176.229 97.4878H173.078V123.231H166.319V131.823H146.606V128.644H162.372C162.393 127.643 162.421 126.713 162.43 125.783C162.44 124.823 162.433 123.864 162.433 122.904V119.981H169.601V93.5866H180.206V121.315C180.678 121.341 180.986 121.358 181.383 121.379C181.584 121.037 181.745 120.62 182.025 120.31C183.764 118.381 185.747 116.627 187.222 114.518C188.525 112.656 190.52 111.433 191.577 109.383C191.761 109.027 192.46 108.934 193.032 108.668C195.219 110.85 197.294 112.92 199.389 115.009V104.423C199.53 104.275 199.578 104.207 199.642 104.164C199.702 104.123 199.779 104.088 199.849 104.088C208.013 104.084 216.177 104.084 224.423 104.084V85H247.535V119.819H250.897V111.034C250.645 110.756 250.288 110.362 249.819 109.844C255.925 102.281 262.317 95.0302 268.688 87.4165C269.914 88.9345 271.39 89.8068 272.232 91.4053C272.694 92.2841 273.671 92.8872 274.39 93.6387C277.57 96.9595 280.885 100.167 283.861 103.661C285.65 105.761 287.655 107.639 289.58 109.821C289.218 110.24 288.871 110.642 288.548 111.016V114.596H295.127V88.2945Z" fill="#264164"/>
<path d="M168.29 139.645H171.416C174.805 145.873 178.172 152.062 181.622 158.405V139.661H184.463V164.022H181.502C179.771 161.578 178.792 158.804 177.134 156.402C176.761 155.861 176.579 155.193 176.267 154.605C174.803 151.851 173.31 149.112 171.861 146.35C171.456 145.578 171.169 144.745 170.73 143.943C170.833 145.606 170.103 147.305 171.056 148.941C171.161 149.122 171.091 149.407 171.091 149.644C171.092 154.422 171.092 159.2 171.092 164.025H168.29V139.645ZM182.036 158.795H181.796V159.755H182.036V158.795Z" fill="#264164"/>
<path d="M73.539 164.554C72.4983 164.554 71.2998 164.584 70.1034 164.547C68.2885 164.49 66.8156 163.747 65.3804 162.591C63.0824 160.74 62.1321 158.137 61.5151 155.558C60.9911 153.367 61.3757 150.952 61.4254 148.638C61.4409 147.915 63.3753 143.269 63.8451 142.703C64.9897 141.322 66.5262 140.448 68.0732 139.6C68.3339 139.457 68.6084 139.34 69.0667 139.118C70.0397 139.118 71.2382 139.088 72.4346 139.126C74.2494 139.182 75.7224 139.926 77.1575 141.082C79.4555 142.933 80.0527 145.62 81.131 148.089C81.1124 151.648 81.5878 155.312 80.0057 158.639C79.0084 160.736 77.7279 162.804 75.2324 163.611C74.6752 163.791 74.1875 164.185 73.539 164.554ZM73.1215 161.675C75.7308 160.183 77.5573 158.166 77.7628 155.028C77.768 154.948 77.7453 154.863 77.7661 154.789C78.812 151.07 78.2347 149.396 77.043 145.896C76.4289 144.092 74.7969 143.009 73.1728 141.998C72.1708 141.998 71.1316 141.976 70.0938 142.004C68.9825 142.034 67.5509 143.131 66.6718 144.124C65.4451 145.509 65.2163 147.183 64.6766 148.832C64.1549 150.425 64.2854 151.944 64.3603 153.454C64.4324 154.909 64.8843 156.412 65.4793 157.758C66.2736 159.555 67.7472 160.822 69.5413 161.675H73.1215Z" fill="#264164"/>
<path d="M208.135 152.333C208.135 150.991 208.072 150.107 208.153 149.236C208.229 148.416 208.354 147.574 208.633 146.805C209.885 143.364 211.847 140.271 215.514 139.331C218.396 138.593 221.483 138.762 223.961 141.186C226.64 143.806 227.886 146.919 227.86 150.606C227.853 151.644 227.923 152.686 227.847 153.719C227.593 157.159 226.53 160.319 223.781 162.544C222.351 163.701 220.692 164.811 218.632 164.543C217.487 164.394 216.382 164.625 215.169 164.233C211.927 163.187 210.279 160.922 209.047 157.959C208.211 155.95 208.075 153.952 208.135 152.333ZM216.098 161.675C217.219 161.675 218.188 161.752 219.138 161.648C219.786 161.576 220.572 161.424 221.008 161.008C222.326 159.746 223.989 158.667 224.094 156.552C224.768 156.09 224.238 155.295 224.522 154.817C225.412 153.321 224.981 151.718 224.905 150.209C224.832 148.755 224.346 147.271 223.787 145.903C223.063 144.132 221.536 143.013 219.898 141.998C218.908 141.998 217.87 141.976 216.833 142.004C215.734 142.033 214.253 143.145 213.401 144.114C212.183 145.499 211.954 147.179 211.406 148.821C210.874 150.414 211.015 151.933 211.088 153.443C211.159 154.899 211.622 156.394 212.196 157.752C212.936 159.5 214.425 160.663 216.098 161.675Z" fill="#264164"/>
<path d="M246.621 164.172V140.381C248.071 139.46 249.7 139.494 251.299 139.621C252.913 139.75 254.61 139.073 256.143 140.074C256.199 140.11 256.3 140.072 256.38 140.079C260.127 140.412 262.808 143.186 263.938 146.739C264.612 148.855 264.412 151.772 264.021 154.729C263.825 156.214 263.431 157.514 262.748 158.773C261.319 161.407 258.985 162.799 256.165 163.613C253.056 164.511 249.91 163.785 246.621 164.172ZM249.983 141.949C249.814 142.483 249.542 142.967 249.528 143.458C249.477 145.369 249.507 147.282 249.507 149.194V161.287C250.597 161.428 251.641 161.848 252.492 161.604C253.716 161.252 254.987 161.165 256.214 160.805C257.236 160.504 258.142 159.951 258.693 159.346C260.315 157.563 261.354 155.347 261.495 152.902C261.587 151.303 261.47 149.705 261.147 148.065C260.636 145.465 257.889 142.908 255.476 142.382C253.666 141.987 251.933 142.166 249.983 141.949Z" fill="#264164"/>
<path d="M115.287 158.964C114.769 159.858 114.384 160.679 113.859 161.398C112.484 163.285 110.437 163.924 108.246 164.049C106.175 164.167 104.092 164.074 101.916 164.074V140.262C102.658 139.466 103.76 139.59 104.835 139.597C105.717 139.603 106.6 139.635 107.479 139.591C110.026 139.466 112.175 140.254 113.844 142.228C113.995 142.407 114.216 142.526 114.297 142.588C115.1 147.186 114.577 148.587 111.26 150.581C112.211 151.236 113.26 151.708 113.939 152.497C114.588 153.252 115.05 154.3 115.236 155.286C115.455 156.444 115.287 157.675 115.287 158.964ZM104.789 152.128V161.626H108.565C110.309 160.856 111.84 160.264 112.4 158.123V155.297C110.8 151.943 107.889 151.915 104.789 152.128ZM104.777 141.998V149.63H108.669C109.611 149.149 110.403 148.743 111.109 148.382C111.657 147.251 111.908 146.112 111.862 144.967C111.102 142.485 109.391 142.044 107.457 142.001C106.592 141.982 105.726 141.998 104.777 141.998Z" fill="#264164"/>
<path d="M84.5815 140.007C85.5358 139.864 86.4244 139.658 87.3208 139.615C88.6801 139.55 90.0468 139.552 91.407 139.607C95.6428 139.778 97.8113 142.084 97.9668 146.195C98.0755 149.065 96.4801 150.886 94.2976 152.26C95.1858 153.481 96.1159 154.759 96.6773 155.531C97.3712 158.708 97.9329 161.28 98.5206 163.971H95.6256C95.3134 162.855 95.015 161.561 94.585 160.313C94.1426 159.029 94.3475 157.595 93.6346 156.39C93.1365 155.548 92.5982 154.73 92.1228 153.973C90.4892 153.759 89.0447 153.57 87.4077 153.356V164.027H84.5815V140.007ZM95.0821 148.14V144.974C94.4204 144.175 93.6865 143.289 92.9444 142.392C91.2699 142.215 89.6669 142.045 88.3117 141.901C87.84 142.304 87.5982 142.511 87.4743 142.616V151.116C88.4353 151.116 89.3131 151.179 90.1777 151.099C91.0788 151.016 91.9672 150.796 93.0419 150.604C93.6865 149.825 94.4204 148.939 95.0821 148.14Z" fill="#264164"/>
<path d="M135.575 140.006C136.531 139.864 137.419 139.658 138.316 139.615C139.675 139.55 141.042 139.552 142.402 139.607C146.636 139.778 148.806 142.083 148.961 146.196C149.069 149.066 147.474 150.887 145.292 152.259C146.18 153.481 147.11 154.76 147.765 155.66C148.112 157.464 148.231 158.85 148.668 160.128C149.09 161.36 148.877 162.682 149.624 163.971H146.62C146.308 162.854 146.01 161.56 145.579 160.312C145.136 159.028 145.343 157.594 144.629 156.389C144.13 155.548 143.592 154.73 143.116 153.972C141.483 153.759 140.038 153.57 138.401 153.357V164.027H135.575V140.006ZM138.432 151.116C139.583 151.116 140.7 151.221 141.787 151.086C142.815 150.959 143.825 150.71 144.667 149.922C145.857 148.806 146.207 147.495 146.086 145.94C145.965 144.38 144.79 143.131 143.257 142.435C141.791 141.769 140.38 142.169 139.118 141.981C138.771 142.326 138.602 142.496 138.432 142.665V151.116Z" fill="#264164"/>
<path d="M191.693 149.627H201.824V139.704H204.711V163.982H202.038C202.083 164.022 202.014 163.978 201.969 163.917C201.926 163.859 201.884 163.782 201.884 163.714C201.88 160.046 201.881 156.379 201.881 152.634H191.835V164.011H188.991V139.648H191.693V149.627Z" fill="#264164"/>
<path d="M297.569 164.07H294.519C293.754 161.511 292.99 158.953 292.23 156.412H284.907C284.163 158.948 283.413 161.504 282.675 164.018H279.772C279.98 162.921 280.013 161.838 280.395 160.896C281.902 157.172 282.688 153.228 284.015 149.442C284.967 146.726 285.578 143.864 286.53 141.119C286.675 140.701 286.55 140.19 286.55 139.665H290.225C290.422 139.862 290.844 140.089 290.843 140.314C290.838 141.571 291.546 142.632 291.755 143.77C291.989 145.048 292.442 146.218 292.799 147.436C293.616 150.22 294.375 153.021 295.219 155.796C295.975 158.278 296.819 160.733 297.605 163.206C297.67 163.413 297.59 163.666 297.569 164.07ZM287.993 143.724C287.993 144.257 288.217 145.009 287.952 145.498C287.081 147.108 286.938 148.914 286.407 150.608C286.072 151.673 285.221 152.742 285.691 153.91H291.434C291.153 150.037 289.223 146.671 288.822 142.824C288.493 143.181 288.279 143.414 287.993 143.724Z" fill="#264164"/>
<path d="M164.307 161.11V164.004H152.436V139.655H163.784V142.322C163.824 142.276 163.78 142.345 163.718 142.39C163.66 142.432 163.584 142.474 163.515 142.474C160.801 142.478 158.086 142.478 155.295 142.478V149.62H163.331V152.528H155.266V161.11H164.307Z" fill="#264164"/>
<path d="M40.3634 155.059C38.1573 152.941 35.3968 152.701 33.7595 150.651C32.3898 150.292 32.4938 148.729 31.5806 148.01V143.922C32.552 141.643 33.7463 139.825 37.2089 139.191C38.5001 139.3 41.068 138.514 43.2182 140.382C42.9636 141.271 42.7382 142.058 42.4615 143.024C41.7955 142.721 41.1457 142.426 40.2609 142.024H36.608C35.9694 142.716 35.269 143.475 34.5107 144.297C34.0811 146.218 34.8765 147.84 36.5085 149.032C37.2104 149.544 38.1294 149.75 38.9111 150.167C39.8333 150.659 40.7701 151.155 41.6012 151.78C43.8673 153.485 44.4797 156.502 43.7369 159.456C43.1029 161.977 41.5131 163.321 39.3248 164.273C39.1885 164.333 39.0812 164.542 38.9607 164.542C36.2731 164.536 33.504 164.91 31 162.845C31.231 162.162 31.482 161.419 31.7696 160.568C34.477 161.491 37.0998 162.448 39.7202 161.04C40.8793 159.075 41.0937 157.082 40.3634 155.059Z" fill="#264164"/>
<path d="M308.802 155.064C306.665 152.984 304.07 152.558 302.195 150.774C301.313 149.934 300.878 148.88 300.02 147.964C300.02 147.105 300.091 146.148 300.007 145.205C299.741 142.211 303.161 138.848 306.126 139.102C307.587 139.227 309.095 138.925 310.487 139.604C310.883 139.797 311.246 140.06 311.677 140.323C311.401 141.264 311.151 142.118 310.898 142.981C309.226 142.295 307.265 141.986 305.015 142.054C304.336 142.732 303.656 143.41 302.959 144.105C302.531 146.973 303.811 148.715 306.5 149.711C307.672 150.145 308.713 150.941 309.798 151.6C311.425 152.588 312.196 154.264 312.462 155.944C312.905 158.74 312.173 161.34 309.789 163.179C309.088 163.719 308.236 164.065 307.359 164.553C304.725 164.5 301.85 165.007 299.411 162.776C299.654 162.12 299.911 161.426 300.24 160.54C302.436 161.419 304.66 162.012 307.13 161.585C309.337 160.189 310.491 158.38 308.802 155.064Z" fill="#264164"/>
<path d="M129.686 139.602H132.601C132.506 140.119 132.529 140.651 132.315 141.062C130.203 145.14 128.051 149.197 125.82 153.432V164.017H122.985C122.985 161.179 122.969 158.331 122.992 155.483C123.001 154.39 122.663 153.467 122.236 152.441C120.444 148.138 118.156 144.079 116.075 139.717H119.504C121.118 143.325 122.745 146.965 124.532 150.961C126.35 146.956 128 143.319 129.686 139.602Z" fill="#264164"/>
<path d="M51.7896 163.99V142.565H45.6616V139.678H61.2782V142.401H54.7546V163.99H51.7896Z" fill="#264164"/>
<path d="M243.686 161.115V164.002H231.822V139.678H234.518V161.115H243.686Z" fill="#264164"/>
<path d="M182.036 158.795V159.755H181.796V158.795H182.036Z" fill="#264164"/>
</svg>
