<svg width="350" height="250" viewBox="0 0 350 250" fill="none" xmlns="http://www.w3.org/2000/svg">
<rect width="350" height="250" rx="20" fill="#E8F4F9"/>
<path d="M137.378 126.981C135.082 126.981 132.787 126.982 130.491 126.98C129.872 126.979 129.256 126.964 128.649 126.799C127.172 126.398 126.464 125.411 126.644 123.885C126.881 121.88 127.581 119.993 128.274 118.12C131.913 108.286 135.823 98.5674 140.567 89.1996C143.281 83.8426 145.981 78.4755 148.273 72.9183C148.94 71.3006 149.425 69.6297 149.733 67.8978C150.03 66.226 149.831 64.6399 149.249 63.071C149.18 62.8831 148.976 62.6001 149.184 62.4726C149.471 62.2967 149.614 62.6402 149.752 62.824C151.132 64.6579 152.51 66.4936 153.872 68.3408C157.784 73.6474 161.677 78.9685 165.249 84.5151C165.722 85.2508 165.739 85.2489 166.098 84.5639C169.851 77.3898 171.744 69.7665 171.55 61.6582C171.494 59.3255 171.143 57.0196 170.544 54.7575C170.481 54.5207 170.262 54.1849 170.484 54.0501C170.793 53.8616 170.98 54.2516 171.158 54.4455C173.831 57.3665 175.7 60.7209 176.853 64.5275C178.811 70.9918 177.93 77.2141 175.419 83.2969C174.129 86.4231 172.65 89.4722 171.225 92.5417C170.988 93.0523 170.93 93.4367 171.258 93.943C172.583 95.9912 173.86 98.0708 175.159 100.136C175.35 100.44 175.557 100.871 175.859 100.215C178.469 94.5311 181.499 89.0269 183.248 82.9755C184.38 79.0599 184.757 75.1172 183.585 71.1341C183.432 70.6111 183.259 70.0937 183.092 69.5748C183.017 69.3444 182.725 69.0431 182.969 68.8946C183.274 68.7089 183.453 69.1057 183.627 69.3116C184.546 70.4031 185.323 71.5936 185.927 72.8844C188.626 78.6548 191.111 84.5207 193.645 90.3643C196.816 97.6773 199.928 105.017 203.527 112.135C204.939 114.929 206.408 117.693 208.069 120.353C209.572 122.761 211.689 124.512 213.991 126.083C214.141 126.185 214.311 126.256 214.468 126.347C214.604 126.425 214.69 126.551 214.665 126.703C214.638 126.865 214.502 126.934 214.345 126.941C214.127 126.951 213.908 126.955 213.69 126.955C209.645 126.956 205.6 126.959 201.555 126.955C198.615 126.951 196.471 125.698 195.218 122.974C192.008 115.997 188.775 109.031 185.543 102.064C185.348 101.643 185.244 100.897 184.881 100.899C184.395 100.902 184.34 101.64 184.136 102.072C183.126 104.212 182.178 106.38 181.138 108.504C180.806 109.182 180.878 109.684 181.248 110.299C183.579 114.173 185.672 118.167 187.214 122.43C188.197 125.145 188.934 127.915 189.2 130.799C189.4 132.972 189.226 135.104 188.367 137.124C186.932 140.499 184.107 141.946 180.683 142.49C174.944 143.402 170.72 140.258 168.428 135.562C167.144 132.932 166.817 130.147 166.914 127.27C167.115 121.347 168.813 115.813 171.221 110.457C171.743 109.295 172.224 108.114 172.77 106.964C172.993 106.491 173.034 106.126 172.705 105.672C171.316 103.755 169.961 101.814 168.596 99.879C168.348 99.5264 168.135 99.2888 167.877 99.8846C164.945 106.661 161.457 113.206 159.245 120.282C157.953 124.413 157.357 128.658 157.762 132.998C158.246 138.18 160.65 142.395 164.358 145.937C165.255 146.794 166.227 147.56 167.252 148.261C167.442 148.392 167.811 148.476 167.697 148.773C167.636 148.932 167.29 148.849 167.082 148.796C164.46 148.136 161.877 147.372 159.647 145.761C154.811 142.269 151.436 137.752 150.05 131.882C149.428 129.25 149.688 126.591 150.028 123.949C150.7 118.722 152.622 113.898 154.809 109.154C157.324 103.7 159.78 98.22 162.292 92.765C162.589 92.1198 162.58 91.6662 162.116 91.0985C160.871 89.5759 159.7 87.9937 158.489 86.4431C157.817 85.5817 157.797 85.5829 157.257 86.5847C154.168 92.324 151.235 98.1407 148.657 104.13C146.527 109.077 144.322 113.994 142.623 119.114C142.428 119.701 142.255 120.296 142.096 120.893C141.644 122.601 142.222 123.964 143.531 125.066C144.091 125.539 144.724 125.894 145.397 126.186C145.637 126.291 146.035 126.35 145.914 126.752C145.821 127.063 145.488 126.974 145.249 126.975C143.719 126.985 142.188 126.981 140.658 126.981C139.564 126.981 138.471 126.981 137.378 126.981ZM174.829 129.054C174.765 130.428 175.003 131.745 175.513 133.009C176.101 134.466 176.99 135.678 178.445 136.389C181.21 137.742 184.197 136.233 184.756 133.221C184.905 132.42 184.888 131.631 184.792 130.833C184.452 127.99 183.495 125.321 182.46 122.68C181.477 120.17 180.287 117.759 178.838 115.482C178.743 115.333 178.611 115.103 178.489 115.098C178.237 115.09 178.225 115.38 178.16 115.567C177.632 117.076 177.083 118.578 176.597 120.101C175.665 123.017 175.017 125.993 174.829 129.054Z" fill="#264164"/>
<path d="M68.3686 168.059C66.4019 168.059 64.4352 168.054 62.4685 168.061C61.4234 168.064 61.3958 168.074 61.4049 169.068C61.4349 172.343 61.2891 175.621 61.5504 178.894C61.6913 180.659 61.8872 180.893 63.6775 181.155C63.7855 181.171 63.8971 181.169 64.0028 181.193C64.1321 181.223 64.3211 181.189 64.3383 181.384C64.3599 181.629 64.1479 181.664 63.979 181.7C63.8026 181.737 63.6179 181.748 63.4368 181.748C61.3973 181.751 59.3577 181.75 57.3182 181.748C57.173 181.748 57.025 181.744 56.8832 181.716C56.71 181.683 56.4834 181.653 56.459 181.449C56.4283 181.194 56.6769 181.193 56.842 181.188C58.0153 181.147 58.3886 180.375 58.4696 179.378C58.5462 178.436 58.6013 177.489 58.6034 176.544C58.6154 170.935 58.6094 165.326 58.6093 159.718C58.6093 159.536 58.6112 159.353 58.6061 159.171C58.5472 157.044 58.4561 156.936 56.3428 156.461C56.2103 156.431 56.0268 156.457 56.0031 156.268C55.9727 156.026 56.1717 155.967 56.3475 155.944C56.5991 155.912 56.8555 155.907 57.1098 155.906C58.8944 155.903 60.679 155.902 62.4636 155.908C62.7532 155.909 63.0452 155.93 63.3313 155.974C63.4618 155.994 63.6228 156.06 63.5929 156.253C63.5747 156.371 63.488 156.433 63.3688 156.449C63.2245 156.469 63.0783 156.481 62.9371 156.515C61.9017 156.759 61.6887 156.999 61.5293 158.039C61.3405 159.27 61.4075 160.509 61.401 161.746C61.394 163.094 61.417 164.442 61.3934 165.789C61.3826 166.405 61.5472 166.73 62.2464 166.726C66.3254 166.707 70.4046 166.707 74.4836 166.726C75.1852 166.73 75.3452 166.4 75.3325 165.786C75.2822 163.348 75.4201 160.908 75.2217 158.471C75.1101 157.1 74.7377 156.692 73.38 156.491C73.2003 156.464 73.0162 156.466 72.8377 156.435C72.7374 156.417 72.6182 156.385 72.6274 156.236C72.6349 156.113 72.711 156.031 72.8183 156.011C73.0665 155.965 73.3185 155.912 73.5691 155.911C75.4994 155.903 77.4297 155.906 79.3599 155.909C79.5412 155.909 79.7233 155.927 79.9032 155.95C80.0509 155.969 80.206 156.036 80.2324 156.185C80.2626 156.356 80.1075 156.407 79.9642 156.46C78.1692 157.126 78.1899 157.128 78.1138 159.079C77.9064 164.393 78.0571 169.71 78.0276 175.025C78.0201 176.37 78.1166 177.717 78.203 179.06C78.3017 180.594 78.6405 180.933 80.1661 181.143C80.3464 181.168 80.5281 181.182 80.709 181.202C80.8652 181.219 81.0062 181.284 80.976 181.458C80.9618 181.54 80.8429 181.648 80.7554 181.666C80.5086 181.716 80.2535 181.748 80.0016 181.749C78.0349 181.755 76.0682 181.753 74.1015 181.751C73.9198 181.751 73.7362 181.746 73.5569 181.721C73.3802 181.695 73.1571 181.657 73.1314 181.456C73.0997 181.208 73.3427 181.224 73.5106 181.176C74.7996 180.806 75.0272 180.568 75.1369 179.243C75.4228 175.79 75.3063 172.329 75.332 168.871C75.3365 168.259 75.0956 168.043 74.4872 168.05C72.4479 168.075 70.4082 168.06 68.3686 168.059Z" fill="#264164"/>
<path d="M188.808 165.472C188.808 163.433 188.814 161.394 188.803 159.355C188.8 158.921 188.724 158.487 188.696 158.052C188.637 157.133 188.073 156.706 187.238 156.547C186.989 156.5 186.732 156.496 186.48 156.458C186.343 156.438 186.167 156.431 186.172 156.229C186.176 156.055 186.324 155.993 186.464 155.965C186.641 155.931 186.824 155.911 187.005 155.91C188.753 155.907 190.501 155.905 192.249 155.912C192.464 155.913 192.683 155.951 192.891 156.005C192.973 156.026 193.067 156.13 193.091 156.214C193.128 156.343 193.001 156.423 192.9 156.429C190.867 156.531 190.953 158.022 190.947 159.429C190.934 162.342 190.96 165.255 190.936 168.169C190.918 170.424 190.871 172.675 190.415 174.903C188.768 182.959 180.051 183.495 175.782 180.648C173.674 179.242 172.709 177.12 172.24 174.721C171.931 173.142 171.901 171.536 171.883 169.938C171.845 166.551 171.873 163.164 171.869 159.778C171.868 159.341 171.853 158.904 171.823 158.469C171.727 157.087 171.367 156.701 169.991 156.489C169.811 156.461 169.627 156.464 169.449 156.432C169.345 156.414 169.223 156.352 169.26 156.223C169.285 156.134 169.372 156.016 169.45 155.999C169.696 155.945 169.951 155.91 170.202 155.909C172.132 155.903 174.062 155.904 175.992 155.908C176.21 155.908 176.429 155.922 176.644 155.954C176.785 155.976 176.931 156.045 176.945 156.213C176.961 156.408 176.787 156.416 176.654 156.461C174.943 157.039 174.839 157.161 174.817 158.982C174.765 163.351 174.701 167.72 174.815 172.089C174.858 173.701 175.088 175.281 175.717 176.779C176.832 179.435 179.08 180.882 181.98 180.824C184.736 180.769 186.991 179.157 187.967 176.519C188.698 174.541 188.804 172.465 188.84 170.388C188.868 168.75 188.846 167.111 188.846 165.472C188.833 165.472 188.821 165.472 188.808 165.472Z" fill="#264164"/>
<path d="M278.061 172.594C277.986 169.209 277.919 165.822 277.833 162.437C277.793 160.845 277.583 160.63 275.962 160.358C275.818 160.334 275.668 160.322 275.536 160.267C275.446 160.229 275.327 160.129 275.323 160.052C275.32 159.979 275.438 159.867 275.527 159.833C275.659 159.782 275.811 159.769 275.955 159.768C277.595 159.763 279.234 159.761 280.874 159.768C281.079 159.769 281.384 159.714 281.438 159.969C281.521 160.357 281.142 160.29 280.927 160.354C279.844 160.676 279.747 160.841 279.714 162.306C279.592 167.587 279.615 172.87 279.613 178.152C279.613 178.99 279.635 179.83 279.585 180.665C279.563 181.036 279.787 181.568 279.352 181.757C278.87 181.966 278.583 181.445 278.274 181.174C277.095 180.139 276.059 178.961 274.975 177.83C271.094 173.777 267.392 169.561 263.648 165.384C263.417 165.125 263.207 164.629 262.864 164.741C262.487 164.863 262.662 165.376 262.669 165.714C262.757 169.938 262.859 174.161 262.96 178.385C262.966 178.639 262.976 178.895 263.009 179.148C263.207 180.674 263.409 180.88 264.933 181.171C265.13 181.209 265.454 181.118 265.478 181.384C265.511 181.738 265.152 181.727 264.923 181.729C263.137 181.742 261.352 181.74 259.567 181.729C259.363 181.728 259.087 181.703 259.102 181.406C259.113 181.164 259.366 181.218 259.528 181.176C260.904 180.821 261.008 180.769 261.034 179.345C261.087 176.431 261.074 173.516 261.08 170.601C261.086 167.467 261.072 164.333 261.09 161.2C261.094 160.601 260.913 159.741 261.496 159.508C262.136 159.253 262.49 160.092 262.881 160.526C267.665 165.827 272.428 171.145 277.202 176.454C277.413 176.689 277.617 177.145 277.908 177.049C278.346 176.906 278.068 176.42 278.075 176.092C278.103 174.927 278.086 173.76 278.086 172.595C278.078 172.595 278.07 172.595 278.061 172.594Z" fill="#264164"/>
<path d="M199.24 181.734C198.33 181.734 197.419 181.743 196.509 181.728C196.306 181.725 196.027 181.71 196.022 181.422C196.018 181.178 196.272 181.219 196.438 181.177C197.847 180.82 198.016 180.675 198.026 179.175C198.059 174.185 198.051 169.195 198.059 164.205C198.06 163.003 198.047 161.801 198.068 160.6C198.075 160.181 197.985 159.618 198.49 159.468C198.904 159.345 199.18 159.787 199.445 160.08C202.446 163.405 205.448 166.729 208.443 170.059C210.416 172.252 212.377 174.455 214.35 176.647C214.511 176.826 214.647 177.161 214.92 177.073C215.214 176.979 215.081 176.633 215.077 176.403C214.998 171.743 214.929 167.084 214.807 162.425C214.766 160.829 214.506 160.621 212.911 160.357C212.683 160.319 212.303 160.378 212.336 160.03C212.366 159.716 212.732 159.771 212.972 159.769C214.611 159.76 216.25 159.761 217.889 159.769C218.094 159.77 218.406 159.723 218.448 159.98C218.509 160.359 218.129 160.325 217.915 160.34C216.929 160.41 216.715 161.049 216.661 161.837C216.605 162.671 216.608 163.511 216.606 164.348C216.592 169.739 216.584 175.129 216.574 180.52C216.574 180.774 216.583 181.031 216.562 181.284C216.513 181.888 216.176 181.977 215.765 181.625C215.103 181.057 214.47 180.452 213.86 179.828C209.274 175.142 204.932 170.232 200.574 165.337C200.322 165.054 200.105 164.475 199.732 164.623C199.386 164.76 199.587 165.344 199.597 165.722C199.707 170.088 199.835 174.453 199.966 178.819C199.975 179.145 200.024 179.471 200.073 179.795C200.241 180.909 201.076 181.1 201.996 181.183C202.19 181.201 202.51 181.139 202.492 181.445C202.477 181.69 202.181 181.723 201.971 181.726C201.061 181.738 200.151 181.731 199.24 181.731C199.24 181.732 199.24 181.733 199.24 181.734Z" fill="#264164"/>
<path d="M244.151 182.058C235.318 182.224 231.501 172.634 234.519 165.933C238.363 157.397 248.779 158.147 252.956 162.556C254.795 164.499 255.698 166.827 255.835 169.456C256.024 173.076 255.025 176.314 252.432 178.923C250.243 181.125 247.529 182.113 244.151 182.058ZM236.503 169.863C236.503 170.3 236.47 170.74 236.508 171.174C236.765 174.127 237.657 176.804 239.946 178.847C243.531 182.046 250.303 181.66 252.263 175.603C252.534 174.767 252.725 173.915 252.811 173.045C253.121 169.936 252.866 166.909 251.119 164.212C249.412 161.576 246.943 160.347 243.787 160.572C240.894 160.777 238.747 162.136 237.484 164.766C236.714 166.368 236.441 168.091 236.503 169.863Z" fill="#264164"/>
<path d="M106.895 170.252C106.856 174.27 105.448 177.64 102.141 180.067C97.0439 183.807 86.5805 182.998 84.7665 172.951C83.8687 167.978 86.1354 163.007 90.2546 160.716C94.5941 158.303 100.76 159.157 104.099 162.664C106.115 164.781 106.938 167.357 106.895 170.252ZM87.6031 169.869C87.6031 170.451 87.5494 171.039 87.6122 171.614C87.9177 174.411 88.8635 176.909 91.0127 178.853C94.3995 181.918 101.299 181.86 103.32 175.594C104.298 172.562 104.235 169.493 103.27 166.46C102.823 165.055 102.054 163.83 101.025 162.757C97.6249 159.208 90.1534 159.678 88.1701 165.679C87.7187 167.045 87.5362 168.441 87.6031 169.869Z" fill="#264164"/>
<path d="M136.245 181.753C134.715 181.753 133.186 181.756 131.656 181.751C131.366 181.75 131.074 181.735 130.788 181.69C130.662 181.67 130.499 181.604 130.519 181.409C130.532 181.283 130.623 181.216 130.733 181.206C132.155 181.081 132.188 180.008 132.23 178.976C132.456 173.409 132.471 167.841 132.281 162.273C132.23 160.772 132.175 160.735 130.556 160.332C130.382 160.288 130.137 160.277 130.128 160.07C130.114 159.768 130.399 159.777 130.603 159.773C131.659 159.752 132.715 159.752 133.77 159.729C136.244 159.676 138.718 159.61 141.192 159.555C142.249 159.532 142.303 159.598 142.164 160.673C142.066 161.431 141.962 162.188 141.853 162.944C141.834 163.081 141.812 163.249 141.626 163.262C141.43 163.275 141.387 163.104 141.377 162.97C141.274 161.529 140.265 161.268 139.094 161.166C137.967 161.069 136.84 161.08 135.713 161.06C135.214 161.051 134.972 161.245 134.973 161.757C134.979 164.087 134.979 166.417 134.975 168.748C134.974 169.258 135.229 169.465 135.718 169.455C137.21 169.422 138.702 169.402 140.194 169.363C140.566 169.353 140.893 169.195 141.191 168.963C141.736 168.539 141.805 168.897 141.76 169.342C141.66 170.319 141.54 171.294 141.421 172.269C141.4 172.436 141.443 172.684 141.233 172.722C140.975 172.77 140.975 172.506 140.96 172.345C140.855 171.181 140.088 170.888 139.074 170.804C137.947 170.711 136.821 170.71 135.694 170.681C135.181 170.668 134.968 170.893 134.972 171.394C134.994 173.87 134.881 176.347 135.039 178.82C135.101 179.786 135.47 180.156 136.445 180.349C137.855 180.629 139.271 180.58 140.676 180.305C141.5 180.143 142.016 179.612 142.244 178.806C142.313 178.561 142.352 178.307 142.436 178.068C142.464 177.985 142.576 177.894 142.663 177.878C142.781 177.857 142.876 177.979 142.873 178.081C142.839 179.208 142.807 180.347 142.329 181.388C142.122 181.838 141.6 181.802 141.159 181.803C139.521 181.804 137.883 181.803 136.245 181.803C136.245 181.786 136.245 181.77 136.245 181.753Z" fill="#264164"/>
<path d="M119.086 170.651C119.086 173.309 119.084 175.967 119.088 178.624C119.088 178.915 119.102 179.208 119.14 179.496C119.299 180.678 119.521 180.908 120.68 181.112C120.895 181.149 121.115 181.16 121.329 181.198C121.464 181.222 121.641 181.233 121.622 181.435C121.607 181.604 121.454 181.664 121.315 181.688C121.101 181.725 120.882 181.748 120.665 181.749C118.917 181.753 117.17 181.754 115.422 181.749C115.206 181.748 114.986 181.721 114.777 181.671C114.696 181.652 114.603 181.545 114.577 181.46C114.538 181.333 114.663 181.244 114.76 181.236C116.244 181.104 116.247 180.008 116.301 178.92C116.578 173.316 116.36 167.709 116.444 162.104C116.456 161.344 116.11 161.172 115.452 161.195C114.215 161.238 112.977 161.252 111.739 161.263C110.596 161.273 109.662 161.605 109.218 162.778C109.147 162.967 109.064 163.247 108.79 163.176C108.507 163.103 108.593 162.814 108.628 162.623C108.786 161.765 108.975 160.913 109.145 160.056C109.262 159.472 109.647 159.336 110.187 159.348C111.825 159.381 113.465 159.345 115.101 159.412C118.412 159.547 121.724 159.489 125.035 159.559C126.58 159.592 126.522 159.249 126.517 161.135C126.516 161.79 126.492 162.445 126.474 163.1C126.468 163.293 126.392 163.504 126.201 163.516C125.995 163.529 125.919 163.316 125.912 163.124C125.856 161.778 124.877 161.438 123.821 161.343C122.483 161.223 121.131 161.256 119.786 161.203C119.09 161.176 119.053 161.612 119.054 162.13C119.061 164.97 119.057 167.811 119.057 170.651C119.067 170.651 119.076 170.651 119.086 170.651Z" fill="#264164"/>
<path d="M153.249 181.753C151.624 181.753 150.386 181.756 149.147 181.75C148.894 181.748 148.638 181.728 148.389 181.683C148.26 181.659 148.095 181.6 148.123 181.404C148.14 181.284 148.229 181.21 148.344 181.205C149.739 181.152 149.77 180.085 149.878 179.107C149.946 178.493 149.951 177.87 149.952 177.252C149.957 172.479 149.956 167.707 149.954 162.935C149.953 162.571 149.948 162.205 149.915 161.843C149.822 160.816 149.539 160.525 148.518 160.375C148.41 160.36 148.298 160.365 148.193 160.341C147.992 160.297 147.69 160.306 147.728 160.018C147.762 159.755 148.055 159.786 148.268 159.766C148.34 159.76 148.413 159.762 148.486 159.762C150.308 159.761 152.129 159.761 153.951 159.762C154.096 159.762 154.243 159.762 154.387 159.781C154.531 159.801 154.695 159.842 154.709 160.017C154.722 160.185 154.587 160.263 154.435 160.286C154.255 160.314 154.074 160.337 153.893 160.349C153.088 160.399 152.738 160.872 152.691 161.63C152.653 162.247 152.584 162.864 152.582 163.482C152.572 167.379 152.564 171.277 152.586 175.175C152.592 176.302 152.669 177.431 152.769 178.554C152.874 179.743 153.27 180.134 154.459 180.329C155.869 180.56 157.279 180.578 158.7 180.392C159.817 180.246 160.455 179.597 160.799 178.584C160.869 178.378 160.9 178.158 160.983 177.958C161.017 177.874 161.138 177.775 161.219 177.776C161.293 177.777 161.429 177.903 161.428 177.974C161.419 179.139 161.358 180.305 160.854 181.38C160.693 181.721 160.282 181.652 159.962 181.647C157.594 181.609 155.231 181.852 153.249 181.753Z" fill="#264164"/>
<path d="M224.667 170.044C224.667 167.64 224.668 165.236 224.665 162.832C224.665 162.541 224.646 162.25 224.622 161.96C224.548 161.092 224.302 160.376 223.235 160.344C223.044 160.339 222.753 160.303 222.814 159.988C222.857 159.766 223.094 159.776 223.266 159.776C225.051 159.768 226.836 159.766 228.621 159.771C228.832 159.772 229.107 159.785 229.109 160.068C229.11 160.278 228.86 160.287 228.689 160.34C227.539 160.693 227.33 160.902 227.328 162.079C227.319 167.544 227.337 173.008 227.346 178.473C227.347 178.655 227.345 178.839 227.37 179.018C227.613 180.764 227.566 180.966 229.331 181.175C229.525 181.198 229.843 181.139 229.827 181.445C229.813 181.697 229.521 181.728 229.311 181.728C227.308 181.734 225.304 181.734 223.301 181.719C223.105 181.718 222.816 181.698 222.829 181.399C222.839 181.166 223.095 181.214 223.256 181.163C224.302 180.829 224.401 180.699 224.507 179.545C224.796 176.383 224.671 173.212 224.667 170.044Z" fill="#264164"/>
<path d="M208.29 192.704C208.366 191.798 208.436 190.892 208.522 189.987C208.554 189.652 208.405 189.216 208.938 189.114C209.538 189 209.672 189.437 209.817 189.859C210.159 190.857 210.494 191.857 210.848 192.85C210.898 192.99 210.848 193.258 211.112 193.225C211.26 193.207 211.299 193.026 211.348 192.888C211.714 191.861 212.09 190.836 212.448 189.806C212.587 189.409 212.721 189.045 213.255 189.102C213.88 189.17 213.718 189.665 213.743 190.024C213.839 191.403 213.912 192.783 213.98 194.163C213.993 194.432 214.106 194.826 213.688 194.863C213.22 194.903 213.226 194.484 213.209 194.165C213.156 193.184 213.124 192.202 213.078 191.221C213.07 191.049 213.03 190.878 213.005 190.706C212.727 190.757 212.732 191.01 212.662 191.202C212.3 192.192 211.949 193.187 211.585 194.176C211.476 194.472 211.425 194.865 210.976 194.815C210.616 194.775 210.581 194.434 210.49 194.164C210.164 193.199 209.847 192.232 209.513 191.27C209.461 191.121 209.471 190.878 209.229 190.894C209.192 190.897 209.156 191.155 209.146 191.297C209.078 192.24 209.021 193.184 208.951 194.126C208.928 194.431 209.04 194.877 208.55 194.869C208.035 194.86 208.198 194.421 208.214 194.121C208.237 193.649 208.29 193.179 208.33 192.708C208.316 192.706 208.303 192.705 208.29 192.704Z" fill="#264164"/>
<path d="M203.231 192.107C203.274 192.76 203.321 193.413 203.358 194.067C203.376 194.379 203.509 194.815 203.052 194.865C202.451 194.931 202.634 194.384 202.607 194.076C202.518 193.062 202.476 192.044 202.411 191.028C202.404 190.921 202.388 190.737 202.341 190.724C202.145 190.673 202.146 190.869 202.104 190.986C201.718 192.045 201.342 193.108 200.953 194.167C200.857 194.429 200.821 194.772 200.452 194.808C199.985 194.853 199.968 194.433 199.86 194.152C199.627 193.54 199.454 192.906 199.213 192.298C199.005 191.773 199.005 191.157 198.551 190.736C198.517 191.274 198.485 191.813 198.449 192.351C198.408 192.968 198.384 193.587 198.312 194.2C198.281 194.459 198.341 194.868 197.918 194.86C197.471 194.852 197.581 194.457 197.595 194.194C197.671 192.741 197.761 191.288 197.862 189.837C197.885 189.52 197.896 189.159 198.351 189.106C198.809 189.054 198.995 189.318 199.124 189.703C199.469 190.738 199.832 191.767 200.188 192.799C200.246 192.964 200.252 193.211 200.473 193.207C200.69 193.203 200.678 192.947 200.735 192.791C201.097 191.801 201.448 190.806 201.806 189.814C201.943 189.433 202.062 189.043 202.609 189.103C203.169 189.164 203.043 189.599 203.079 189.93C203.156 190.653 203.206 191.379 203.267 192.104C203.255 192.105 203.243 192.106 203.231 192.107Z" fill="#264164"/>
<path d="M129.28 192.11C129.28 192.763 129.293 193.417 129.275 194.071C129.266 194.378 129.363 194.769 128.922 194.881C128.526 194.983 128.331 194.701 128.153 194.414C127.502 193.365 126.854 192.314 126.197 191.269C126.088 191.097 126.027 190.779 125.792 190.828C125.53 190.882 125.655 191.191 125.652 191.384C125.637 192.365 125.648 193.346 125.638 194.326C125.635 194.571 125.662 194.876 125.283 194.874C124.938 194.873 124.88 194.604 124.879 194.342C124.871 192.78 124.872 191.219 124.878 189.657C124.879 189.387 124.961 189.155 125.288 189.112C125.622 189.069 125.838 189.231 126.005 189.497C126.604 190.45 127.199 191.405 127.808 192.352C127.98 192.619 128.119 193.164 128.337 193.093C128.723 192.966 128.475 192.476 128.488 192.148C128.521 191.314 128.499 190.477 128.506 189.642C128.508 189.427 128.509 189.175 128.796 189.138C129.125 189.096 129.256 189.32 129.26 189.604C129.271 190.439 129.264 191.274 129.264 192.109L129.28 192.11Z" fill="#264164"/>
<path d="M113.057 192.035C113.057 191.343 113.073 190.651 113.052 189.96C113.036 189.425 113.256 189.121 113.798 189.109C114.27 189.098 114.752 189.064 115.213 189.141C116.622 189.378 117.116 190.59 116.246 191.721C115.985 192.06 115.886 192.243 116.157 192.628C116.518 193.139 116.551 193.791 116.7 194.389C116.754 194.604 116.797 194.84 116.483 194.895C116.239 194.938 116.052 194.835 115.969 194.597C115.897 194.392 115.852 194.178 115.791 193.969C115.698 193.655 115.637 193.327 115.5 193.033C115.264 192.527 114.807 192.419 114.301 192.506C113.781 192.596 113.902 193.034 113.881 193.377C113.861 193.704 113.878 194.033 113.865 194.36C113.854 194.62 113.832 194.896 113.464 194.877C113.119 194.858 113.073 194.589 113.07 194.329C113.059 193.565 113.066 192.8 113.066 192.035C113.063 192.035 113.06 192.035 113.057 192.035ZM114.53 189.713C113.766 189.674 113.893 190.265 113.877 190.763C113.86 191.302 113.863 191.8 114.639 191.76C115.361 191.724 115.815 191.376 115.83 190.77C115.847 190.147 115.319 189.701 114.53 189.713Z" fill="#264164"/>
<path d="M143.15 192.069C143.15 191.342 143.168 190.613 143.144 189.887C143.127 189.388 143.332 189.13 143.824 189.112C144.403 189.092 144.985 189.022 145.556 189.202C146.698 189.562 147.128 190.657 146.387 191.597C146.018 192.065 146.062 192.335 146.31 192.806C146.558 193.277 146.633 193.841 146.773 194.368C146.831 194.583 146.871 194.817 146.563 194.879C146.326 194.927 146.119 194.847 146.038 194.606C145.934 194.296 145.848 193.979 145.779 193.66C145.718 193.372 145.638 193.094 145.463 192.855C145.191 192.481 144.793 192.444 144.383 192.508C143.918 192.581 144.003 192.97 143.988 193.282C143.969 193.682 143.982 194.083 143.963 194.482C143.951 194.73 143.815 194.884 143.549 194.886C143.272 194.888 143.163 194.717 143.161 194.47C143.156 193.67 143.159 192.87 143.159 192.069C143.156 192.069 143.153 192.069 143.15 192.069ZM144.646 191.751C145.405 191.756 145.898 191.366 145.925 190.791C145.952 190.2 145.394 189.734 144.685 189.71C143.875 189.683 143.99 190.255 143.986 190.747C143.981 191.252 143.9 191.827 144.646 191.751Z" fill="#264164"/>
<path d="M135.922 193.283C135.922 194.778 135.779 194.918 134.249 194.952C133.028 194.979 131.985 194.619 131.456 193.444C130.924 192.263 131.027 191.087 131.862 190.054C132.539 189.217 134.124 188.817 135.177 189.171C135.403 189.247 135.726 189.279 135.614 189.654C135.53 189.933 135.291 189.905 135.075 189.852C134.571 189.727 134.074 189.702 133.568 189.851C132.468 190.175 131.839 191.192 132.014 192.39C132.181 193.543 133.034 194.3 134.176 194.297C134.63 194.296 135.106 194.273 135.073 193.635C135.049 193.183 135.328 192.538 134.472 192.512C134.252 192.505 134.005 192.465 134.021 192.169C134.037 191.867 134.303 191.9 134.511 191.873C135.793 191.706 135.921 191.834 135.922 193.283Z" fill="#264164"/>
<path d="M102.825 193.288C102.824 194.753 102.684 194.904 101.228 194.947C100.028 194.983 98.9395 194.704 98.3913 193.519C97.8526 192.355 97.868 191.152 98.7145 190.122C99.5654 189.088 100.744 188.922 101.998 189.158C102.224 189.2 102.569 189.225 102.505 189.591C102.425 190.05 102.083 189.861 101.814 189.809C101.304 189.709 100.803 189.714 100.308 189.895C99.2369 190.287 98.7366 191.271 98.9599 192.558C99.1465 193.634 100.022 194.34 101.137 194.295C101.582 194.277 102.065 194.252 102.03 193.614C102.004 193.159 102.277 192.516 101.416 192.507C101.192 192.505 100.952 192.442 100.993 192.143C101.034 191.848 101.303 191.896 101.509 191.872C102.718 191.731 102.826 191.848 102.825 193.288Z" fill="#264164"/>
<path d="M164.125 194.952C163.306 194.971 162.678 194.743 162.341 194.03C162.039 193.393 162.205 192.798 162.707 192.346C163.053 192.035 162.913 191.859 162.715 191.548C162.226 190.779 162.338 190.119 162.963 189.618C163.574 189.128 164.736 189.137 165.304 189.635C165.844 190.108 165.924 190.768 165.435 191.491C165.222 191.806 165.083 191.977 165.448 192.278C166.029 192.758 166.085 193.398 165.79 194.059C165.527 194.647 164.891 194.954 164.125 194.952ZM164.048 194.347C164.644 194.362 165.04 194.094 165.135 193.498C165.218 192.976 164.616 192.33 164.052 192.347C163.459 192.365 163.119 192.723 163.053 193.304C162.987 193.892 163.42 194.327 164.048 194.347ZM164.08 189.871C163.526 189.919 163.189 190.187 163.229 190.761C163.268 191.328 163.697 191.599 164.179 191.589C164.644 191.579 164.962 191.195 164.969 190.721C164.978 190.167 164.615 189.898 164.08 189.871Z" fill="#264164"/>
<path d="M137.934 191.929C137.935 191.202 137.936 190.476 137.934 189.75C137.933 189.382 138.028 189.1 138.47 189.1C139.197 189.1 139.923 189.095 140.649 189.103C140.881 189.105 141.094 189.183 141.082 189.468C141.071 189.747 140.847 189.809 140.623 189.823C140.297 189.842 139.967 189.87 139.643 189.839C138.885 189.767 138.726 190.16 138.755 190.822C138.777 191.326 138.953 191.557 139.463 191.542C139.825 191.532 140.188 191.552 140.551 191.572C140.74 191.583 140.911 191.655 140.924 191.88C140.936 192.109 140.777 192.201 140.583 192.215C140.258 192.239 139.928 192.274 139.605 192.245C138.801 192.171 138.766 192.655 138.751 193.266C138.736 193.909 138.93 194.221 139.612 194.173C140.008 194.145 140.41 194.18 140.808 194.205C141.005 194.216 141.149 194.323 141.15 194.544C141.15 194.76 141.024 194.889 140.82 194.892C139.985 194.901 139.15 194.92 138.317 194.884C137.927 194.868 137.938 194.507 137.935 194.216C137.93 193.454 137.934 192.691 137.934 191.929Z" fill="#264164"/>
<path d="M104.888 191.985C104.889 191.222 104.89 190.459 104.888 189.696C104.887 189.373 104.968 189.109 105.356 189.106C106.083 189.101 106.809 189.103 107.535 189.111C107.728 189.114 107.894 189.197 107.914 189.418C107.939 189.699 107.756 189.805 107.514 189.819C107.116 189.84 106.716 189.851 106.317 189.853C105.677 189.857 105.679 190.3 105.673 190.758C105.667 191.218 105.791 191.539 106.334 191.538C106.733 191.537 107.132 191.559 107.53 191.588C107.679 191.599 107.812 191.69 107.834 191.849C107.865 192.073 107.709 192.188 107.518 192.206C107.158 192.24 106.793 192.265 106.431 192.25C105.663 192.217 105.675 192.728 105.667 193.266C105.658 193.811 105.777 194.195 106.439 194.167C106.873 194.149 107.31 194.177 107.745 194.197C107.939 194.206 108.094 194.293 108.112 194.514C108.135 194.802 107.95 194.902 107.71 194.906C106.948 194.916 106.185 194.907 105.423 194.914C104.976 194.918 104.884 194.644 104.886 194.273C104.891 193.51 104.888 192.747 104.888 191.985Z" fill="#264164"/>
<path d="M220.3 191.974C220.299 191.246 220.305 190.518 220.297 189.791C220.292 189.366 220.42 189.087 220.909 189.094C221.564 189.104 222.219 189.092 222.873 189.102C223.091 189.105 223.336 189.126 223.361 189.418C223.392 189.783 223.115 189.816 222.854 189.83C222.527 189.847 222.198 189.86 221.872 189.847C221.297 189.824 221.121 190.122 221.115 190.653C221.109 191.213 221.245 191.577 221.898 191.544C222.223 191.527 222.553 191.547 222.878 191.574C223.069 191.59 223.234 191.684 223.221 191.913C223.209 192.14 223.034 192.209 222.846 192.227C222.629 192.248 222.41 192.242 222.192 192.25C221.171 192.288 221.021 192.486 221.118 193.502C221.161 193.953 221.351 194.16 221.797 194.16C222.197 194.16 222.597 194.166 222.997 194.185C223.259 194.197 223.538 194.244 223.513 194.596C223.494 194.878 223.249 194.911 223.026 194.913C222.335 194.92 221.644 194.908 220.953 194.921C220.493 194.93 220.293 194.719 220.298 194.266C220.307 193.502 220.3 192.738 220.3 191.974Z" fill="#264164"/>
<path d="M195.774 194.435C195.814 194.682 195.769 194.83 195.609 194.863C195.477 194.891 195.308 194.885 195.192 194.824C194.946 194.694 194.929 194.403 194.834 194.175C194.377 193.077 194.332 193.068 193.171 193.115C192.65 193.136 192.358 193.334 192.25 193.835C192.219 193.975 192.16 194.11 192.109 194.246C191.982 194.579 191.889 195.055 191.408 194.864C190.971 194.69 191.288 194.298 191.376 194.026C191.834 192.612 192.318 191.207 192.793 189.798C192.91 189.452 193.004 189.105 193.489 189.097C193.981 189.089 194.077 189.44 194.194 189.784C194.686 191.224 195.174 192.666 195.664 194.108C195.71 194.245 195.756 194.382 195.774 194.435ZM193.503 192.406C194.089 192.506 194.252 192.207 194.017 191.653C193.842 191.239 193.765 190.449 193.486 190.491C193.076 190.552 193.124 191.271 192.936 191.692C192.699 192.223 192.888 192.442 193.503 192.406Z" fill="#264164"/>
<path d="M239.478 194.344C239.53 194.691 239.487 194.836 239.322 194.867C239.188 194.892 239.017 194.895 238.904 194.832C238.665 194.698 238.64 194.412 238.55 194.18C238.158 193.175 237.596 192.889 236.572 193.143C236.233 193.226 236.111 193.447 236.015 193.735C235.913 194.044 235.799 194.351 235.668 194.649C235.567 194.882 235.358 194.952 235.126 194.883C234.808 194.787 234.923 194.529 234.985 194.343C235.526 192.726 236.058 191.106 236.643 189.504C236.835 188.979 237.548 188.907 237.732 189.391C238.378 191.084 238.944 192.808 239.478 194.344ZM237.266 192.403C237.93 192.506 237.928 192.138 237.72 191.623C237.557 191.223 237.411 190.816 237.258 190.412C236.777 190.68 236.883 191.224 236.69 191.628C236.434 192.163 236.558 192.468 237.266 192.403Z" fill="#264164"/>
<path d="M122.963 194.432C123.002 194.69 122.956 194.836 122.792 194.865C122.659 194.889 122.491 194.883 122.376 194.82C122.133 194.687 122.116 194.397 122.024 194.167C121.63 193.175 121.062 192.89 120.034 193.142C119.695 193.226 119.57 193.441 119.478 193.733C119.38 194.044 119.272 194.352 119.141 194.65C119.041 194.878 118.829 194.954 118.597 194.882C118.282 194.785 118.395 194.527 118.458 194.341C119.001 192.726 119.557 191.114 120.111 189.503C120.203 189.233 120.384 189.092 120.682 189.102C120.961 189.111 121.171 189.194 121.27 189.483C121.831 191.13 122.397 192.776 122.961 194.423C122.973 194.457 122.974 194.494 122.963 194.432ZM120.736 192.404C121.264 192.49 121.425 192.235 121.233 191.714C121.07 191.274 120.896 190.838 120.727 190.401C120.276 190.694 120.353 191.235 120.148 191.644C119.864 192.21 120.072 192.461 120.736 192.404Z" fill="#264164"/>
<path d="M171.342 191.636C171.34 193.236 170.614 194.383 169.322 194.8C169.083 194.877 168.827 194.917 168.576 194.936C168.359 194.953 168.116 194.933 168.115 194.623C168.114 194.392 168.285 194.333 168.479 194.309C169.204 194.218 169.801 193.913 170.185 193.267C170.273 193.118 170.436 192.927 170.323 192.782C170.194 192.616 169.987 192.785 169.827 192.839C169.084 193.088 168.438 192.92 167.961 192.321C167.456 191.687 167.492 190.957 167.829 190.258C168.184 189.521 168.823 189.224 169.623 189.268C170.719 189.329 171.343 190.196 171.342 191.636ZM170.5 191.271C170.519 190.486 170.061 189.901 169.435 189.911C168.851 189.919 168.456 190.382 168.433 191.086C168.41 191.778 168.791 192.27 169.377 192.307C169.985 192.346 170.484 191.886 170.5 191.271Z" fill="#264164"/>
<path d="M229.784 189.104C230.266 189.126 230.322 189.469 230.421 189.781C230.758 190.855 231.098 191.927 231.44 192.999C231.492 193.162 231.476 193.407 231.706 193.416C231.952 193.425 231.916 193.166 231.97 193.012C232.329 191.984 232.676 190.952 233.037 189.925C233.12 189.688 233.214 189.447 233.351 189.239C233.46 189.075 233.676 189.081 233.852 189.141C234.078 189.218 234.063 189.408 233.999 189.587C233.412 191.228 232.823 192.868 232.232 194.507C232.137 194.771 231.963 194.919 231.659 194.91C231.358 194.902 231.187 194.749 231.1 194.483C230.57 192.862 230.041 191.241 229.517 189.617C229.428 189.341 229.451 189.105 229.784 189.104Z" fill="#264164"/>
<path d="M293.122 161.526C293.122 161.926 293.124 162.326 293.121 162.726C293.119 162.928 293.033 163.092 292.814 163.095C292.595 163.098 292.503 162.941 292.499 162.736C292.49 162.299 292.488 161.863 292.478 161.427C292.476 161.357 292.464 161.241 292.425 161.226C292.293 161.173 292.261 161.296 292.227 161.387C292.1 161.727 291.978 162.069 291.853 162.41C291.745 162.708 291.721 163.118 291.289 163.101C290.873 163.083 290.86 162.665 290.74 162.376C290.616 162.075 290.52 161.761 290.395 161.46C290.357 161.37 290.262 161.304 290.194 161.227C290.166 161.318 290.118 161.409 290.114 161.501C290.096 161.937 290.099 162.373 290.076 162.808C290.068 162.958 289.973 163.077 289.801 163.093C289.576 163.113 289.449 162.989 289.447 162.783C289.436 161.91 289.437 161.038 289.441 160.165C289.443 159.914 289.573 159.763 289.837 159.747C290.137 159.728 290.431 159.724 290.564 160.071C290.746 160.546 290.918 161.024 291.106 161.496C291.142 161.587 291.231 161.657 291.296 161.736C291.364 161.654 291.457 161.583 291.496 161.488C291.66 161.085 291.828 160.681 291.957 160.265C292.087 159.842 292.344 159.68 292.772 159.752C293.194 159.824 293.114 160.16 293.126 160.435C293.141 160.798 293.13 161.162 293.13 161.526H293.122Z" fill="#264164"/>
<path d="M188.672 189.113C189.036 189.113 189.4 189.105 189.763 189.115C189.968 189.121 190.1 189.23 190.108 189.449C190.117 189.671 189.989 189.792 189.786 189.806C189.387 189.834 188.986 189.855 188.587 189.849C187.88 189.838 187.891 190.316 187.882 190.814C187.872 191.323 188.004 191.622 188.604 191.661C189.041 191.689 189.837 191.359 189.833 192.037C189.83 192.576 189.05 192.305 188.625 192.314C188.035 192.326 187.864 192.593 187.88 193.121C187.893 193.557 187.878 193.995 187.856 194.431C187.845 194.662 187.751 194.858 187.478 194.877C187.194 194.897 187.08 194.715 187.079 194.475C187.073 192.837 187.075 191.198 187.083 189.559C187.084 189.249 187.284 189.109 187.58 189.104C187.944 189.099 188.308 189.103 188.672 189.103C188.672 189.106 188.672 189.109 188.672 189.113Z" fill="#264164"/>
<path d="M225.443 191.912C225.443 191.26 225.427 190.608 225.449 189.956C225.461 189.623 225.345 189.128 225.899 189.147C226.384 189.164 226.249 189.623 226.254 189.915C226.273 191.038 226.287 192.162 226.255 193.284C226.237 193.94 226.493 194.211 227.146 194.173C227.542 194.15 227.942 194.187 228.338 194.218C228.49 194.23 228.594 194.343 228.609 194.506C228.628 194.717 228.525 194.879 228.319 194.883C227.487 194.899 226.654 194.922 225.824 194.878C225.453 194.858 225.454 194.483 225.45 194.195C225.441 193.434 225.447 192.673 225.447 191.912H225.443Z" fill="#264164"/>
<path d="M180.933 190.568C181.688 190.545 182.346 191.146 182.377 191.886C182.41 192.665 181.733 193.374 180.963 193.367C180.217 193.36 179.589 192.727 179.58 191.972C179.57 191.21 180.167 190.591 180.933 190.568Z" fill="#264164"/>
<path d="M153.843 191.928C153.853 192.667 153.23 193.332 152.498 193.362C151.734 193.393 151.04 192.694 151.06 191.912C151.081 191.131 151.674 190.561 152.46 190.566C153.249 190.572 153.832 191.146 153.843 191.928Z" fill="#264164"/>
<path d="M217.313 191.419C217.313 190.801 217.308 190.183 217.316 189.565C217.319 189.324 217.425 189.139 217.697 189.135C217.969 189.131 218.089 189.311 218.088 189.554C218.082 190.933 218.239 192.323 218.009 193.688C217.84 194.693 216.915 195.191 215.94 194.933C215.8 194.896 215.651 194.871 215.621 194.69C215.595 194.528 215.662 194.351 215.807 194.353C217.647 194.388 217.239 193.031 217.299 191.964C217.309 191.783 217.3 191.601 217.3 191.419C217.304 191.419 217.309 191.419 217.313 191.419Z" fill="#264164"/>
<path d="M159.311 192.092C159.311 192.854 159.313 193.616 159.309 194.378C159.308 194.649 159.258 194.897 158.901 194.885C158.56 194.873 158.494 194.634 158.492 194.36C158.486 193.235 158.485 192.11 158.482 190.985C158.481 190.562 158.513 190.106 157.853 190.45C157.694 190.533 157.581 190.441 157.51 190.299C157.437 190.153 157.456 190.001 157.593 189.917C157.902 189.73 158.211 189.532 158.545 189.4C159.012 189.214 159.323 189.335 159.316 189.915C159.307 190.64 159.314 191.366 159.314 192.092H159.311Z" fill="#264164"/>
<path d="M175.403 192.179C175.403 192.903 175.411 193.628 175.4 194.351C175.396 194.615 175.332 194.873 174.989 194.877C174.623 194.882 174.609 194.598 174.607 194.345C174.596 193.223 174.595 192.101 174.596 190.978C174.597 190.543 174.612 190.121 173.962 190.429C173.69 190.558 173.477 190.385 173.585 190.142C173.826 189.597 174.39 189.408 174.911 189.356C175.529 189.294 175.396 189.859 175.409 190.224C175.433 190.875 175.416 191.528 175.416 192.179C175.412 192.179 175.408 192.179 175.403 192.179Z" fill="#264164"/>
<path d="M110.806 192.06C110.806 192.824 110.813 193.588 110.802 194.352C110.798 194.606 110.777 194.9 110.402 194.855C110.113 194.821 110.107 194.565 110.106 194.353C110.099 192.789 110.098 191.224 110.106 189.66C110.107 189.407 110.131 189.112 110.506 189.156C110.794 189.191 110.8 189.447 110.802 189.659C110.812 190.459 110.806 191.26 110.806 192.06Z" fill="#264164"/>
<path d="M287.505 159.724C287.723 159.724 287.945 159.699 288.158 159.73C288.42 159.769 288.82 159.592 288.9 159.976C288.995 160.433 288.567 160.357 288.309 160.385C287.893 160.431 287.894 160.721 287.89 161.016C287.882 161.525 287.89 162.033 287.879 162.542C287.875 162.789 287.909 163.107 287.533 163.089C287.172 163.072 287.217 162.752 287.208 162.507C287.195 162.144 287.192 161.78 287.203 161.417C287.221 160.841 287.239 160.288 286.397 160.348C286.201 160.362 286.076 160.204 286.102 159.983C286.124 159.797 286.275 159.751 286.416 159.745C286.779 159.731 287.142 159.741 287.505 159.741V159.724Z" fill="#264164"/>
</svg>
