<svg width="101" height="101" viewBox="0 0 101 101" fill="none" xmlns="http://www.w3.org/2000/svg">
<path d="M69.4469 3.84545C64.2863 1.95607 58.8734 1 53.3459 1C31.3046 1 12.4743 16.2972 7.84123 37.2397L4.12562 31.5488C3.5981 30.7521 2.54305 30.5244 1.74029 31.048C0.937539 31.5488 0.708195 32.6187 1.23572 33.4154L7.33664 42.7712C7.33664 42.7712 7.35957 42.794 7.3825 42.8168C7.45131 42.9078 7.52013 42.9761 7.58893 43.0672C7.58893 43.0672 7.61186 43.1127 7.6348 43.1127C7.72654 43.2038 7.84122 43.272 7.9559 43.3403C7.97883 43.3403 8.00177 43.3631 8.04764 43.3859C8.13939 43.4314 8.23114 43.4542 8.32288 43.4997C8.36875 43.4997 8.41462 43.4997 8.46049 43.5224C8.50636 43.5224 8.55224 43.5452 8.57518 43.5452C8.64398 43.5452 8.71278 43.5452 8.78159 43.5452C8.89627 43.5452 9.01095 43.5452 9.12563 43.4997C9.1715 43.4997 9.19444 43.4997 9.24032 43.4769C9.33206 43.4542 9.42379 43.4086 9.51554 43.3859C9.51554 43.3859 9.56142 43.3859 9.58436 43.3631L19.1945 38.264C20.0201 37.8315 20.3413 36.7844 19.9055 35.9649C19.4697 35.1454 18.4146 34.8267 17.589 35.2592L11.0293 38.7193C15.0431 18.9377 32.6578 4.41454 53.323 4.41454C58.4606 4.41454 63.4835 5.30232 68.2542 7.03236C69.1487 7.35105 70.1349 6.89578 70.456 6.03076C70.7771 5.14298 70.3184 4.16414 69.4469 3.84545Z" fill="#264164" stroke="#264164" stroke-width="1.38193" stroke-miterlimit="10"/>
<path d="M84.103 12.5419L91.2131 12.6557C91.2131 12.6557 91.2131 12.6557 91.2361 12.6557C92.1764 12.6557 92.9333 11.9045 92.9562 10.9712C92.9562 10.0379 92.2223 9.26397 91.259 9.2412L80.0434 9.03633C79.126 8.9908 78.392 9.67371 78.3003 10.5615L77.1764 21.3287C77.0847 22.262 77.7727 23.1042 78.7131 23.1953C78.7819 23.1953 78.8278 23.1953 78.8966 23.1953C79.7682 23.1953 80.5021 22.5352 80.5938 21.6701L81.3278 14.6134C91.0067 22.7628 96.5113 34.5088 96.5113 47.2337C96.5113 59.9585 90.5021 72.7062 80.0434 80.9011C79.3095 81.4929 79.1718 82.5628 79.7681 83.2913C80.1122 83.7238 80.6168 83.9514 81.1214 83.9514C81.4884 83.9514 81.8782 83.8376 82.1764 83.5872C93.4608 74.7549 99.9517 61.5065 99.9517 47.2337C99.9517 33.9625 94.0801 21.2604 84.103 12.5192V12.5419Z" fill="#264164" stroke="#264164" stroke-width="1.38193" stroke-miterlimit="10"/>
<path d="M73.0934 86.6378L63.5522 81.4022C62.7265 80.9469 61.6714 81.2428 61.2127 82.0623C60.754 82.8818 61.0521 83.9289 61.8778 84.3842L67.7953 87.6166C63.1622 89.2556 58.3228 90.0979 53.3228 90.0979C31.6943 90.0979 13.2768 74.0723 10.5016 52.7883C10.3869 51.855 9.51535 51.1948 8.57498 51.3087C7.63461 51.4225 6.96947 52.2875 7.08415 53.2208C10.0658 76.1893 29.9512 93.4896 53.2998 93.4896C58.7815 93.4896 64.1026 92.5563 69.1714 90.7352L66.098 97.6099C65.7081 98.4749 66.098 99.4765 66.9696 99.8635C67.1989 99.9545 67.4283 100 67.6577 100C68.3228 100 68.9421 99.6131 69.2173 98.9984L73.7815 88.8231C74.1485 88.0264 73.8274 87.0703 73.0476 86.6378H73.0934Z" fill="#264164" stroke="#264164" stroke-width="1.38193" stroke-miterlimit="10"/>
<mask id="mask0_2015_14279" style="mask-type:luminance" maskUnits="userSpaceOnUse" x="34" y="18" width="40" height="55">
<path d="M73.9863 18.7561H34.1238V72.888H73.9863V18.7561Z" fill="white"/>
</mask>
<g mask="url(#mask0_2015_14279)">
<path d="M54.0322 65.2173C48.8028 65.2173 44.3303 61.6207 42.4955 56.5671H34.3074C36.4633 65.923 44.4909 72.8887 54.0322 72.8887C63.5735 72.8887 71.601 65.923 73.757 56.5671H65.5689C63.734 61.6207 59.2615 65.2173 54.0322 65.2173Z" fill="#264164"/>
<path d="M54.0329 31.0485C58.7348 37.1491 64.1247 45.2757 65.8449 50.7845H73.9641C71.6247 39.8807 58.7118 24.2877 57.0834 22.3755L54.0329 18.7561L50.9825 22.3755C49.3769 24.2877 36.4411 39.8807 34.1017 50.7845H42.221C43.9641 45.2757 49.354 37.1491 54.0329 31.0485Z" fill="#264164"/>
</g>
</svg>
