<svg width="101" height="101" viewBox="0 0 101 101" fill="none" xmlns="http://www.w3.org/2000/svg">
<path d="M14.3394 54.5431C6.97568 54.5431 1 48.5439 1 41.2037C1 33.8635 6.99921 27.8643 14.3394 27.8643H16.3391L16.5509 26.7351C17.5155 21.8181 20.0798 17.5833 23.9852 14.5014C27.7024 11.5606 32.337 9.96079 37.0188 9.96079C40.8535 9.96079 44.5942 11.043 47.8879 13.1133L49.323 14.0073L49.9112 12.4075C50.8287 9.98434 52.3109 7.74932 54.2165 5.96133C57.4161 2.97348 61.345 1.39722 65.6032 1.39722C69.8615 1.39722 74.2609 3.09112 77.437 6.07896C80.8247 9.25501 82.7068 13.6074 82.7068 18.3597C82.7068 20.9946 82.1187 23.5355 80.9659 25.841L79.9778 27.8408H86.6122C93.9759 27.8408 99.9516 33.84 99.9516 41.1802C99.9516 48.5204 93.9524 54.5196 86.6122 54.5196H14.3394V54.5431ZM14.3394 31.0168C8.74015 31.0168 4.17605 35.5809 4.17605 41.1802C4.17605 46.7795 8.74015 51.3435 14.3394 51.3435H86.6357C92.235 51.3435 96.7991 46.7795 96.7991 41.1802C96.7991 35.5809 92.235 31.0168 86.6357 31.0168H76.3783C75.3902 31.0168 74.9902 30.2405 74.8961 30.0052C74.802 29.7699 74.5432 28.9465 75.2725 28.2642C79.4131 24.3118 80.66 18.5479 78.5192 13.2074C76.3783 7.89049 71.5083 4.57328 65.7914 4.57328C58.6394 4.57328 52.6167 10.149 52.0756 17.2775C52.005 18.242 51.2051 18.7596 50.4758 18.7596C50.1935 18.7596 49.7465 18.6891 49.3701 18.2891C46.0529 14.9484 41.677 13.1133 37.0658 13.1133C29.0198 13.1133 20.1034 18.8537 19.4211 29.5347C19.374 30.3581 18.6683 31.0168 17.8448 31.0168H14.3865H14.3394Z" fill="#264164" stroke="#264164" stroke-width="1.17631" stroke-miterlimit="10"/>
<path d="M36.4048 88.9857C35.5343 88.9857 34.805 88.2799 34.805 87.3859V79.7633C34.805 78.8929 35.5108 78.1636 36.4048 78.1636C37.2988 78.1636 38.0046 78.8693 38.0046 79.7633V87.3859C38.0046 88.2564 37.2988 88.9857 36.4048 88.9857Z" fill="#264164" stroke="#264164" stroke-width="1.17631" stroke-miterlimit="10"/>
<path d="M8.24658 88.9857C7.3761 88.9857 6.64679 88.2799 6.64679 87.3859V79.7633C6.64679 78.8929 7.35258 78.1636 8.24658 78.1636C9.14058 78.1636 9.84637 78.8693 9.84637 79.7633V87.3859C9.84637 88.2564 9.14058 88.9857 8.24658 88.9857Z" fill="#264164" stroke="#264164" stroke-width="1.17631" stroke-miterlimit="10"/>
<path d="M22.3398 77.5763C21.4694 77.5763 20.7401 76.8705 20.7401 75.9765V68.354C20.7401 67.4835 21.4458 66.7542 22.3398 66.7542C23.2338 66.7542 23.9396 67.46 23.9396 68.354V75.9765C23.9396 76.8469 23.2338 77.5763 22.3398 77.5763Z" fill="#264164" stroke="#264164" stroke-width="1.17631" stroke-miterlimit="10"/>
<path d="M22.3398 100.397C21.4694 100.397 20.7401 99.6915 20.7401 98.7975V91.175C20.7401 90.3045 21.4458 89.5752 22.3398 89.5752C23.2338 89.5752 23.9396 90.281 23.9396 91.175V98.7975C23.9396 99.668 23.2338 100.397 22.3398 100.397Z" fill="#264164" stroke="#264164" stroke-width="1.17631" stroke-miterlimit="10"/>
<path d="M64.5681 88.9857C63.6976 88.9857 62.9683 88.2799 62.9683 87.3859V79.7633C62.9683 78.8929 63.6741 78.1636 64.5681 78.1636C65.4621 78.1636 66.1678 78.8693 66.1678 79.7633V87.3859C66.1678 88.2564 65.4621 88.9857 64.5681 88.9857Z" fill="#264164" stroke="#264164" stroke-width="1.17631" stroke-miterlimit="10"/>
<path d="M50.498 77.5763C49.6276 77.5763 48.8983 76.8705 48.8983 75.9765V68.354C48.8983 67.4835 49.604 66.7542 50.498 66.7542C51.392 66.7542 52.0978 67.46 52.0978 68.354V75.9765C52.0978 76.8469 51.392 77.5763 50.498 77.5763Z" fill="#264164" stroke="#264164" stroke-width="1.17631" stroke-miterlimit="10"/>
<path d="M50.498 100.397C49.6276 100.397 48.8983 99.6915 48.8983 98.7975V91.175C48.8983 90.3045 49.604 89.5752 50.498 89.5752C51.392 89.5752 52.0978 90.281 52.0978 91.175V98.7975C52.0978 99.668 51.392 100.397 50.498 100.397Z" fill="#264164" stroke="#264164" stroke-width="1.17631" stroke-miterlimit="10"/>
<path d="M92.7313 88.9857C91.8608 88.9857 91.1315 88.2799 91.1315 87.3859V79.7633C91.1315 78.8929 91.8373 78.1636 92.7313 78.1636C93.6253 78.1636 94.331 78.8693 94.331 79.7633V87.3859C94.331 88.2564 93.6253 88.9857 92.7313 88.9857Z" fill="#264164" stroke="#264164" stroke-width="1.17631" stroke-miterlimit="10"/>
<path d="M78.6613 77.5763C77.7908 77.5763 77.0615 76.8705 77.0615 75.9765V68.354C77.0615 67.4835 77.7673 66.7542 78.6613 66.7542C79.5553 66.7542 80.261 67.46 80.261 68.354V75.9765C80.261 76.8469 79.5553 77.5763 78.6613 77.5763Z" fill="#264164" stroke="#264164" stroke-width="1.17631" stroke-miterlimit="10"/>
<path d="M78.6613 100.397C77.7908 100.397 77.0615 99.6915 77.0615 98.7975V91.175C77.0615 90.3045 77.7673 89.5752 78.6613 89.5752C79.5553 89.5752 80.261 90.281 80.261 91.175V98.7975C80.261 99.668 79.5553 100.397 78.6613 100.397Z" fill="#264164" stroke="#264164" stroke-width="1.17631" stroke-miterlimit="10"/>
</svg>
