<svg width="112" height="52" viewBox="0 0 112 52" fill="none" xmlns="http://www.w3.org/2000/svg">
<path d="M3.10606 44.5453C8.08615 44.5453 10.5083 45.9488 13.0889 47.4654C15.8279 49.05 18.6349 50.6798 24.2262 50.6798C29.8174 50.6798 32.6244 49.05 35.3634 47.4654C37.944 45.9714 40.3662 44.5453 45.3463 44.5453C50.3264 44.5453 52.7485 45.9488 55.3291 47.4654C58.0681 49.05 60.8751 50.6798 66.4664 50.6798C72.0577 50.6798 74.8873 49.05 77.6263 47.4654C80.2069 45.9714 82.6517 44.5453 87.6317 44.5453C92.6118 44.5453 95.0566 45.9488 97.6372 47.4654C100.376 49.05 103.183 50.6798 108.797 50.6798C109.431 50.6798 109.952 50.1592 109.952 49.5254C109.952 48.8915 109.431 48.3709 108.797 48.3709C103.817 48.3709 101.372 46.9674 98.7917 45.4507C96.0526 43.8662 93.2457 42.2363 87.6317 42.2363C82.0178 42.2363 79.2109 43.8662 76.4718 45.4507C73.8912 46.9448 71.4465 48.3709 66.4664 48.3709C61.4863 48.3709 59.0641 46.9674 56.4836 45.4507C53.7445 43.8662 50.9376 42.2363 45.3463 42.2363C39.755 42.2363 36.948 43.8662 34.209 45.4507C31.6284 46.9448 29.2063 48.3709 24.2262 48.3709C19.2461 48.3709 16.824 46.9674 14.2434 45.4507C11.5043 43.8662 8.69734 42.2363 3.10606 42.2363C2.47223 42.2363 1.9516 42.757 1.9516 43.3908C1.9516 44.0246 2.47223 44.5453 3.10606 44.5453Z" fill="#264164" stroke="#264164" stroke-width="2.26368" stroke-miterlimit="10"/>
<path d="M3.10606 24.307C8.08615 24.307 10.5083 25.7105 13.0889 27.2271C15.8279 28.8117 18.6349 30.4416 24.2262 30.4416C29.8174 30.4416 32.6244 28.8117 35.3634 27.2271C37.944 25.7331 40.3662 24.307 45.3463 24.307C50.3264 24.307 52.7485 25.7105 55.3291 27.2271C58.0681 28.8117 60.8751 30.4416 66.4664 30.4416C72.0577 30.4416 74.8873 28.8117 77.6263 27.2271C80.2069 25.7331 82.6517 24.307 87.6317 24.307C92.6118 24.307 95.0566 25.7105 97.6372 27.2271C100.376 28.8117 103.183 30.4416 108.797 30.4416C109.431 30.4416 109.952 29.9209 109.952 29.2871C109.952 28.6533 109.431 28.1326 108.797 28.1326C103.817 28.1326 101.372 26.7291 98.7917 25.2125C96.0526 23.6279 93.2457 21.998 87.6317 21.998C82.0178 21.998 79.2109 23.6279 76.4718 25.2125C73.8912 26.7065 71.4465 28.1326 66.4664 28.1326C61.4863 28.1326 59.0641 26.7291 56.4836 25.2125C53.7445 23.6279 50.9376 21.998 45.3463 21.998C39.755 21.998 36.948 23.6279 34.209 25.2125C31.6284 26.7065 29.2063 28.1326 24.2262 28.1326C19.2461 28.1326 16.824 26.7291 14.2434 25.2125C11.5043 23.6279 8.69734 21.998 3.10606 21.998C2.47223 21.998 1.9516 22.5187 1.9516 23.1525C1.9516 23.7864 2.47223 24.307 3.10606 24.307Z" fill="#264164" stroke="#264164" stroke-width="2.26368" stroke-miterlimit="10"/>
<path d="M3.10606 4.09286C8.08615 4.09286 10.5083 5.49636 13.0889 7.01302C15.8279 8.5976 18.6349 10.2274 24.2262 10.2274C29.8174 10.2274 32.6244 8.5976 35.3634 7.01302C37.944 5.519 40.3662 4.09286 45.3463 4.09286C50.3264 4.09286 52.7485 5.49636 55.3291 7.01302C58.0681 8.5976 60.8751 10.2274 66.4664 10.2274C72.0577 10.2274 74.8873 8.5976 77.6263 7.01302C80.2069 5.519 82.6517 4.09286 87.6317 4.09286C92.6118 4.09286 95.0566 5.49636 97.6372 7.01302C100.376 8.5976 103.183 10.2274 108.797 10.2274C109.431 10.2274 109.952 9.70681 109.952 9.07298C109.952 8.43915 109.431 7.91848 108.797 7.91848C103.817 7.91848 101.372 6.51502 98.7917 4.99835C96.0526 3.41378 93.2457 1.78394 87.6317 1.78394C82.0178 1.78394 79.2109 3.41378 76.4718 4.99835C73.8912 6.49238 71.4465 7.91848 66.4664 7.91848C61.4863 7.91848 59.0641 6.51502 56.4836 4.99835C53.7445 3.41378 50.9376 1.78394 45.3463 1.78394C39.755 1.78394 36.948 3.41378 34.209 4.99835C31.6284 6.49238 29.2063 7.91848 24.2262 7.91848C19.2461 7.91848 16.824 6.51502 14.2434 4.99835C11.5043 3.41378 8.69734 1.78394 3.10606 1.78394C2.47223 1.78394 1.9516 2.30457 1.9516 2.9384C1.9516 3.57223 2.47223 4.09286 3.10606 4.09286Z" fill="#264164" stroke="#264164" stroke-width="2.26368" stroke-miterlimit="10"/>
</svg>
